<?xml version="1.0" standalone="no"?>
<!DOCTYPE svg PUBLIC "-//W3C//DTD SVG 20010904//EN"
 "http://www.w3.org/TR/2001/REC-SVG-20010904/DTD/svg10.dtd">
<svg version="1.0" xmlns="http://www.w3.org/2000/svg"
 width="1024.000000pt" height="269.000000pt" viewBox="0 0 1024.000000 269.000000"
 preserveAspectRatio="xMidYMid meet">

<g transform="translate(0.000000,269.000000) scale(0.100000,-0.100000)"
fill="#000000" stroke="none">
<path d="M2062 2009 c-126 -21 -256 -119 -314 -237 -29 -59 -33 -77 -36 -166
-3 -93 0 -115 42 -280 49 -192 52 -216 35 -298 -20 -99 -92 -188 -181 -228
-146 -64 -347 -13 -429 109 -40 61 -52 112 -47 206 7 141 87 269 201 324 96
47 221 11 262 -76 26 -54 23 -122 -8 -176 -14 -24 -33 -49 -41 -57 -17 -14
-21 -30 -8 -30 17 0 127 121 144 157 34 75 11 168 -53 214 -50 36 -165 39
-262 8 -86 -28 -201 -102 -251 -163 -115 -141 -139 -321 -57 -441 76 -112 294
-163 509 -119 198 41 345 141 415 284 30 61 32 70 32 180 0 113 -1 117 -44
220 -73 174 -91 230 -98 290 -7 72 8 120 56 173 45 50 102 76 166 77 94 0 154
-67 163 -182 8 -103 -64 -208 -142 -208 -14 0 -26 -5 -26 -11 0 -18 101 -4
148 20 49 25 99 83 112 131 26 94 0 196 -62 243 -55 42 -123 53 -226 36z"/>
<path d="M5855 1980 c-135 -71 -220 -156 -516 -515 -291 -353 -473 -522 -651
-605 -173 -80 -346 -50 -423 75 -28 45 -30 55 -30 144 0 88 3 102 33 163 67
137 200 242 340 268 131 24 232 -42 240 -160 5 -67 -17 -118 -74 -175 -20 -20
-33 -39 -30 -42 12 -12 70 22 116 68 61 61 84 119 78 199 -5 67 -21 95 -82
144 -36 30 -42 31 -134 31 -82 0 -107 -4 -160 -26 -96 -41 -168 -88 -248 -162
-229 -213 -283 -488 -124 -631 70 -63 120 -80 230 -80 77 1 108 6 162 26 205
77 417 273 721 664 103 133 221 277 263 320 l75 79 -45 -66 c-76 -111 -140
-260 -214 -499 -77 -251 -112 -330 -179 -401 -25 -27 -43 -52 -39 -56 12 -12
110 43 190 107 78 63 171 164 463 500 217 250 343 369 491 465 83 53 103 55
39 4 -220 -176 -480 -500 -600 -747 -44 -91 -51 -112 -54 -180 -5 -93 15 -135
70 -150 90 -25 186 22 339 165 60 57 112 103 114 101 2 -2 -3 -28 -11 -58 -20
-74 -19 -109 5 -148 27 -43 80 -66 136 -57 50 7 136 61 218 136 34 30 56 45
52 34 -5 -11 -11 -45 -13 -76 -5 -52 -3 -57 22 -77 38 -30 81 -27 153 9 103
51 279 233 432 444 24 33 44 62 46 64 2 2 23 -5 48 -14 33 -13 58 -16 93 -10
56 8 59 12 -64 -89 -161 -131 -245 -246 -245 -334 0 -38 5 -51 27 -69 34 -30
112 -31 173 -3 54 25 146 95 197 151 30 34 37 38 31 18 -4 -13 -10 -50 -13
-81 -5 -51 -3 -59 20 -82 22 -22 35 -26 88 -26 87 0 163 41 284 152 16 15 30
26 32 24 1 -1 -2 -19 -8 -40 -13 -47 3 -100 38 -123 15 -10 46 -16 81 -16 77
0 147 35 258 131 48 42 84 70 79 62 -5 -8 -30 -44 -55 -80 -25 -36 -49 -71
-54 -77 -5 -10 17 -13 98 -13 l105 0 61 91 c154 230 332 429 429 479 52 26 95
24 99 -6 3 -23 -32 -71 -176 -241 -46 -53 -97 -126 -114 -160 -29 -59 -30 -66
-19 -104 13 -44 58 -79 102 -79 45 0 107 27 167 74 69 53 129 115 95 97 -12
-6 -25 -16 -28 -22 -16 -26 -109 -89 -131 -89 -62 0 -33 63 105 226 104 124
171 235 171 285 0 64 -84 102 -171 79 -74 -20 -126 -50 -249 -144 -8 -6 -4 6
9 27 25 41 61 113 61 122 0 7 -83 6 -148 -2 -48 -5 -54 -9 -67 -39 -21 -52
-88 -145 -198 -277 -197 -237 -320 -328 -367 -272 -27 33 24 118 176 290 53
61 109 129 125 151 28 41 65 122 58 127 -2 2 -48 1 -101 -1 l-97 -4 -30 -51
c-39 -68 -265 -331 -374 -434 -92 -86 -141 -112 -177 -93 -48 26 -18 83 190
363 l153 207 54 0 c65 0 71 18 7 22 l-46 3 56 76 c53 73 106 166 106 187 0 6
-39 8 -102 6 l-102 -4 -18 -49 c-10 -27 -45 -86 -76 -132 l-58 -84 -52 -3
c-62 -4 -69 -20 -12 -24 l41 -3 -107 -140 c-104 -136 -245 -302 -288 -338 -12
-10 -39 -27 -60 -38 -48 -25 -86 -14 -86 25 0 74 151 307 297 457 l73 75 -72
-18 c-88 -23 -168 -20 -226 9 l-41 20 -55 -86 c-117 -184 -296 -401 -399 -482
-50 -40 -93 -50 -103 -24 -14 36 131 277 278 465 37 47 68 87 68 90 0 3 -42 5
-94 5 -92 0 -94 0 -114 -29 -18 -25 -22 -27 -28 -12 -11 28 -59 46 -121 46
-80 -1 -135 -15 -223 -57 -67 -33 -94 -57 -250 -215 -132 -134 -187 -183 -223
-198 -46 -20 -50 -21 -74 -5 -24 16 -25 21 -20 71 7 66 65 200 157 362 196
344 410 584 572 643 78 29 61 35 -38 15 -152 -32 -380 -162 -550 -314 -93 -84
-207 -208 -424 -459 -67 -79 -124 -143 -126 -143 -3 0 9 24 26 53 69 117 103
213 165 477 53 224 78 284 149 352 58 56 51 60 -29 18z m963 -622 c32 -32 2
-108 -106 -268 -149 -223 -288 -333 -346 -274 -25 25 -19 54 32 160 113 230
353 449 420 382z"/>
<path d="M8462 1793 c-21 -8 -182 -225 -182 -245 0 -18 44 -6 118 31 42 21 91
42 109 45 41 9 93 67 93 104 0 44 -33 72 -83 71 -23 0 -48 -3 -55 -6z"/>
<path d="M3178 1351 c-31 -66 -94 -151 -244 -327 -151 -178 -245 -252 -280
-223 -9 7 -12 20 -8 33 22 75 148 275 284 452 l78 101 -100 -2 c-97 -1 -101
-2 -120 -28 l-19 -27 -22 26 c-69 79 -288 33 -451 -95 -50 -39 -256 -279 -256
-298 0 -4 14 6 32 23 25 23 30 25 24 9 -17 -46 -28 -126 -22 -158 14 -74 104
-116 190 -87 39 13 134 79 202 142 l43 40 -9 -34 c-59 -202 112 -214 320 -21
l84 78 -67 -97 -68 -98 109 0 109 0 58 88 c199 299 410 512 508 512 32 0 44
-22 29 -53 -5 -12 -47 -66 -93 -120 -184 -216 -219 -270 -219 -338 1 -122 137
-146 266 -48 56 43 136 119 126 119 -6 0 -39 -25 -74 -56 -35 -30 -73 -60 -85
-64 -49 -20 -67 14 -38 69 8 16 64 89 125 162 164 197 204 294 144 350 -22 20
-35 24 -92 24 -81 -1 -145 -28 -245 -103 -37 -29 -70 -52 -73 -52 -3 0 3 12
14 28 25 35 62 108 62 122 0 6 -37 10 -97 10 l-98 0 -27 -59z m-518 -31 c11
-11 20 -26 20 -32 0 -51 -162 -299 -258 -396 -37 -37 -86 -76 -109 -86 -40
-18 -44 -18 -68 -2 -16 10 -25 26 -25 41 0 32 46 134 94 209 74 116 260 286
314 286 6 0 21 -9 32 -20z"/>
</g>
</svg>
