<svg width="390" height="390" viewBox="0 0 390 390" fill="none" xmlns="http://www.w3.org/2000/svg">
<circle cx="195" cy="195" r="195" fill="white"/>
<path fill-rule="evenodd" clip-rule="evenodd" d="M61.2644 220.646C87.1821 192.31 129.49 174.735 156.864 173.871C190.532 172.834 210.378 192.186 211.217 219.042C211.686 234.79 207.588 248.539 190.359 267.101C175.944 283.589 169.28 286.576 167.922 286.65C166.441 286.7 165.873 285.91 165.849 284.898C165.799 283.91 165.972 282.898 166.318 282.602C167.971 281.072 169.354 279.393 170.909 277.591C176.759 271.1 177.4 270.236 180.881 264.089C187.348 252.291 189.174 244.713 188.878 235.308C187.965 205.738 164.762 185.3 136.13 186.213C99.9435 187.348 56.377 232.519 58.2283 292.031C58.4998 300.374 59.5612 307.977 61.289 314.913C91.2548 348.013 133.414 369.858 180.659 373.438C215.685 361.614 241.454 329.451 240.023 283.491C239.628 271.42 237.974 260.338 234.271 248.366L222.028 207.416C213.71 178.709 211.637 162.986 211.242 150.076C209.933 108.262 224.768 78.1236 252.068 54.7976C261.028 47.3185 270.581 41.3451 280.553 36.8033C254.981 22.7831 225.632 14.8103 194.383 14.8103C95.2042 14.8103 14.8099 95.2293 14.8099 194.383C14.8099 221.708 20.9314 247.625 31.8662 270.803C37.2226 252.636 47.0713 235.827 61.1903 220.646H61.2644Z" fill="#003B7A"/>
<path fill-rule="evenodd" clip-rule="evenodd" d="M324.564 150.372C321.059 150.471 317.381 150.076 314.987 149.706C314.32 149.73 312.888 149.187 312.839 148.077C312.814 147.188 313.752 146.596 315.036 146.546L318.146 146.472C332.068 146.028 348.457 134.599 355.788 115.47C340.954 85.257 317.899 59.8083 289.513 42.0608C269.001 52.3045 253.08 74.6678 253.821 98.4133C254.166 110.163 258.807 132.106 267.15 149.903L281.269 181.498C297.511 216.03 299.905 235.135 300.374 250.686C302.398 315.554 256.289 346.137 241.405 356.208C231.137 362.996 219.906 368.797 208.082 373.487C300.917 366.526 374.079 289.044 374.079 194.432C374.079 173.896 370.623 154.173 364.255 135.784C353.444 144.72 339.621 149.928 324.589 150.397L324.564 150.372Z" fill="#003B7A"/>
</svg>
