<svg width="65" height="65" viewBox="0 0 65 65" fill="none" xmlns="http://www.w3.org/2000/svg">
<circle cx="32.5" cy="32.5" r="32.5" fill="white"/>
<path fill-rule="evenodd" clip-rule="evenodd" d="M10.2107 36.7744C14.5303 32.0516 21.5816 29.1225 26.144 28.9785C31.7553 28.8057 35.0629 32.031 35.2028 36.507C35.281 39.1317 34.5981 41.4231 31.7265 44.5168C29.324 47.2649 28.2133 47.7627 27.987 47.775C27.7402 47.7833 27.6455 47.6516 27.6414 47.4829C27.6332 47.3184 27.662 47.1497 27.7196 47.1003C27.9952 46.8453 28.2256 46.5655 28.4848 46.2652C29.4598 45.1833 29.5667 45.0393 30.1468 44.0149C31.2247 42.0484 31.5291 40.7855 31.4797 39.2181C31.3275 34.2896 27.4604 30.8833 22.6883 31.0355C16.6572 31.2247 9.39617 38.7532 9.70471 48.6719C9.74997 50.0624 9.92686 51.3295 10.2148 52.4855C15.2091 58.0022 22.2357 61.6431 30.1098 62.2396C35.9474 60.269 40.2424 54.9086 40.0038 47.2484C39.9379 45.2367 39.6623 43.3896 39.0452 41.3943L37.0047 34.5693C35.6183 29.7848 35.2727 27.1643 35.2069 25.0127C34.9889 18.0437 37.4614 13.0206 42.0114 9.13294C43.5047 7.88642 45.0968 6.89085 46.7588 6.13389C42.4968 3.79718 37.6054 2.46838 32.3971 2.46838C15.8674 2.46838 2.46832 15.8715 2.46832 32.3972C2.46832 36.9513 3.48857 41.2709 5.31104 45.1339C6.20376 42.106 7.84522 39.3045 10.1984 36.7744H10.2107Z" fill="#003B7A"/>
<path fill-rule="evenodd" clip-rule="evenodd" d="M54.094 25.062C53.5098 25.0785 52.8968 25.0127 52.4978 24.951C52.3867 24.9551 52.1481 24.8646 52.1399 24.6794C52.1357 24.5313 52.2921 24.4326 52.506 24.4244L53.0243 24.412C55.3446 24.338 58.0762 22.4332 59.2981 19.2449C56.8256 14.2095 52.9832 9.96804 48.2522 7.01013C44.8335 8.71741 42.18 12.4446 42.3035 16.4022C42.3611 18.3604 43.1345 22.0177 44.525 24.9839L46.8781 30.2497C49.5851 36.0051 49.9842 39.1892 50.0623 41.781C50.3997 52.5924 42.7149 57.6896 40.2342 59.368C38.5228 60.4994 36.6509 61.4661 34.6804 62.2478C50.1528 61.0877 62.3465 48.1741 62.3465 32.4054C62.3465 28.9826 61.7706 25.6956 60.7092 22.6307C58.9073 24.1199 56.6035 24.988 54.0981 25.0661L54.094 25.062Z" fill="#003B7A"/>
</svg>
