<svg width="345" height="59" viewBox="0 0 345 59" fill="none" xmlns="http://www.w3.org/2000/svg">
<path fill-rule="evenodd" clip-rule="evenodd" d="M317.196 21.35C320.195 21.35 322.774 18.8675 322.774 16.6345C322.774 14.9909 321.406 13.6533 319.298 13.6533C316.209 13.6533 315.155 16.7365 313.726 18.4198C305.744 27.9074 312.571 24.0647 317.196 21.3556V21.35ZM0.0112137 43.3233C0.0112137 47.5967 1.45187 50.4589 4.4565 52.9413C6.86132 54.7719 10.9647 56.4949 17.6578 56.4949C23.5606 56.4949 29.5138 54.8796 34.2786 51.9891C36.7114 50.4589 44.2959 45.8341 44.2959 35.502C44.2959 33.0479 44.01 29.9931 41.5771 24.4331L39.4638 19.3379C38.2025 16.4701 37.5579 12.9675 37.5579 11.0802C37.5579 6.04737 42.3956 1.49626 47.2164 1.49626C49.4699 1.49626 51.2133 2.32373 52.5362 3.86533C53.6573 5.01019 54.6495 7.37925 54.6495 10.5928C54.6495 15.8637 50.7648 19.0659 47.7041 19.0659H47.222C47.0034 19.0659 46.824 19.1453 46.824 19.2813C46.824 19.4513 47.0483 19.559 47.1828 19.559C47.536 19.6327 48.1358 19.7063 48.73 19.7063C54.3861 19.7063 59.1453 15.535 59.1453 9.09655C59.1453 3.47993 55.5352 0 49.5372 0C45.2601 0 41.1343 1.37156 37.513 4.17704C33.0173 7.75898 30.4555 12.4631 30.4555 19.1112C30.4555 21.1629 30.7246 23.6624 31.9298 28.2758L33.6732 34.8276C34.2393 36.7546 34.4019 38.5059 34.4019 40.4442C34.4019 49.5917 27.6975 55.078 19.9393 55.078C14.2215 55.078 5.10675 51.9608 5.10675 40.9033C5.10675 31.4213 12.3437 24.4898 18.1735 24.4898C22.7814 24.4898 26.4475 27.8337 26.4475 32.5265C26.4475 34.0114 26.0999 35.23 24.9788 37.0549C24.4182 38.0298 24.2893 38.1488 23.3195 39.1406C23.0673 39.4467 22.8318 39.7074 22.5516 39.9228C22.5235 39.9794 22.4563 40.1438 22.4563 40.3082C22.4563 40.4555 22.5516 40.5859 22.7814 40.5859C23 40.5859 24.0819 40.1438 26.5035 37.599C29.3624 34.7199 30.0968 32.5662 30.0968 30.0554C30.0968 25.7934 26.9912 22.6138 21.565 22.6138C17.1477 22.6138 10.2471 25.1869 5.9476 29.568C2.05728 33.4503 0 38.0581 0 43.329L0.0112137 43.3233ZM55.1316 53.6441C53.7694 53.6441 52.8109 52.7883 52.8109 51.4734C52.8109 50.952 52.9118 49.8298 54.7729 46.1912C56.5386 42.5525 57.7326 40.8296 59.8292 38.2508C62.8506 34.5839 65.6702 32.1581 67.9125 30.7696C69.6503 29.7097 70.2445 29.6077 70.7265 29.6077C71.943 29.6077 72.8231 30.5598 72.8231 31.8067C72.8231 32.0788 72.7558 33.32 71.2535 36.0461C70.351 37.7181 67.9349 41.5947 66.4831 43.5727C62.6936 48.9116 59.7731 51.4224 58.2484 52.3745C56.3985 53.5874 55.8099 53.6384 55.126 53.6384L55.1316 53.6441ZM111.698 47.9935L109.299 49.3877C107.298 51.4281 105.583 52.7883 105.039 53.2077C104.22 53.7008 103.576 53.8255 103.11 53.8255C102.393 53.8255 102.017 53.4344 102.017 52.6976C102.017 52.3859 102.09 50.8896 105.633 46.6446L109.277 42.3032C114.249 36.3918 114.781 33.303 114.781 32.2091C114.781 30.2708 113.481 28.6272 109.938 28.6272C107.404 28.6272 103.564 29.33 95.8119 36.5052C98.2111 33.5013 99.6742 30.7526 100.369 28.6159L91.8935 28.7916C91.3049 30.9906 90.9574 32.9232 80.8952 44.7969L78.5352 47.5514L77.4309 48.8153C74.5104 51.7964 73.0024 52.8053 72.4195 53.168C71.2983 53.7518 70.6761 53.8368 70.5303 53.8368C69.8521 53.8368 69.4428 53.389 69.4428 52.7769C69.4428 52.5729 69.4653 51.7964 70.6761 49.2403C71.0461 48.5206 72.4923 45.8454 76.0743 40.5349C79.1238 35.9384 80.1441 34.8332 84.3539 29.381C82.9413 29.5737 81.5399 29.6247 80.0431 29.6247C78.7931 29.6247 77.5094 29.6247 76.2369 29.4377C75.5194 30.4352 74.8915 31.223 74.359 32.0901C74.0675 30.5995 72.7558 29.211 69.3756 29.211C65.4684 29.211 60.7036 30.5769 56.1574 34.0171C54.6495 35.179 52.8557 36.6979 50.0697 40.1835C48.6515 41.9801 47.3005 43.8448 45.7702 45.5054L44.4136 47.9991L47.8331 44.1792C46.5269 47.251 46.213 49.3254 46.213 50.8273C46.213 54.0465 48.4665 56.0415 51.3702 56.0415C53.136 56.0415 54.5318 55.8885 58.2596 53.168C60.5467 51.4847 62.6376 49.4727 64.2296 47.6081C63.2318 50.1642 63.03 51.9608 63.03 52.6069C63.03 54.8853 64.3866 56.1719 66.8979 56.1719C67.9798 56.1719 71.4777 55.4974 77.2459 49.8751L79.0734 47.9991L80.7831 46.2025L74.3254 55.4294H83.2552L85.1779 52.3972C87.6949 48.3392 92.6391 41.7988 94.3376 39.7867C96.5014 37.3837 99.5396 34.4988 100.627 33.507C103.822 30.8716 105.672 30.5769 106.44 30.5769C107.337 30.5769 107.858 31.0813 107.858 31.6537C107.858 31.9484 107.858 32.3451 107.018 33.5977C106.67 34.1248 106.109 34.9069 104.03 37.4063L99.7358 42.3995C98.0093 44.4739 96.3388 46.8769 95.739 48.0501C94.8028 49.8411 94.6459 50.8216 94.6459 51.7171C94.6459 54.2449 96.6976 56.1662 99.3883 56.1662C99.932 56.1662 101.249 55.9621 102.825 55.2254C103.934 54.7379 106.143 53.3154 109.764 49.8695L111.698 47.9935ZM341.911 47.9425L339.534 49.3877C337.488 51.4281 335.756 52.7883 335.173 53.1737C334.428 53.6724 333.761 53.8255 333.307 53.8255C332.55 53.8255 332.202 53.4344 332.202 52.6976C332.202 52.3405 332.242 50.85 335.835 46.6446L339.495 42.3032C344.411 36.3918 345 33.303 345 32.2091C345 30.2708 343.688 28.6272 340.117 28.6272C337.612 28.6272 333.71 29.33 326.002 36.5052C328.396 33.5013 329.837 30.7525 330.56 28.5875L322.056 28.7916C321.467 30.9906 321.165 32.9232 311.047 44.7969L308.709 47.5514L307.835 48.4752C302.756 53.185 302.038 53.4457 301.769 53.5704C300.844 54.0465 300.228 54.1542 299.729 54.1542C298.361 54.1542 297.677 53.321 297.677 52.4312C297.677 51.5414 298.238 50.7196 299.095 49.2063C299.942 47.8744 301.326 45.9701 303.406 43.516L307.616 38.7269C311.394 34.3288 312.386 32.2091 313.154 29.432C310.267 29.619 307.285 29.8514 304.634 29.8911L303.983 31.2173C303.597 32.0958 303.238 33.1329 296.954 40.4555C294.897 42.8359 292.862 45.2277 290.72 47.5457L289.47 48.9286C285.518 52.7033 284.196 53.5081 284.072 53.6044C283.007 54.1995 282.222 54.3752 281.735 54.3752C280.529 54.3752 279.845 53.6498 279.845 52.6693C279.845 50.5892 281.796 47.9935 288.775 38.5059L294.813 30.2765L299.219 30.1461C299.426 30.1461 299.723 30.0554 299.723 29.8514C299.723 29.6247 299.561 29.4547 299.219 29.4547H295.283L298.232 25.3513C301.551 20.6358 301.764 19.8254 302.414 17.5243C300.687 17.768 298.832 17.887 297.032 17.887C295.911 17.887 294.74 17.802 293.619 17.7227C293.265 19.8707 292.722 21.639 290.037 25.4023L287.127 29.432L283.691 29.3753C283.259 29.3753 283.114 29.568 283.114 29.721C283.114 29.8854 283.192 30.0498 283.691 30.0498L286.668 30.0951L279.896 39.0953C278.988 40.2402 278.203 41.368 277.228 42.5072C276.426 43.516 275.439 44.5645 274.554 45.4997L272.805 47.5457L271.566 48.991C270.585 50.1585 268.825 51.4507 268.158 51.8418C266.768 52.6012 266.213 52.6693 265.691 52.6693C264.688 52.6693 263.97 51.8871 263.97 50.9293C263.97 50.6629 264.155 48.0275 268.825 41.1867C272.205 36.1425 273.898 34.1021 279.582 28.5082C276.706 29.5907 273.388 30.1404 271.947 30.1404C269.027 30.1404 267.014 29.3696 265.327 28.0604C260.792 35.8591 255.483 42.7282 252.978 45.4884L251.189 47.5401L250.046 48.7813C247.108 51.7851 245.629 52.7939 245.051 53.1567C243.941 53.7404 243.325 53.8255 243.196 53.8255C242.512 53.8255 241.957 53.355 241.957 52.7259C241.957 52.5616 242.114 51.7908 243.325 49.229C243.655 48.5092 245.079 45.8341 248.678 40.5235C251.744 35.9271 252.776 34.8219 256.93 29.3696C255.545 29.5623 254.144 29.6134 252.63 29.6134C251.43 29.6134 250.136 29.585 248.874 29.4263C248.151 30.4238 247.523 31.2116 246.98 32.0788C246.66 30.5882 245.371 29.1996 241.94 29.1996C238.078 29.1996 233.296 30.5655 228.795 34.0058C227.304 35.1336 225.471 36.6866 222.651 40.1721C221.272 41.9631 221.177 41.6571 219.658 43.3233C214.669 49.1213 211.698 49.6881 210.896 49.6881C209.696 49.6881 208.771 48.9966 208.771 47.1717C208.771 46.3895 208.805 45.7094 209.696 42.9096C210.98 39.2256 216.726 27.641 222.842 19.2756C226.211 14.6678 230.303 10.3264 232.007 8.79049C233.386 7.58896 234.754 6.33074 236.357 5.43525C237.904 4.50576 239.787 3.79731 241.267 3.43458C241.267 3.43458 241.643 3.2759 241.576 3.08886C241.576 2.87916 241.29 2.87916 241.228 2.87916C240.853 2.87916 237.265 3.35524 234.165 4.39241C231.822 5.25389 226.721 7.58895 221.76 11.0689C218.901 13.0185 215.935 15.3649 211.171 20.1824C205.307 26.0484 200.24 32.5209 194.858 38.7099C193.608 40.1381 192.24 41.6627 190.895 43.091C194.623 37.7237 196.915 32.6285 198.933 23.7814L201.165 14.2371C202.375 8.79049 204.304 6.33074 206.114 4.85149L207.785 3.48559C207.953 3.43458 207.975 3.30422 207.975 3.1682C207.975 3.09452 207.953 2.96985 207.656 2.96985C207.589 2.96985 207.432 2.98685 207.359 2.98685C203.889 4.34708 198.58 7.11854 189.337 18.5445L177.615 32.9232C174.964 36.1651 169.554 41.7874 167.004 43.9185C161.695 48.5092 157.239 50.9293 155.54 51.5868C153.062 52.5673 150.411 53.032 148.499 53.032C141.834 53.032 137.266 48.8493 137.266 42.2182C137.266 36.2332 141.106 29.619 146.476 26.3885C149.508 24.5182 152.805 23.6737 155.277 23.6737C160.002 23.6737 163.225 26.9042 163.225 31.0529C163.225 32.8666 162.727 34.6519 161.14 36.6866C160.445 37.5934 159.543 38.4662 158.668 39.0953C158.606 39.135 158.326 39.3787 158.326 39.5997C158.326 39.7471 158.433 39.9171 158.747 39.9171C159.06 39.9171 159.985 39.8831 162.418 37.9164C165.613 35.4 166.948 32.3395 166.948 29.2846C166.948 24.1781 163.169 20.7378 157.995 20.7378C147.535 20.7378 131.834 33.473 131.834 46.8769C131.834 50.4192 133.28 53.4684 135.971 55.8375C138.448 57.9118 141.173 59 145.282 59C151.218 59 156.005 56.1889 160.479 53.049C164.885 49.9318 170.272 44.8253 176.343 37.089L187.778 22.2794C190.889 18.2668 194.157 14.7755 197.79 11.4316C194.012 15.7617 192.493 18.0911 190.615 21.9451C189.011 25.1869 187.806 28.2758 187.072 30.8262L182.778 44.8819C181.752 48.2655 179.583 51.9551 177.935 53.7064C177.447 54.2902 176.87 54.7776 176.343 55.2027C176.292 55.2254 176.068 55.4237 176.068 55.6674C176.068 55.9621 176.163 56.1379 176.584 56.1379C176.724 56.1379 180.009 55.061 184.706 51.054C186.052 49.9318 189.011 47.1037 193.687 41.7024C195.004 40.2458 197.543 37.259 206.961 26.2071C209.893 22.7159 214.226 18.5445 217.555 15.637C221.289 12.4914 224.12 10.5871 228.414 8.28041C218.822 15.9374 210.369 25.3173 204.113 35.4C200.105 41.7874 199.107 44.7176 198.519 46.5255C197.919 48.5602 197.874 49.3934 197.874 50.4192C197.874 54.7776 200.038 56.3759 202.706 56.3759C204.113 56.3759 206.114 56.0358 209.467 54.0465C211.165 53.0377 212.976 51.19 216.12 47.9991L220.465 44.1792C219.125 47.251 218.817 49.3254 218.817 50.8273C218.817 54.0522 221.076 56.0415 223.923 56.0415C225.717 56.0415 227.096 55.8885 230.858 53.168C233.145 51.4564 235.208 49.4727 236.828 47.6081C235.83 50.1585 235.611 51.9608 235.611 52.6069C235.611 54.8853 237.001 56.1719 239.507 56.1719C240.578 56.1719 244.115 55.4804 249.833 49.8751L251.688 47.9991L253.034 46.3895C256.386 42.6206 259.99 38.0298 263.258 33.1329C264.374 34.1248 265.854 34.7086 267.485 34.7086C269.01 34.7086 270.333 34.4195 271.381 33.9604L267.222 37.3837C256.767 45.9248 255.887 50.4192 255.887 52.2952C255.887 54.857 257.513 56.2569 260.517 56.2569C262.053 56.2569 263.331 56.0358 265.473 54.857C266.997 53.9388 270.417 51.3147 272.121 49.3254L273.377 47.9991L274.84 46.2648C273.534 48.6963 273.057 50.7989 273.057 51.8985C273.057 54.9533 274.615 56.3192 277.715 56.3192C280.064 56.3192 283.31 55.8035 289.891 49.399L291.32 48.0048L291.729 47.5004C290.692 49.2687 290.322 51.0597 290.322 52.0628C290.322 54.6586 291.959 56.4326 295.597 56.4326C296.578 56.4326 298.148 56.1775 300.351 55.1687C301.108 54.7436 302.986 53.6611 305.811 51.1957C306.685 50.4249 307.465 49.6711 308.272 48.94L309.247 48.0105L310.912 46.2138L304.488 55.4407H313.429L315.346 52.3632C317.824 48.3449 322.751 41.7307 324.478 39.7981C326.546 37.395 329.613 34.4932 330.739 33.5184C333.968 30.8829 335.829 30.5769 336.603 30.5769C337.494 30.5769 338.027 31.0983 338.027 31.6707C338.027 31.9314 338.027 32.3622 337.203 33.609C336.771 34.1418 336.266 34.9239 334.22 37.4233L329.887 42.4165C328.065 44.4909 326.473 46.8939 325.857 48.0671C324.898 49.8581 324.752 50.8386 324.752 51.7341C324.752 54.2392 326.815 56.1832 329.506 56.1832C330.078 56.1832 331.446 55.9792 332.976 55.2424C334.03 54.7549 336.306 53.3324 339.871 49.8865L341.872 47.9595L341.911 47.9425ZM227.752 53.6441C226.396 53.6441 225.443 52.7883 225.443 51.4451C225.443 50.9293 225.56 49.8298 227.382 46.1912C229.176 42.5525 230.387 40.8296 232.495 38.2055C235.454 34.5839 238.347 32.1185 240.466 30.7752C242.282 29.7154 242.876 29.6134 243.381 29.6134C244.586 29.6134 245.472 30.5655 245.472 31.8124C245.472 32.0844 245.393 33.3257 243.924 36.0291C243 37.7237 240.578 41.6004 239.16 43.5784C235.359 48.9173 232.422 51.4281 230.897 52.3802C229.058 53.5931 228.492 53.6441 227.747 53.6441H227.752Z" fill="white"/>
</svg>
