<svg viewBox="0 0 1800 1800" xmlns="http://www.w3.org/2000/svg" xmlns:xlink="http://www.w3.org/1999/xlink"><clipPath id="a"><path d="m59.27 900c0 464.02 376.71 840.73 840.73 840.73s840.73-376.7 840.73-840.73-376.71-840.73-840.73-840.73-840.73 375.88-840.73 840.73z"/></clipPath><g clip-path="url(#a)"><path d="m1873.78 901.66c0 530.55-430.76 961.3-961.3 961.3s-961.31-430.75-961.31-961.3 430.76-961.3 961.3-961.3c531.38 0 961.3 429.93 961.3 961.3" fill="#f4cb20"/></g><path d="m1512.04 714.56c7.48-24.95 9.15-49.89 3.33-74.84-7.48-33.26-23.28-63.2-49.06-87.32-2.5-1.66-4.16-3.33-5.82-4.99-4.99-3.33-9.98-6.65-14.97-9.98-2.5-.83-4.99-.83-5.82-2.49-15.8-5.82-32.43-9.15-49.89-4.16 0 .83.83.83.83 1.66-298.54-210.39-508.93 84.82-508.93 84.82s-91.47-187.94-311.01-160.49c-219.54 28.27-280.24 228.68-280.24 228.68-24.12 46.57-28.27 98.13-18.29 149.68v-1.66c-1.66 2.49-7.48 13.31-8.32 15.8-.83.83-.83 2.49-1.66 3.33-4.16 14.14-5.82 29.11-11.64 42.41v.83c-.83 15.8-1.66 31.6-2.5 48.23 1.66 4.16 1.66 8.32.83 12.47.83 9.15 1.66 18.29 2.5 27.44v4.99c4.16.83 2.5 4.16 2.5 6.65 1.66.83 1.66 2.49 1.66 4.16.83 4.16 0 8.32 1.66 11.64 8.32 16.63 13.31 34.93 23.28 51.56 19.13 30.77 41.58 58.21 68.19 82.33 49.06 43.24 105.61 74.01 164.65 98.96 24.12 9.98 49.06 19.13 74.01 27.44 4.99 4.16 8.32 6.65 8.32 6.65l301.86 272.76 506.43-490.63c47.4-45.74 84.82-103.95 102.28-168.81 17.46-64.03 14.14-121.41 1.66-170.47 1.66-1.66 3.32-4.16 4.16-6.65z" fill="#fff" stroke="#fff" stroke-linecap="round" stroke-linejoin="round" stroke-width="56.23"/><path d="m880.87 616.43s210.39-295.21 509.76-83.99c0 0 174.63 140.54 115.59 360.07-17.46 64.86-54.05 122.24-102.28 168.81l-506.43 490.63-301.86-272.76s-432.42-350.93-305.19-593.75c0 0 60.71-200.41 280.24-228.68 218.71-28.27 310.18 159.66 310.18 159.66" fill="#f4cb1e"/><g fill="#efe4ba"><path d="m1512.04 715.39c-18.29 49.06-55.72 83.16-96.46 114.76-59.04 44.91-126.4 73.18-195.42 97.29-59.87 20.79-121.41 32.43-183.78 41.58-68.19 9.98-137.21 4.16-206.23 6.65-8.32 0-13.31-4.16-14.14-12.47-.83-9.15 4.99-12.47 13.31-13.31 24.12-1.66 48.23-7.48 73.18-8.32 5.82 0 12.47-2.49 11.64-9.98 0-8.32-6.65-7.48-12.47-9.15-22.45-3.33-44.91-3.33-66.53-5.82-14.14-1.66-28.27-4.99-43.24-3.33-5.82.83-11.64-.83-17.46-2.49-7.48-2.49-10.81-7.48-9.98-14.97.83-7.48 5.82-11.64 13.31-11.64h110.6c6.65 0 11.64-3.33 13.31-9.15 1.66-4.99-1.66-9.15-6.65-9.98-36.59-4.99-73.18-13.31-109.77-16.63-12.47-1.66-24.95-4.16-36.59-6.65-8.32-1.66-12.47-8.32-12.47-17.46.83-8.32 8.32-14.14 16.63-13.31 15.8 1.66 32.43 4.16 48.23 6.65 19.13 2.49 39.08 5.82 58.21 7.48 13.31.83 25.78 4.99 39.08 4.99 5.82 0 11.64-.83 12.47-7.48 1.66-7.48-4.16-10.81-9.15-12.47-42.41-14.14-84.82-29.11-127.23-43.24-5.82-1.66-10.81-4.99-12.47-10.81s-.83-10.81 3.33-14.97c4.99-4.99 10.81-5.82 17.46-3.33 28.27 9.15 56.55 17.46 84.82 26.61 24.12 7.48 47.4 16.63 71.52 23.28 4.99 1.66 11.64 2.49 17.46-.83 9.15-4.16 9.98-14.97 1.66-23.28-12.47-11.64-24.12-24.12-34.93-36.59-7.48-8.32-7.48-20.79-1.66-26.61s20.79-5.82 29.11 0c26.61 20.79 53.22 42.41 79.83 64.03 22.45 18.29 44.91 35.76 74.84 39.92 16.63 2.49 32.43 0 48.23-4.99 29.94-10.81 59.87-21.62 88.98-34.93 37.42-16.63 74.01-35.76 107.27-60.71 24.12-18.29 46.57-39.92 59.87-68.19 13.31-29.11 9.98-57.38-7.48-83.16-4.16-6.65-9.15-12.47-13.31-18.29 17.46-4.99 33.26-1.66 49.89 4.16 1.66 2.49 4.16 2.49 5.82 2.49 4.99 3.33 9.98 6.65 14.97 9.98 1.66 1.66 4.16 3.33 5.82 4.99 25.78 24.12 41.58 54.05 49.06 87.32 6.65 22.45 4.99 48.23-2.5 72.35"/><path d="m272.16 832.64c6.65 28.27 14.14 61.54 29.94 85.65 19.13 29.94 43.24 55.72 70.68 79.83 51.56 44.91 110.6 77.34 172.14 103.95 34.93 14.97 69.85 28.27 106.44 38.25 24.12 5.82 47.4 0 69.02-10.81 18.29-9.15 32.43-23.28 48.23-35.76 24.12-18.29 48.23-38.25 72.35-56.55 9.15-7.48 19.13-6.65 26.61.83 6.65 7.48 6.65 19.13-.83 27.44-10.81 11.64-21.62 23.28-33.26 34.93-5.82 5.82-10.81 12.47-4.99 19.96 4.99 7.48 12.47 6.65 20.79 4.16 37.42-11.64 74.84-23.28 112.26-34.93 14.97-4.99 30.77-9.98 45.74-14.14 9.98-3.33 19.13.83 21.62 9.15 2.5 8.32-1.66 15.8-11.64 19.13-44.07 14.97-87.32 31.6-132.22 43.24-6.65 1.66-7.48 6.65-7.48 11.64.83 6.65 4.16 9.15 9.98 9.15 15.8-1.66 31.6-3.33 48.23-4.99 24.95-3.33 49.06-6.65 74.01-9.98 7.48-.83 14.97-1.66 22.45-3.33 11.64-1.66 19.96 2.49 21.62 12.47s-3.33 16.63-15.8 19.13c-44.07 6.65-87.32 13.31-131.39 20.79-3.33.83-6.65 1.66-9.98 1.66-5.82.83-9.98 4.16-9.15 9.15s4.16 9.98 11.64 9.98h111.43c11.64 0 17.46 4.16 17.46 13.31 0 8.32-4.99 12.47-15.8 14.14-39.92 4.16-79 9.15-118.92 9.98-1.66 0-3.33.83-4.99 1.66-6.65.83-12.47 2.49-11.64 9.98.83 9.15 9.98 9.98 15.8 9.98 24.12.83 49.06 4.16 73.18 6.65 7.48.83 12.47 5.82 11.64 13.31-.83 8.32-6.65 12.47-14.97 12.47-46.57 0-93.97 0-140.54-.83-30.77-.83-60.71-4.16-90.64-9.15-33.26-4.99-65.69-11.64-98.13-19.13-1.66-.83-3.33 0-4.99 0-.83-2.49-3.33-2.49-4.99-2.49-36.59-10.81-72.35-22.45-107.27-37.42-59.87-25.78-116.42-55.72-164.65-98.96-27.44-24.12-49.06-52.39-68.19-82.33-9.98-15.8-15.8-34.09-23.28-51.56-1.66-3.33-1.66-8.32-1.66-11.64 0-1.66 0-3.33-1.66-4.16-.83-2.49.83-5.82-2.5-6.65v-4.99c-.83-9.15-1.66-18.29-2.5-27.44.83-4.16.83-8.32-.83-12.47.83-15.8 1.66-32.43 2.5-48.23v-.83c5.82-13.31 7.48-28.27 11.64-42.41.83-.83.83-2.49 1.66-3.33-1.66-3.33 4.16-14.14 5.82-17.46"/></g></svg>