<svg viewBox="0 0 1800 1800" xmlns="http://www.w3.org/2000/svg" xmlns:xlink="http://www.w3.org/1999/xlink"><clipPath id="a"><path d="m1580.98 1397.97c-274.77 376.27-802.86 457.95-1179.13 183.18-376.27-274.77-457.96-802.86-183.18-1179.12 274.77-376.27 802.86-457.96 1179.13-183.19 376.27 275.6 458.78 803.69 183.18 1179.13z"/></clipPath><path d="m1580.98 1397.97c-274.77 376.27-802.86 457.95-1179.13 183.18-376.27-274.77-457.96-802.86-183.18-1179.12 274.77-376.27 802.86-457.96 1179.13-183.19 376.27 275.6 458.78 803.69 183.18 1179.13" fill="#d5e5f7"/><g clip-path="url(#a)"><path d="m1043.81 353.34c-4.13 32.18-6.6 65.19-9.9 97.37-2.48 29.7-4.95 58.59-8.25 88.29-.82 9.9-7.43 14.03-16.5 12.38-9.9-1.65-9.9-8.25-8.25-16.5 4.95-38.78 8.25-76.74 11.55-115.52 1.65-20.63 5.78-40.43-17.33-51.98-28.88 4.95-35.48 11.55-38.78 38.78-4.95 47.86-9.9 95.72-14.03 144.4-1.65 16.5-6.6 32.18-12.38 47.86-2.48 7.43-7.43 13.2-15.68 12.38-7.43-.82-8.25-8.25-9.08-13.2-.82-18.98-8.25-37.13-10.73-56.11-1.65-12.38-5.78-21.45-18.15-26.4-14.03-5.78-26.4-1.65-36.31 8.25-6.6 6.6-7.43 17.33-6.6 25.58 4.95 62.71 12.38 124.6 30.53 184.83 7.43 26.4 4.13 52.81 1.65 80.04-3.3 39.61-23.93 72.61-36.31 108.09-3.3 9.9-11.55 18.15-17.33 28.06-6.6 18.15-20.63 31.36-31.36 47.03-17.33 25.58-40.43 46.21-63.54 67.66-23.93 17.33-49.51 32.18-77.56 42.91-16.5 5.78-33.83 8.25-51.16 12.38-26.4 7.43-52.81 8.25-80.04 3.3-18.98-3.3-37.96-6.6-56.94-11.55-31.36-9.08-61.06-20.63-89.94-35.48-25.58-13.2-50.33-28.06-75.91-42.08-13.2-3.3-23.1-13.2-35.48-18.15-39.61-14.03-76.74-31.36-118.82-39.61-44.56-8.25-88.29-13.2-133.67-11.55-28.88.82-58.59 3.3-85.81 9.9-35.48 9.08-70.14 18.15-103.97 33.83-23.93 10.73-47.86 21.45-70.14 35.48-4.13 2.48-7.43 5.78-11.55 8.25 6.6 8.25 12.38 18.98 21.45 24.75 8.25 6.6 16.5 13.2 24.75 20.63 179.88 169.98 847.42 731.08 1271.55 124.6 34.66-46.21 66.84-100.67 96.54-164.2 17.33-36.31 37.13-70.96 51.16-108.09 11.55-31.36 21.45-62.71 28.06-94.89 3.3-17.33 5.78-35.48 9.08-53.63.82-3.3 0-6.6 3.3-8.25-2.48-4.13-2.48-8.25-2.48-12.38 1.65-23.93 2.48-47.03 4.95-70.96 1.65-21.45 0-42.91 3.3-62.71 4.95-27.23 2.48-55.28 8.25-82.51 6.6-33.01 4.95-66.84 9.9-99.84 1.65-11.55 1.65-23.1 3.3-34.66 2.48-13.2-8.25-23.93-23.93-25.58-14.85-1.65-30.53 9.9-32.18 25.58-3.3 34.66-7.43 68.49-10.73 103.14-.82 13.2-5.78 17.33-17.33 16.5-11.55-.82-11.55-9.9-10.73-18.15 1.65-22.28 3.3-43.73 6.6-65.19 4.95-31.36 4.13-62.71 8.25-93.24 1.65-14.03-9.9-17.33-19.8-20.63s-19.8-4.95-25.58 7.43c-6.6 13.2-11.55 26.4-12.38 42.08-3.3 44.56-9.08 89.12-13.2 133.67-.82 11.55-6.6 18.98-16.5 18.15-9.9-1.65-12.38-11.55-9.9-21.45 4.13-16.5 6.6-33.01 6.6-49.51 0-10.73.82-20.63 2.48-31.36 4.13-32.18 6.6-64.36 9.08-97.37.82-10.73-3.3-19.8-14.85-23.93-21.45-10.72-37.96-1.65-41.26 23.11" fill="#fff"/><path d="m1071.86 324.46c4.13 0 9.08.82 13.2 2.48 11.55 4.13 15.68 13.2 14.85 23.93-2.48 32.18-5.78 65.19-9.08 97.37-1.65 10.73-2.48 20.63-2.48 31.36 0 16.5-2.48 33.01-6.6 49.51-2.48 9.9 0 19.8 9.9 21.45h2.48c8.25 0 13.2-7.43 14.03-18.15 4.13-44.56 9.9-89.12 13.2-133.67.82-15.68 6.6-28.06 12.38-42.08 3.3-7.43 9.08-9.9 14.03-9.9 4.13 0 7.43.82 11.55 2.48 9.9 3.3 21.45 6.6 19.8 20.63-4.13 31.36-4.13 62.71-8.25 93.24-3.3 21.45-4.95 43.73-6.6 65.19-.82 7.43-.82 17.33 10.73 18.15h3.3c9.9 0 13.2-4.95 14.85-16.5 3.3-34.66 7.43-68.49 10.73-103.14.82-14.03 15.68-25.58 28.88-25.58h3.3c16.5 1.65 26.4 12.38 23.93 25.58-1.65 11.55-1.65 23.1-3.3 34.66-4.95 33.01-3.3 67.66-9.9 99.84-5.78 27.23-3.3 54.46-8.25 82.51-4.13 19.8-1.65 42.08-3.3 62.71-2.48 23.93-2.48 47.03-4.95 70.96 0 4.13 0 17.33-.82 20.63-3.3 18.15-5.78 35.48-9.08 53.63-6.6 32.18-16.5 64.36-28.06 94.89-14.03 37.96-33.83 72.61-51.16 108.09-28.88 63.54-61.89 118-96.54 164.2-141.92 202.99-311.08 275.6-480.23 275.6-335.83 0-671.67-286.32-791.31-399.37-8.25-6.6-16.5-14.03-24.75-20.63s-14.03-16.5-21.45-24.75c4.13-2.48 7.43-5.78 11.55-8.25 22.28-14.03 46.21-23.93 70.14-35.48 33.01-15.68 68.49-24.75 103.97-33.83 28.05-6.6 56.93-9.08 85.81-9.9h18.15c38.78 0 76.74 4.13 115.52 11.55 42.08 8.25 79.21 25.58 118.82 39.61 13.2 4.95 23.1 14.03 35.48 18.15 25.58 14.03 50.33 28.88 75.91 42.08 28.88 14.85 58.59 27.23 89.94 35.48 18.98 4.95 37.96 8.25 56.94 11.55 11.55 1.65 23.1 3.3 33.83 3.3 15.68 0 30.53-1.65 46.21-6.6 17.33-4.13 34.66-6.6 51.16-12.38 28.88-10.73 54.46-25.58 77.56-42.91 22.28-21.45 45.38-42.08 63.54-67.66 10.73-15.68 24.75-28.88 31.36-47.03 5.78-9.08 14.03-17.33 17.33-28.06 12.38-36.31 33.01-68.49 36.31-108.09 2.48-27.23 5.78-53.63-1.65-80.04-17.33-60.24-25.58-122.12-30.53-184.83-.82-9.08.82-19.8 6.6-25.58 6.6-6.6 14.85-11.55 23.93-11.55 4.13 0 8.25.82 12.38 2.48 11.55 4.95 16.5 14.85 18.15 26.4 1.65 18.98 9.08 37.13 10.73 56.11 0 4.95.82 12.38 9.08 13.2h1.65c7.43 0 11.55-5.78 14.03-12.38 4.95-15.68 10.73-31.36 12.38-47.86 4.95-47.86 9.08-95.72 14.03-144.4 3.3-28.06 9.9-34.66 38.78-38.78 23.1 11.55 18.98 31.36 17.33 51.98-3.3 38.78-6.6 77.56-11.55 115.52-.82 7.43-.82 14.85 8.25 16.5h3.3c7.43 0 12.38-4.13 13.2-12.38 2.48-29.7 4.95-58.59 8.25-88.29 3.3-32.18 5.78-65.19 9.9-97.37 1.65-15.68 12.38-25.58 27.23-25.58m-.03-49.51c-29.7 0-54.46 15.68-67.66 42.08l-1.65-.82-15.68 2.48c-51.16 9.08-74.26 33.01-79.21 82.51-2.48 23.1-4.95 46.21-6.6 69.31-.82 0-1.65-.82-2.48-.82-10.73-4.13-21.45-6.6-32.18-6.6-22.28 0-42.08 9.08-59.41 26.4-15.68 15.68-23.1 38.78-20.63 64.36 4.13 53.63 11.55 124.6 32.18 194.73 4.13 14.03 2.48 32.18.82 51.98l-.82 9.9c-1.65 18.98-9.08 37.13-18.98 58.59-4.95 11.55-9.9 23.93-14.85 37.13-.82 1.65-3.3 4.13-4.95 6.6-2.48 3.3-4.95 7.43-7.43 10.73l-3.3 4.95-1.65 4.95c-1.65 4.95-7.43 11.55-13.2 18.98-4.13 4.95-8.25 10.73-12.38 16.5-12.38 18.15-30.53 34.66-48.68 52.81l-4.95 4.95c-20.63 14.85-41.26 26.4-63.54 34.66-7.43 2.48-17.33 4.95-28.06 6.6-5.78.82-11.55 2.48-18.15 4.13h-3.3c-10.73 3.3-20.63 4.13-32.18 4.13-8.25 0-16.5-.82-25.58-2.48-18.15-3.3-35.48-6.6-51.98-10.73-27.23-7.43-54.46-18.15-80.86-32.18-16.5-9.08-33.01-18.15-51.16-28.06-7.43-4.13-15.68-9.08-23.1-13.2l-4.95-3.3-5.78-1.65c-.82 0-4.13-2.48-6.6-4.13-6.6-4.13-14.85-9.08-26.4-13.2-10.73-4.13-21.45-7.43-32.18-12.38-28.88-11.55-59.41-23.1-93.24-29.7-44.56-8.25-85.81-13.2-124.6-13.2h-19.81c-28.88.82-62.71 3.3-95.72 11.55-42.08 10.73-77.56 20.63-112.22 37.13l-5.78 2.48c-23.1 10.73-46.21 21.45-69.31 35.48-4.95 3.3-9.08 5.78-12.38 8.25-.83.82-1.65 1.65-2.48 1.65l-42.08 31.36 33.83 40.43c1.65 1.65 3.3 4.13 4.13 5.78 5.78 7.43 13.2 18.15 25.58 27.23 7.43 4.95 14.03 11.55 20.63 17.33 132.02 124.6 474.46 412.57 825.14 412.57 207.94 0 382.87-99.84 520.67-296.23l1.65-1.65c8.25-11.55 17.33-23.93 25.58-36.31l31.36-44.56h-3.3c16.5-28.06 32.18-57.76 46.21-89.12 4.95-10.73 10.73-20.63 15.68-31.36 13.2-25.58 26.4-52.81 37.13-81.69 14.03-38.78 23.93-70.96 29.7-102.32 2.48-11.55 4.13-22.28 5.78-33.01.82-7.43 2.48-14.03 3.3-21.45.82-4.95.82-10.73 1.65-19.8v-6.6c.82-9.9 1.65-19.8 1.65-29.7.82-14.03 1.65-27.23 2.48-40.43.82-10.73.82-21.45.82-30.53 0-10.73 0-20.63 1.65-28.06 3.3-16.5 4.13-33.01 4.95-47.03.82-12.38 1.65-23.93 3.3-34.66 4.13-21.45 5.78-41.26 6.6-61.06.82-14.85 1.65-28.06 3.3-41.26.82-7.43 1.65-14.85 2.48-20.63 0-4.95.82-9.9 1.65-14.03 3.3-18.98-1.65-37.96-13.2-52.81-12.38-16.5-31.36-27.23-54.46-29.7-3.3 0-5.78-.82-9.08-.82h-4.95c-4.13-17.33-16.5-38.78-51.16-50.33h-.82c-6.6-2.48-16.5-4.95-27.23-4.95-5.78 0-11.55.82-16.5 2.48-8.25-8.25-18.15-15.68-30.53-19.8-10.73.82-20.63-.83-30.53-.83" fill="#2b4485"/></g></svg>