<svg viewBox="0 0 1800 1800" xmlns="http://www.w3.org/2000/svg" xmlns:xlink="http://www.w3.org/1999/xlink"><clipPath id="a"><path d="m211.71 437.41c-255.3 349.71-179.78 839.8 169.93 1095.11s839.8 179.78 1095.11-169.93 179.78-839.8-169.93-1095.11c-139.56-101.79-301.28-151.05-462.18-151.05-241.35-.82-479.42 110.82-632.93 320.98z"/></clipPath><path d="m1577.73 1395.43c-273.37 374.34-798.76 455.61-1173.1 182.24-374.34-273.37-455.61-798.76-182.25-1173.1 273.37-374.34 798.76-455.61 1173.1-182.24s455.61 798.76 182.24 1173.1" fill="#71b1e2"/><path d="m222.38 404.57c-273.36 374.34-192.09 899.73 182.25 1173.1s899.73 192.1 1173.1-182.24 192.1-899.73-182.24-1173.1c-149.41-109.18-322.62-161.72-495.02-161.72-258.59 0-513.9 119.03-678.08 343.97" fill="none"/><path d="m222.38 404.57c-273.36 374.34-192.09 899.73 182.25 1173.1s899.73 192.1 1173.1-182.24 192.1-899.73-182.24-1173.1c-149.41-109.18-322.62-161.72-495.02-161.72-258.59 0-513.9 119.03-678.08 343.97" fill="none"/><g clip-path="url(#a)"><path d="m1518.62 913.55h-26.27c2.46-13.13 4.93-27.09 6.57-41.87 7.39-82.09-27.91-145.3-95.23-192.1-51.72-36.12-110-39.4-169.93-36.12 2.46-4.93 4.93-9.85 5.75-14.78 4.1-17.24-16.42-51.72-38.58-55.82-12.31-2.46-24.63-5.75-36.94-9.03-12.31-31.2-28.73-59.11-58.29-80.45-105.9-74.7-256.13-41.87-331.65 71.42-.82 0-2.46.82-3.28.82-23.81 7.39-107.54 11.49-123.14 5.75 0 0-224.93-7.39-336.58 26.27-119.03 27.09-252.84 82.09-376.8 187.99 20.52 77.17 35.3 155.15 44.33 233.96 55.82-32.84 115.75-57.46 178.96-75.52 51.72-14.78 105.08-27.09 159.26-32.84 22.16-2.46 43.51-4.1 65.67-4.93h5.75c9.85-1.64 18.88-3.28 27.91-4.93 36.12-5.75 70.6-18.88 103.44-34.48 4.93-2.46 9.85-4.93 15.6-6.57 60.75-22.99 121.5-42.69 184.71-54.18.82 16.42 2.46 32.84 4.1 49.26-77.17 8.21-151.87 28.73-223.29 65.67-22.16 11.49-103.44 31.2-119.85 28.73 0 0-222.47 33.66-325.91 87.02-72.24 31.2-147.77 75.52-220.01 136.27 27.09 91.12 45.15 184.71 53.36 278.29 25.45-16.42 51.72-32.02 79.63-45.97 48.43-24.63 98.51-45.97 150.23-61.57 21.34-6.57 41.87-12.31 64.03-16.42 63.21-12.31 134.63-16.42 202.77-17.24h66.49c9.03.82 18.06 2.46 27.09 4.1 16.42 4.1 31.2 7.39 41.87 9.85 0 0 4.1.82 10.67 2.46 8.21 2.46 13.13 3.28 13.13 3.28 7.39 2.46 14.78 4.1 22.16 4.93 122.32 26.27 462.18 77.99 687.93-82.91 31.2-6.57 50.08-13.13 50.08-13.13s53.36-26.27 53.36-68.96c0-30.37-27.91-35.3-44.33-36.12 10.67-4.93 21.34-10.67 32.02-16.42 41.05-22.99 73.06-50.9 97.69-83.73 2.46-.82 4.1-1.64 6.57-3.28 0 0-1.64 0-4.93.82 0 0 0-.82.82-.82 35.3-.82 56.64-4.1 56.64-4.1s57.46-15.6 64.85-58.29c8.21-41.05-48.44-44.33-48.44-44.33zm-733.9 155.15c-9.85-13.96-13.96-27.91-14.78-41.05 4.93 13.14 9.85 27.09 14.78 41.05zm334.11 204.41s-155.15.82-133.81-25.45c4.93.82 9.03 1.64 13.96 2.46 105.9 18.88 201.13 4.93 256.95-6.57-2.46.82-68.96 27.09-137.09 29.55z" fill="#fff" stroke="#fff" stroke-linejoin="round" stroke-width="77.71"/><path d="m1518.62 913.55h-193.74c-133.81-23.81-218.36-67.32-271.72-110.82-77.99-65.67-17.24-136.27-17.24-136.27h2.46c57.46-4.1 123.96 3.28 144.48 4.1 29.55 1.64 51.72-15.6 57.46-41.05 4.1-17.24-16.42-51.72-38.58-55.82-36.94-6.57-71.42-21.34-108.36-27.91-108.36-21.34-215.9-21.34-322.62 10.67-23.81 7.39-107.54 11.49-123.14 5.75 0 0-224.93-7.39-336.58 26.27-119.03 27.09-252.84 82.09-376.8 187.99 20.52 77.17 35.3 155.15 44.33 233.96 55.82-32.84 115.75-57.46 178.96-75.52 51.72-14.78 105.08-27.09 159.26-32.84 22.16-2.46 43.51-4.1 65.67-4.93h5.75c9.85-1.64 18.88-3.28 27.91-4.93 36.12-5.75 70.6-18.88 103.44-34.48 4.93-2.46 9.85-4.93 15.6-6.57 91.94-34.48 182.24-61.57 280.75-64.03 50.08-.82 95.23 27.09 120.68 67.32 27.91 2.46 56.64 6.57 85.38 11.49 91.12 16.42 123.14 95.23 110.82 165.83 14.78 11.49 26.27 24.63 33.66 39.4 95.23 3.28 193.74-8.21 283.22-50.08 0 0-70.6 14.78-140.38 4.1 0 0-152.69-27.91-127.24-50.08 4.1 1.64 9.03 3.28 13.13 4.93 158.44 59.93 305.38 36.94 305.38 36.94s57.46-15.6 64.85-58.29c9.85-41.87-46.79-45.15-46.79-45.15" fill="#71b1e2"/><path d="m772.4 558.09c74.7-115.75 226.57-149.41 333.29-73.88 43.51 31.2 59.93 78.81 73.88 125.6 8.21 27.09 21.34 36.12 48.43 34.48 61.57-4.1 122.32-1.64 175.68 36.12 67.32 46.79 102.62 110 95.23 192.1-9.85 104.26-59.93 184.71-152.69 236.43-105.08 58.29-219.19 87.02-335.76 109.18-35.3 6.57-69.78 13.13-105.08 19.7-27.91 4.93-51.72-1.64-63.21-29.55-63.21-152.69-131.35-304.56-120.68-476.13 3.28-62.39 17.24-121.5 50.9-174.04" fill="#48a1da"/><path d="m1302.72 1124.52-190.45 35.3c-136.27 1.64-227.39-26.27-287.32-59.11-88.66-50.08-41.87-130.53-41.87-130.53l2.46-.82c55.82-13.96 122.32-19.7 142.84-22.99 29.55-4.1 47.61-24.63 48.43-50.9.82-18.06-25.45-47.61-48.43-47.61-37.76 0-73.88-7.39-111.65-7.39-110-.82-215.9 18.88-315.23 69.78-22.16 11.49-103.44 31.2-119.85 28.73 0 0-222.47 33.66-325.91 87.02-72.24 31.2-147.77 75.52-220.01 136.27 27.09 91.12 45.15 184.71 53.36 278.29 25.45-16.42 51.72-32.02 79.63-45.97 48.43-24.63 98.51-45.97 150.23-61.57 21.34-6.57 41.87-12.31 64.03-16.42 63.21-12.31 134.63-16.42 202.77-17.24h66.49c9.03.82 18.06 2.46 27.09 4.1 16.42 4.1 31.2 7.39 41.87 9.85 0 0 4.1.82 10.67 2.46 8.21 2.46 13.13 3.28 13.13 3.28 7.39 2.46 14.78 4.1 22.16 4.93 122.32 26.27 462.18 77.99 687.93-82.91 0 0-67.32 27.09-137.09 29.55 0 0-155.15.82-133.81-25.45 4.93.82 9.03 1.64 13.96 2.46 166.65 29.55 307.02-20.52 307.02-20.52s53.36-26.27 53.36-68.96c0-41.05-55.82-33.66-55.82-33.66" fill="#71b1e2"/></g></svg>