<svg viewBox="0 0 1800 1800" xmlns="http://www.w3.org/2000/svg" xmlns:xlink="http://www.w3.org/1999/xlink"><clipPath id="a"><path d="m1742.87 897.65c0 464.83-376.82 841.66-841.66 841.66s-841.65-376.83-841.65-841.66 376.82-841.65 841.65-841.65 841.66 376.83 841.66 841.66"/></clipPath><path d="m1742.87 897.65c0 464.83-376.82 841.66-841.66 841.66s-841.65-376.83-841.65-841.66 376.82-841.65 841.65-841.65 841.66 376.83 841.66 841.66" fill="#85cac6"/><path d="m279.9 276.35h1242.62v1242.61h-1242.62z" fill="none"/><g clip-path="url(#a)"><path d="m448.08 955.18c20.63 38.65 53.51 30.46 88.1 26.08 64.65-8.19 129.31-16.14 193.68-26.33 12.64-2.01 24.9-2.91 27.69 13.47 2.62 15.4-3.01 26.58-19.99 28.75-49.19 6.28-98.42 12.11-147.58 18.58-54.32 7.14-108.78 13.61-162.8 22.59-40.77 6.78-55.97 35.13-42.14 70.78 7.56 19.49 22.93 25.79 40.91 23.78 54.38-6.13 108.7-13.03 162.77-21.52 17.51-2.74 34.74-5.11 52.45-5.64 28.25-.83 55.86-6.24 83.19-13.53 15.82-4.22 33.66-.72 36.54 15.56 2.9 16.35-10.21 25.82-28.95 28.17-74.68 9.39-149 22.08-223.84 29.81-26.08 2.7-47.24 12.08-69.3 23.67-21.22 11.15-17.27 27.78-11.23 43.83 6.16 16.29 12.71 36.31 36.22 32.3 51.93-8.86 104.72-10.2 156.59-19.89 36.17-6.75 72.95-10.57 109.6-14.3 12.91-1.31 28.5-2.26 30.92 17.29 2.48 20.11-5.27 27.86-26.74 30.54-57.47 7.19-114.64 16.74-172.2 23.7-25.76 3.1-44.61 30.7-40.82 54.96 4.24 27.05 21.67 43.47 44.37 39.04 19.5-3.8 39.33-4.27 58.67-7.9 55.53-10.43 112.89-9.62 167.46-22.36 45.52-10.63 91.89-8.23 137.6-18.49 33.05-7.44 70.27-4.77 105.58-9.32 39.43-5.07 79.19-7.58 118.74-11.85 7.61-.83 29.59-1.68 34.58-2.77 29.62-6.49 59.65-11.83 88.96-18.79 53.96-12.8 106.55-31.49 158.06-52.49 62.52-25.47 119.7-61.32 179.21-92.67 25.05-13.19 45.01-33.63 70.24-46.23 2.67-3.4 4.68-7.76 8.09-10.06 48.91-32.85 93.36-71.03 136.78-110.77 16.03-14.67 185.36-478.07 297.52-810.77 21.56-63.94 41-123.06 56.84-173.24-51.48 29.25-106.66 50.86-162.24 69.53-85.81 28.86-175.55 42.16-265.21 54.11-8.95 19.13-7.73 40.58-13.7 60.38-26.75 88.54-63.81 171.08-127.06 241.03-39.46 43.65-75.49 90.25-123.24 125.68-25.54 18.96-47.02 43.51-77.44 55.69-15.08 10.45-28.81 24.34-45.45 30.73-59.57 22.9-113.36 59.73-179.53 67.44-45.21 5.27-90.13 12.99-134.42 1.7-102.49-26.08-206.89-35.39-311.95-39.85-14.95-.64-32.65 2.07-43.16 13.11-15.81 16.59-23.31 37.37-12.13 60.85 9.29 19.53 25.44 27.07 45.88 28.53 32.12 2.29 62.91 13.3 95.43 14.08 8.04.19 21.22 1.23 22.72 13.89 1.64 13.92-7.67 21.98-19.52 26.49-26.05 9.9-52.32 19.35-80.17 23.09-80.35 10.77-160.82 20.83-241.05 32.41-46.69 6.74-56.95 18.85-63.55 67.13" fill="#50b0a5"/><path d="m973.06 1278.31c28.06 17.24 53.8 37.5 78.41 59.37 19 16.88 47.99 12.33 64.7-9.43 13.49-17.57 7.42-46.26-13.83-59.31-44.48-27.36-82.23-63.39-122.62-95.87-36.48-29.34-75.6-55.27-110.76-86.25-2.74-2.42-6.22-4.24-8.36-7.09-8.14-10.79-18.62-23.51-6.28-35.52 12.3-11.94 22.7-1.31 33.6 7.92 23 19.47 48.19 36.31 71.7 55.22 33.99 27.31 68.6 53.82 102.07 81.87 35.31 29.61 71.81 58.7 111.25 82.22 41.57 24.79 64.72 12.77 71.62-29.79 2.42-14.86-4.54-24.13-15.95-31.4-52.59-33.43-98.3-75.86-148.03-113.03-44.45-33.22-88.26-67.32-131.77-101.76-11.38-9.01-21.05-20.36-30.68-31.35-5.5-6.27-8.82-14.08-2.85-22.36 6.86-9.53 15.86-6.16 24.21-3.27 4.74 1.64 9.35 4.52 13.19 7.81 67.6 57.75 140.07 109.29 209.59 164.59 10.38 8.26 22.29 17.56 38.18 13.16 13.61-3.76 26.64-10.37 29.47-24.18 4.13-20.21-.65-40.24-17.85-53.6-47.61-37-97.63-71.08-143.46-110.13-48.97-41.7-108.18-70.47-148.95-123.13-13.7-17.71-31.37-34.31-48.32-50.26-6.19-5.82-10.74-12.38-14.59-19.41-8.62-15.7-4.37-23.88 13.02-21 38.6 6.39 77.28 13.45 114.93 23.85 20.17 5.57 40.19 9.37 60.62 9.92 22.09.59 37.51-31.68 28.42-55.8-7.73-20.52-23.54-31.9-43.33-36.93-97.05-24.74-189.88-61.01-280.35-103.29-18.12-8.45-78.47-45.38-91-53.91-56.81-38.71-116.95-71.76-177.42-104.25-27.47-14.76-376.64-105.17-489.87-42.09 32.27 58.75-112.81 301.2-80.4 359.85 27.39 49.56-44.28 90.39-19.48 141.2 15.31 31.35 384.9 59.34 414.9 71.95 59.09 24.84 113.19 58.11 161.47 100.98 24.15 21.44 49.8 41.46 75.35 61.19 40.01 30.88 78.2 63.91 118.04 94.95 72 56.06 143.9 112.25 216.27 167.83 6.86 5.27 11.68 12.32 20.17 16.54 25.97 12.96 41.38 10.79 58.22-11.6 9.79-13.05 3.59-39.71-12.4-54.71-37.92-35.59-80.24-65.62-121.7-96.75-9.81-7.36-19.07-15.47-28.78-22.98-12.18-9.4-10.51-22.84-4.04-32.02 5.49-7.81 14.41-10.9 27.84-1.59 49.33 34.13 93.64 74.59 142.47 109.21 5.22 3.71 8.93 9.59 13.36 14.45" fill="#46988c"/><path d="m687.66 747.06c9.29 19.54 25.44 27.07 45.88 28.53 32.12 2.29 62.91 13.3 95.43 14.08 5.89.14 14.5.78 19.29 6.06 9.01-.23 18.62.69 28.95 3.24 95.32 23.62 191.08 19.57 288.36 25.12 81.31 4.62 162.42 15.82 244.03 14.39 150.59-2.65 294.01-52.46 394.02-168.36-5-7.37-10.27-14.5-15.54-21.62-30.76 2.84-62.92-7.87-87.93-38.84-36.26-44.9-76.33-92.81-119.39-139.13-27.39 31.2-55.27 61.83-89.01 86.87-25.55 18.94-47.04 43.51-77.45 55.67-15.06 10.46-28.81 24.35-45.45 30.75-59.57 22.9-113.36 59.71-179.53 67.43-45.21 5.27-90.13 12.99-134.41 1.72-102.51-26.1-206.9-35.41-311.97-39.87-14.95-.62-32.65 2.07-43.16 13.11-15.81 16.59-23.29 37.37-12.13 60.85" fill="#50b0a5"/><path d="m1805.12 1015.06s458.51-609.45 254.52-980.24l-343.6 930.27 89.09 49.97z" fill="#50b0a5"/><path d="m2192.4 3.45c-35.69 20.28-73.17 36.88-111.32 51.39-3.97-8.68-8.27-17.26-12.91-25.7l-13.01 35.21c-8.32 2.95-16.65 5.83-25 8.64-85.81 28.86-175.55 42.16-265.21 54.12-8.95 19.13-7.73 40.58-13.7 60.38-26.75 88.54-63.81 171.08-127.06 241.03-11.3 12.51-22.33 25.25-33.43 37.91-.49-.53-.97-1.06-1.46-1.58-27.39 31.2-55.27 61.83-89.01 86.87-25.55 18.94-47.04 43.51-77.45 55.67-15.06 10.46-28.81 24.35-45.45 30.75-59.57 22.9-113.36 59.71-179.53 67.43-37.93 4.42-75.65 10.56-112.96 5.77.19-5.68-.62-11.4-2.62-16.73-7.73-20.52-23.54-31.9-43.33-36.93-97.05-24.74-189.88-61.01-280.35-103.29-18.12-8.45-78.47-45.38-91-53.91-56.81-38.71-116.95-71.76-177.42-104.25-27.47-14.76-376.64-105.17-489.87-42.09 32.27 58.75-149.35 345.84-116.93 404.49 27.39 49.56 22.67 57.52 47.47 108.33 15.31 31.35 348.56 49.47 378.56 62.08 58.35 24.53 117.76 55.39 165.59 97.5-13.1 1.92-26.19 3.94-39.26 6.11-40.77 6.78-55.97 35.13-42.14 70.78 7.56 19.49 22.93 25.79 40.91 23.78 47.55-5.36 95.05-11.31 142.38-18.39 15.54 12.46 30.93 25.11 46.35 37.72-35.47 5.03-70.96 9.84-106.56 13.52-26.08 2.7-47.24 12.08-69.3 23.67-21.22 11.15-17.27 27.78-11.23 43.83 6.16 16.29 12.71 36.31 36.22 32.3 51.93-8.86 104.72-10.2 156.59-19.89 31.75-5.93 63.97-9.59 96.16-12.92 14.27 11.11 28.54 22.22 42.82 33.33-3.46 7.67-11.55 11.43-25.2 13.13-57.47 7.19-114.64 16.74-172.2 23.7-25.76 3.1-44.61 30.7-40.82 54.96 4.24 27.05 21.67 43.47 44.37 39.04 19.5-3.8 39.33-4.27 58.67-7.9 55.53-10.43 112.89-9.62 167.46-22.36 27.73-6.48 55.78-8.12 83.79-10.73l2.46 1.89c6.86 5.27 11.68 12.32 20.17 16.54 25.97 12.96 41.38 10.79 58.22-11.6 3.67-4.9 5.09-11.71 4.59-19.1 24.22-1.97 49.54-1.67 73.95-4.82 5.24-.67 10.48-1.3 15.73-1.89.3.26.6.52.89.78 18.24 16.21 45.68 12.65 62.63-6.91 13.17-1.19 26.34-2.41 39.49-3.83 7.61-.83 29.59-1.68 34.58-2.77 29.62-6.49 59.65-11.83 88.96-18.79 53.96-12.8 106.55-31.49 158.06-52.49 62.52-25.47 119.7-61.32 179.21-92.67 25.05-13.19 45.01-33.63 70.24-46.23 2.67-3.4 4.68-7.76 8.09-10.06 48.91-32.85 93.36-71.03 136.78-110.77 2.63-2.41 9.4-16.93 19.37-40.98 87.62-132.11 275.2-448.98 262.42-723.38 5.35-15.71 10.6-31.2 15.73-46.41 21.56-63.94 41-123.06 56.84-173.24z" fill="none" stroke="#fff" stroke-linecap="round" stroke-linejoin="round" stroke-width="33.44"/></g></svg>