<?xml version="1.0" encoding="utf-8"?>
<!-- Generator: Adobe Illustrator 28.3.0, SVG Export Plug-In . SVG Version: 6.00 Build 0)  -->
<svg version="1.1" id="Capa_1" xmlns="http://www.w3.org/2000/svg" xmlns:xlink="http://www.w3.org/1999/xlink" x="0px" y="0px"
	 viewBox="0 0 1118.3 393.7" style="enable-background:new 0 0 1118.3 393.7;" xml:space="preserve">
<style type="text/css">
	.st0{fill:#003B7A;}
</style>
<g>
	<path class="st0" d="M191.05,260.93c4.04-2.91,7.98-6.05,11.25-9.74c4.34-4.9,8.85-9.66,12.6-15.09
		c7.01-10.15,9.22-21.24,8.34-33.41c-0.91-12.53-6.71-22.04-16.64-29.12c-4.69-3.34-10.06-5.49-15.81-6.89
		c-6.18-1.51-12.38-1.79-18.62-1.68c-8.14,0.14-16.18,1.39-24.04,3.47c-8.32,2.2-16.47,5.12-24.22,8.81
		c-8.63,4.11-17.01,8.75-24.81,14.43c-7.21,5.26-13.97,10.95-19.9,17.57c-5.64,6.29-11.29,12.61-15.01,20.35
		c-0.34,0.71-1.34,1.56-2.02,1.56c-1.04-0.01-0.68-1.24-0.71-1.96c-0.11-3.28-1.09-6.43-1.66-9.62c-2.26-12.72-1.38-25.5-1.03-38.24
		c0.18-6.49,1.52-13.06,3.05-19.35c1.44-5.94,3.27-11.9,5.18-17.78c2.18-6.73,5.08-13.11,8-19.46c2.72-5.92,6.61-11.3,9.9-16.96
		c3.54-6.09,8.07-11.49,12.57-16.79c5.24-6.18,11-11.97,17.32-17.16c6.33-5.19,12.7-10.31,19.71-14.56
		c4.91-2.97,9.99-5.63,15.05-8.34c3.83-2.05,7.84-3.74,11.83-5.18c3.46-1.26,6.7-3.33,10.48-3.72c1.15-0.02,2.52,0.56,3.07-1.11
		c0.77-0.05,1.53-0.11,2.3-0.16c1.35,0.09,2.85,0.51,3.25-1.49c0.94-0.06,1.88-0.12,2.82-0.18c1.67,0.52,3.15,0.38,4.2-1.23
		c0.58-0.03,1.16-0.07,1.74-0.1c2.16-0.16,4.66,1.09,6.23-1.51c0.95-0.03,1.9-0.07,2.85-0.1c3.59,0.46,7.14-0.22,10.71-0.44
		c0.24-0.01,0.46-0.57,0.68-0.88c7.41,0,14.82,0.01,22.23,0.01c3.6,2.12,7.55,1.27,11.39,1.3c0.95,0.04,1.89,0.08,2.84,0.11
		c1.16,2.31,3.22,1.47,5.05,1.45c0.97,0.05,1.94,0.1,2.92,0.15c0.94,1.99,2.74,1.03,4.2,1.22c4.66,0.77,9.08,2.39,13.55,3.84
		c3.44,1.11,7,1.93,10.19,3.73c0.48,0.27,1.37,0.2,1.21,1.01c-0.1,0.51-0.55,1.15-1.02,1.37c-7.28,3.41-13.51,8.38-19.64,13.42
		c-6.64,5.46-12.34,11.85-17.47,18.78c-5.53,7.46-9.82,15.62-12.76,24.3c-1.51,4.45-3.08,9-3.85,13.84
		c-0.76,4.84-1.48,9.82-2.1,14.63c-0.94,7.29-1.45,14.89,0.52,22.26c0.28,1.05,0.6,2.18,0.51,3.24c-0.39,4.92,1.32,9.6,1.75,14.43
		c0.27,3.06,0.87,6.39,2.3,9.41c1.03,2.18,0.78,4.77,1.49,7.19c1.28,4.4,2.07,9.04,3.45,13.38c1.9,5.97,3.52,12.04,5.12,18.06
		c1.21,4.54,2.45,9.11,3.67,13.65c0.84,3.12,0.96,6.44,2.4,9.41c0.21,0.44,0.35,0.95,0.37,1.43c0.41,8.81,2.33,17.63,1.04,26.43
		c-0.95,6.48-1.24,13.02-3.48,19.42c-2.03,5.82-3.75,11.77-6.69,17.16c-2.27,4.17-4.95,8.2-8.11,11.85
		c-6.03,6.96-12.64,13.2-20.75,17.73c-4.88,2.73-9.95,4.97-15.15,7.02c-8.09,3.19-16.56,4.25-25.09,4.71
		c-2.59,0.14-5.36-1.11-7.88-2.13c-8.54-3.46-16.91-7.39-24.76-12.11c-5.57-3.35-10.99-7.12-16.14-11.24
		c-6.31-5.04-12.36-10.36-17.89-16.21c-6.13-6.49-12-13.2-16.71-20.88c-2.03-3.3-4.54-6.3-6.33-9.8c-2.31-4.52-2.98-9.04-1.49-14
		c0.68-2.24,0.65-4.73,0.71-7.12c0.13-5.79,1.42-11.45,3.02-16.88c1.92-6.5,4.51-12.86,7.78-18.9c4.87-9.01,10.68-17.3,18.03-24.48
		c8.47-8.28,17.88-15.11,29.19-19.03c5.83-2.02,11.87-3.47,18.01-3.24c14.13,0.54,26.82,5.24,36.38,15.89
		c4.4,4.91,7.49,10.96,9.42,17.58c2.02,6.92,1.65,13.84,1.15,20.72c-0.33,4.51-2.55,8.81-4.74,12.88c-2.45,4.55-4.98,9.05-8.2,13.13
		c-1.7,0.28-2.7,1.26-2.95,2.97l-0.04,0.04c-2.15,0.91-3.49,2.55-4.3,4.69c0,0,0.02-0.03,0.02-0.02c-0.64,0.18-1.04,0.59-1.22,1.22
		l0.02-0.02c-0.96,0.15-1.66,0.58-1.57,1.69c0.09,1.08,0.92,1.72,1.7,2.17c0.74,0.43,0.89-0.4,1.04-0.95
		c0.42-0.07,0.83-0.15,1.25-0.22c2.55-0.74,4.83-1.86,6.08-4.4l-0.02,0.02C190.24,262.23,190.95,261.99,191.05,260.93z"/>
	<path class="st0" d="M926.93,193.12c2.15-4.27,4.29-8.54,6.47-12.8c3.28-6.43,6.56-12.86,9.87-19.27c1.94-3.75,3.95-7.45,5.9-11.19
		c4.02-7.73,7.57-15.69,11.54-23.43c3.94-7.7,7.39-15.63,11.55-23.23c3.43-6.28,5.86-13.11,8.87-19.62
		c3.73-8.07,7.84-15.97,11.36-24.13c2.17-5.04,4.61-9.96,6.63-15.07c0.88-2.24,2.61-2.64,4.61-1.99c6.84,2.2,13.67,2.13,20.5,0.04
		c2.93-0.9,3.87-0.22,4.17,2.81c0.95,9.84,1.68,19.73,3.24,29.48c0.58,3.65,0.26,7.41,1.23,10.85c1.52,5.39,0.15,11.15,2.55,16.33
		c0.12,0.25,0.09,0.59,0.07,0.89c-0.41,6.79,0.82,13.51,1.73,20.14c0.78,5.74,0.58,11.67,2.42,17.27c0.06,0.19,0.09,0.4,0.07,0.59
		c-0.58,6.83,1.47,13.41,2.1,20.13c0.83,8.86,1.53,17.78,3.03,26.55c0.64,3.75,0.27,7.6,1.25,11.13c1.34,4.81,0.32,9.95,2.5,14.56
		c0.2,0.43,0.18,0.98,0.18,1.48c0.08,9.27,2.42,18.27,3.28,27.46c0.56,6.05,2.21,12.02,2.84,18.12c0.25,2.42-0.09,3.67-3.2,3.15
		c-12.67-2.13-25.48-0.71-38.23-1.07c-2.68-0.08-5.2,1.05-7.92,1.15c-2.65,0.11-3.43-0.86-3.51-3.13c-0.16-4.69-0.09-9.4-0.56-14.05
		c-0.73-7.35-0.53-14.79-1.48-22.05c-0.76-5.76,0.08-11.65-1.28-17.14c-1.6-6.43-0.28-13.11-2.46-19.38
		c-0.09-0.27-0.07-0.6-0.05-0.89c0.55-8.81-1.54-17.41-2.18-26.13c-0.74-10.15-1.26-20.38-2.94-30.41
		c-0.78-4.64-0.59-9.27-1.3-14.14c-2.2,1.49-2.77,3.81-3.74,5.77c-2.89,5.85-6,11.61-8.56,17.58c-2.51,5.84-5.64,11.35-8.09,17.21
		c-2.22,5.3-5.07,10.33-7.59,15.5c-2.87,5.88-5.65,11.81-8.52,17.69c-4.2,8.62-8.51,17.2-12.65,25.85
		c-2.31,4.84-4.07,9.95-6.61,14.66c-2.87,5.34-5.18,10.94-8.01,16.29c-1.92,3.62-3.38,7.49-5.04,11.24
		c-0.96,0.15-1.23,0.83-1.3,1.67c-0.13,0.46-0.25,0.91-0.38,1.37c-1.23,0.22-2.04,1.34-3.51,1.27c-3.64-0.19-7.3-0.09-10.95-0.11
		c-1.63-3.46-3.26-6.91-4.89-10.37c-2.82-6-5.58-12.02-8.47-17.98c-2.9-5.98-6.14-11.81-8.83-17.88
		c-2.64-5.96-5.62-11.73-8.39-17.62c-2.57-5.44-5.15-10.87-7.77-16.28c-2.76-5.72-5.59-11.42-8.36-17.14
		c-2.62-5.41-5.17-10.86-7.81-16.25c-2.8-5.72-5.68-11.4-8.51-17.11c-1.48-2.98-2.95-5.96-4.35-8.98c-0.38-0.81-0.75-1.39-1.73-1.3
		c-1.09,0.1-1.23,0.92-1.24,1.73c-0.09,4.77-1.32,9.4-1.81,14.13c-0.73,7.08-0.73,14.26-2.54,21.21c-0.15,0.57-0.2,1.19-0.2,1.78
		c-0.01,9.34-1.16,18.62-2.18,27.86c-0.75,6.77-0.19,13.6-1.27,20.24c-1.16,7.15,0.02,14.39-1.26,21.37
		c-1.24,6.82-0.76,13.68-1.73,20.41c-0.57,3.95-0.83,7.85-0.91,11.79c-0.03,1.72-0.79,2.01-2.27,1.6
		c-6.68-1.84-13.52-0.68-20.27-1.08c-2.19-0.13-4.07,0.88-6.14,1.17c-1.49,0.21-2.19-0.08-1.94-1.57c0.63-3.76,1.34-7.51,2.05-11.26
		c0.18-0.97,0.57-1.92,0.66-2.9c0.62-6.59,2.1-13.05,3.1-19.57c0.91-5.93,1.72-11.92,2.97-17.78c1.95-9.09,3.01-18.29,4.54-27.43
		c1.02-6.12,2.02-12.23,2.91-18.37c1.21-8.29,3.04-16.5,3.84-24.82c0.46-4.83,1.21-9.64,1.91-14.4c0.73-4.95,0.81-10.06,2.4-14.88
		c0.12-0.37,0.21-0.79,0.18-1.18c-0.46-6.22,1.78-12.13,2.11-18.31c0.43-7.95,2-15.85,3.05-23.77c0.47-3.53,0.38-7.12,1.1-10.56
		c0.9-4.28,1.31-8.58,1.79-12.9c0.31-2.79,3.05-1.67,4.35-1.23c6.19,2.07,12.21,1.87,18.4,0.02c1.76-0.53,3.74-1.32,5.02,2.06
		c2.61,6.89,6.29,13.38,9.41,20.08c2.63,5.64,4.92,11.45,7.69,17.01c5.69,11.42,11.02,23.01,16.4,34.57
		c4.44,9.54,9.75,18.67,14.06,28.26c4.67,10.39,10.09,20.39,15.14,30.59c2.73,5.52,5.79,10.88,8.66,16.34
		c0.27,0.5,0.24,1.16,0.35,1.75c-0.07,0.96,0.09,1.74,1.3,1.79C926.69,195,927.05,194.28,926.93,193.12z"/>
	<path class="st0" d="M188,355.65c3.77,0.02,6.77-2.91,10.58-2.44c1.83,0.22,3.37-1.02,5.07-1.5c10.3-2.91,20.25-6.72,30-11.21
		c13.4-6.17,25.47-14.2,36.7-23.66c10.01-8.44,17.9-18.6,24.24-29.94c3.73-6.66,6.18-13.89,8.18-21.28
		c3.97-14.65,3.63-29.55,2.18-44.38c-0.51-5.22-1.75-10.53-3.5-15.72c-1.63-4.8-2.74-9.84-4.62-14.61
		c-1.76-4.47-3.66-8.89-5.41-13.37c-2.54-6.53-5.51-12.88-8-19.44c-2.46-6.49-5.97-12.61-8.15-19.18
		c-1.31-3.95-3.38-7.75-3.72-12.02c-0.22-2.78-1.38-5.33-1.93-8.05c-1.24-6.13-2.14-12.23-2.4-18.5
		c-0.56-13.32,4.19-24.62,12.16-34.91c3.78-4.88,8.39-8.82,13.37-12.39c1.01-0.72,2.07-0.89,3.1-0.33c3.59,1.94,7.33,3.67,10.64,6
		c5.95,4.17,12.02,8.18,17.64,12.83c6.3,5.22,12.15,10.88,17.66,16.89c6.52,7.1,12.16,14.88,17.49,22.89
		c3.37,5.05,2.9,8.72-0.99,13.64c-3.87,4.89-7.63,9.83-13.13,13.04c-4.12,2.41-8.15,4.84-13.09,5.61c-2.83,0.44-5.62,0.92-8.48,0.97
		c-0.74,0.01-1.84,0.02-1.87,1.05c-0.02,0.96,1.05,0.6,1.65,0.82c4.13,1.5,8.5,1.66,12.68,1.05c5.71-0.84,11.44-1.45,17.03-3.51
		c5.98-2.21,11.36-5.22,16.57-8.68c0.95-0.63,1.22-0.56,1.72,0.44c1.93,3.89,3.11,8.05,4.47,12.14c1.46,4.38,2.61,8.86,3.88,13.3
		c0.89,3.13,1.31,6.41,1.84,9.55c2.5,14.59,2.32,29.43,1.2,44.11c-0.65,8.53-2.65,17.07-5.18,25.42
		c-1.57,5.17-2.89,10.49-4.88,15.46c-2.66,6.62-5.66,13.14-9.05,19.48c-4.94,9.24-10.86,17.87-17.56,25.77
		c-7.21,8.5-14.93,16.7-24.18,23.26c-3.47,2.46-6.72,5.29-10.24,7.71c-7.17,4.93-14.82,8.96-22.74,12.59
		c-3.79,1.74-7.55,3.64-11.49,4.93c-4.17,1.37-8.16,3.35-12.62,3.93c-2.02,0.26-3.98,1.11-5.97,1.67
		c-5.06,1.44-10.32,1.65-15.38,2.71c-11.54,2.43-23.1,1.25-34.64,1.34C201.79,359.16,194.94,357.32,188,355.65z"/>
	<path class="st0" d="M430.58,125.38c0-23.75,0.02-46.33-0.02-68.91c-0.01-3.69-0.1-7.4-0.47-11.07c-0.28-2.79,0.76-3.6,3.34-3.24
		c8.16,1.17,16.37,1.83,24.62,1.69c4.8-0.08,9.64,0.01,14.37-0.64c2.72-0.37,5.39-1.04,8.18-1.07c1.67-0.02,2.67,0.63,2.22,2.25
		c-2.21,7.82-0.13,16.03-2.22,23.87c-0.38,1.41-0.11,2.98-0.18,4.48c-1.43,28.01-1.89,56.03-1.89,84.08
		c0,11.2,0.88,22.32,2.11,33.39c0.66,5.86,1.75,11.76,3.7,17.53c2.34,6.93,4.78,13.64,9.04,19.66c4.43,6.25,10.25,10.85,17.07,13.96
		c3.79,1.73,8.13,2.59,12.31,3.1c8.67,1.06,17.39,2.38,26.15,1.42c14.97-1.64,26.49-8.82,34.11-21.97
		c3.35-5.78,5.74-11.89,7.67-18.29c2.39-7.92,3.41-16,4.66-24.12c1.53-9.94,0.02-19.94,1.29-29.76c1.83-14.13,1.42-28.3,0.64-42.33
		c-0.88-16.03-0.14-32.05-1.26-48.01c-0.36-5.12-0.66-10.26-0.98-15.39c-0.24-3.8,1.03-4.89,4.64-3.62
		c5.12,1.8,10.38,1.36,15.64,1.34c3.6-0.01,7.03-1.02,10.55-1.54c1.52-0.22,2.11-0.08,1.8,2.15c-0.72,5.32-0.26,10.8-0.94,16.12
		c-1.55,12.1-0.23,24.3-1.33,36.35c-2.1,23.18-1.18,46.4-1.6,69.59c-0.14,7.34-0.92,14.65-1.45,21.96
		c-0.51,7.2-2.1,14.45-4.25,21.36c-2.05,6.57-4.69,12.97-8.02,19.17c-4.7,8.74-11.09,15.7-18.76,21.57
		c-4.84,3.71-10.32,6.49-16.03,8.87c-5.36,2.24-10.94,3.68-16.42,5.46c-2.51,0.81-5.29,1.06-7.91,1.32
		c-10.47,1.04-20.98,2.92-31.51,1.69c-4.71-0.55-9.45-0.9-14.15-1.56c-5-0.7-10.09-1.23-14.9-2.65c-5.04-1.48-10.06-3.16-14.98-5.17
		c-9.74-3.97-17.93-10.05-25.16-17.4c-3.36-3.42-6.17-7.42-8.65-11.72c-2.37-4.11-4.4-8.27-6-12.67c-1.81-4.96-3.32-9.96-3.88-15.3
		C429.03,175.65,431.58,149.91,430.58,125.38z"/>
	<path class="st0" d="M784.18,183c0.04,0.98,0.07,1.96,0.11,2.93c0,6.44-0.01,12.88-0.01,19.32c-0.03,0.98-0.06,1.96-0.09,2.94
		c-1.95,1-0.98,2.77-1.12,4.25c-0.88,6.43-3.62,12.19-6.62,17.81c-4.31,8.07-10.39,14.76-17.65,20.2
		c-6.02,4.51-12.73,7.89-19.84,10.63c-6.01,2.31-12.17,3.69-18.4,5c-2.23,0.47-4.61,0.22-6.85,0.66
		c-5.88,1.15-11.81,1.68-17.75,1.18c-6.59-0.55-13.16-1.25-19.7-2.41c-2.91-0.52-5.89-0.78-8.69-1.71
		c-6.1-2.03-12.33-3.83-17.72-7.54c-2.16-1.48-2.14-3.1-1.26-5.58c1.57-4.44,2.49-9.12,3.51-13.74c0.55-2.5,1.56-4.84,1.91-7.44
		c0.65-4.75,1.9-9.42,2.75-14.15c0.35-1.96,1.7-1.73,2.93-1.65c1.52,0.1,3.56-0.84,4.07,1.78c0.85,4.36,2.57,8.48,4.81,12.2
		c2.15,3.56,4.57,7.1,7.93,9.77c4.56,3.61,9.5,6.57,15.01,8.44c6.51,2.22,13.27,2.01,20.05,1.99c6.3-0.02,12.14-1.49,17.65-4.33
		c5.57-2.87,9.33-7.52,12.32-12.9c3.8-6.84,3.84-14.31,2.86-21.62c-0.83-6.21-4.45-11.25-9.03-15.74
		c-6.28-6.14-13.67-10.49-21.35-14.4c-8.47-4.3-17.29-7.92-25.67-12.37c-8.18-4.34-15.93-9.66-22.31-16.32
		c-4.44-4.64-8.31-9.94-11.24-16c-7.08-14.68-6.87-29.83-3.7-45.05c2.26-10.87,7.53-20.48,15.36-28.68
		c5.84-6.11,12.33-11.32,19.88-14.87c4.8-2.26,10.02-3.75,15.29-5.07c9.51-2.38,19.05-3.14,28.68-2.35
		c4.66,0.38,9.47,0.54,13.99,2.28c2.29,0.89,4.8,0.71,7.23,1.45c6.35,1.95,12.22,4.8,17.86,8.18c0.66,0.4,1.32,0.81,2.01,1.2
		c3.02,1.68,3.62,3.52,2.15,6.63c-2.45,5.17-3.67,10.75-5.43,16.16c-1.12,3.44-2.12,6.93-3.12,10.41c-0.5,1.74-1.89,1.46-3.16,1.53
		c-2.09,0.13-3.27-1-3.97-2.83c-2.35-6.17-5.95-11.54-10.94-15.83c-5.08-4.37-11.05-6.84-17.73-8.09
		c-4.07-0.77-8.07-1.22-12.09-0.84c-9.99,0.94-18.49,5.06-24.67,13.13c-4.69,6.13-6.01,13.31-4.82,20.77
		c1,6.23,4.21,11.33,8.83,15.87c6.17,6.07,13.45,10.4,20.86,14.44c8.15,4.44,16.87,7.84,25.14,12.08
		c5.21,2.67,10.22,5.83,15.04,9.17c5.06,3.51,9.56,7.69,13.63,12.39c4.99,5.77,8.57,12.32,11.58,19.24
		c0.42,0.96,0.26,2.16,0.36,3.26C783.22,180.23,782.19,182.02,784.18,183z"/>
	<path class="st0" d="M431.72,326.38c0-4.49,0.1-8.98-0.04-13.47c-0.08-2.64,1.62-2.18,3.18-2.22s2.95-0.17,2.92,2.19
		c-0.11,7.28-0.04,14.57-0.03,21.85c0,1.78,0.01,3.46,0.98,5.17c1.23,2.15,4.58,4.58,6.73,4.26c4.86-0.71,6.93-2.68,6.95-6.82
		c0.05-7.88,0.16-15.77-0.04-23.65c-0.08-3.12,1.61-3.02,3.75-3.02c2.13,0,3.82-0.13,3.72,3c-0.22,7.48,0.04,14.97-0.1,22.45
		c-0.21,11.71-11.98,17.16-21.19,12.52c-3.95-1.99-7.27-5.46-6.89-10.89C431.94,333.98,431.73,330.18,431.72,326.38z"/>
	<path class="st0" d="M987.19,350.21c-1.16-1.04-0.65-3.55-2.2-3.67c-1.05-0.08-2.18,1.72-3.39,2.52c-1.38,0.91-2.83,1.79-4.36,2.39
		c-2.18,0.85-4.62,0.85-5.82-1.36c-1.18-2.17-1.19-4.82,0.39-6.98c1.95-2.66,3.65-5.55,6.74-7.24c1.44-0.79,2.6-2.08,3.19-3.85
		c-1.66-0.36-3.16-1.23-4.89-0.78c0-0.65-0.01-1.3-0.01-1.95c0.01-0.18,0.04-0.37,0.07-0.55c1.6-0.62,2.68-2.56,4.79-1.91
		c3.61,0.12,7.23,0.5,10.94-0.56c-0.62,0.72-1.18,1.5-1.87,2.16c-4.92,4.75-8.86,10.19-11.74,16.39c-0.35,0.76-0.79,1.54-0.08,2.17
		c0.74,0.65,1.7,0.52,2.52,0.02c1.97-1.19,3.65-2.76,5.1-4.51c3.46-4.16,6.74-8.46,10.22-12.59c1-1.19-0.39-1.75-0.31-2.55
		c4.62-1.42,6.39-5.35,8.04-9.15c0.66-1.51,1.32-2.01,2.77-1.99c1.2,0.02,2.4-0.1,3.6-0.05c0.81,0.03,1.56-1.51,2.31-0.26
		c0.57,0.95,0.53,2.23-0.07,3.18c-1.25,1.98-2.68,3.85-4.01,5.77c-0.33,0.47-0.59,0.98-0.85,1.41c0.52,1.05,1.87,0.21,2.29,1.23
		c-0.06,0.18-0.12,0.52-0.18,0.52c-3.9,0.07-5.53,2.88-7.58,5.64c-2.73,3.68-5.69,7.22-8.29,11.01c-0.75,1.09-1.78,2.21-1.44,3.77
		c0.06,1.41-0.68,1.94-2.02,1.87C989.76,350.26,988.48,350.25,987.19,350.21z"/>
	<path class="st0" d="M802.02,348.95c-2.97,0.07-5.64,2.3-8.77,1.18c-0.02-0.86-0.24-1.56-1.26-1.66c-0.03-0.77-0.06-1.53-0.09-2.3
		c-0.42-1.85,1.17-3.17,1.27-4.89c2.37-3.27,4.67-6.58,6.61-10.14c1.64-3.02,0.99-4.25-2.41-4.34c0-0.37,0-0.73,0-1.1
		c2.15-0.98,4.3,1.5,5.99,0.49c2.17-1.29,4.24-0.58,6.33-0.83c0.76-0.09,1.81-0.21,2.13,0.65c0.31,0.82-0.68,1.36-1.12,1.95
		c-3.87,5.17-7.96,10.18-10.93,15.97c-0.53,1.04-1.2,2.09-0.38,2.96c0.85,0.9,1.53-0.48,2.26-0.8c3.39-1.51,5.05-4.88,7.38-7.47
		c3.6-3.98,7.1-8.1,9.65-12.94c1.32-2.5,6.72-2.1,8.13,0.43c0.81,1.45,1.91,1,2.76,0.49c1.04-0.62,1.91-1.42,3.23-0.99
		c0.35,1.43,3.58,2.9-0.06,4.27c-0.29-3.5-2.64-1.87-3.73-1.1c-2.29,1.62-4.35,3.62-6.27,5.68c-4.02,4.3-7.47,9.05-10.65,14.01
		c-1.35,2.1-6.96,2.44-9.78,0.76c0.28-0.22,0.65-0.38,0.8-0.66c0.14-0.26-0.16-0.63-0.46-0.47
		C802.37,348.26,802.22,348.66,802.02,348.95z"/>
	<path class="st0" d="M693,349.03c-0.38-0.08-0.76-0.15-1.14-0.23c-0.09-0.84-0.38-1.48-1.37-1.49c-1.82-1.53-2.91-3.46-2.94-5.86
		c-0.06-3.79-0.12-7.58-0.01-11.36c0.19-7.11,8.16-10.58,13.08-8.28c2.43,1.14,3.16,0.56,3.24-2.17c0.03-1.2,0.01-2.39,0.01-3.59
		c0-5.68,0-5.68,5.79-5.19c0.01,11.52,0.04,23.04,0.02,34.55c0,1.22,0.49,2.81-1.06,3.42c-1.31,0.51-2.58,0.29-3.79-0.87
		c-1.23-1.18-2.57-1.07-2.96,1.01l-0.05,0.03C698.87,349.01,695.94,349.02,693,349.03z M703.77,335.93c-0.01,0-0.03,0-0.04,0
		c0-1.5,0.18-3.02-0.04-4.48c-0.31-1.99-1.25-3.94-3.32-4.4c-2.22-0.49-4.42-0.41-5.85,2.22c-2.06,3.82-1.9,7.71-0.69,11.53
		c0.98,3.07,3.32,4.19,6.33,3.51c2.77-0.62,3.7-2.72,3.62-5.38C703.74,337.93,703.77,336.93,703.77,335.93z"/>
	<path class="st0" d="M633.02,347.87c-2.71-1.21-3.35-3.86-3.71-6.26c-0.87-5.83-1.79-11.82,2.32-16.98
		c2.63-3.3,6.95-4.37,10.91-2.88c2.94,1.1,3.48,0.73,3.52-2.44c0.02-1.39,0-2.79,0-4.18c0-4.64,0-4.64,4.81-4.3
		c0,11.29,0.01,22.58,0.01,33.87c0,4.43-0.01,4.43-4.58,4.3l-0.12-0.13c-0.15-1.52-1.18-2.05-2.25-1.22
		c-2.5,1.93-5.32,1.29-8.06,1.46c-0.58-0.1-1.16-0.19-1.75-0.29C633.97,348.25,633.59,347.95,633.02,347.87z M646.09,334.78
		c0.04-1.09-0.2-2.84-0.98-4.67c-0.91-2.13-2.12-3.1-4.35-3.23c-2.39-0.14-3.96,0.85-4.88,2.99c-1.55,3.61-1.59,7.14-0.25,10.92
		c0.87,2.47,2.15,3.6,4.66,3.6c2.42,0,3.9-0.89,4.87-3.35C645.88,339.19,646.08,337.45,646.09,334.78z"/>
	<path class="st0" d="M550.68,337.19c-2,0-4-0.03-6,0.01c-2.43,0.05-3.3,1.51-2.24,3.69c1.7,3.48,6.44,4.63,9.92,2.57
		c1.22-0.72,2.37-2.33,4.21-0.8c2.32,1.93,2.39,3.74-0.43,5.4c-4.52,2.66-11.23,3.52-16.31-0.6c-2.05-1.66-3.13-3.81-3.4-5.95
		c-0.58-4.56-1.03-9.17,0.88-13.75c2.45-5.89,10.15-8.68,16.17-4.92c4.38,2.74,6.32,6.84,6.07,12.04c-0.08,1.65-0.6,2.37-2.28,2.32
		c-2.2-0.06-4.4-0.02-6.6-0.02C550.68,337.18,550.68,337.19,550.68,337.19z M547.91,332.92v-0.01c1.29,0,2.58-0.01,3.87,0
		c1.7,0.01,2.29-1.09,1.55-2.31c-1.26-2.09-2.74-3.88-5.78-3.84c-2.91,0.03-4.29,1.8-5.55,3.74c-0.67,1.03-0.4,2.41,1.43,2.42
		C544.92,332.92,546.42,332.92,547.91,332.92z"/>
	<path class="st0" d="M679.88,326.86c0.04,0.37,0.08,0.74,0.13,1.1c-0.08,5.78-0.17,11.56-0.22,17.34c-0.04,4.21-0.42,4.5-4.43,3.03
		c-0.64-0.23-0.91,0.01-1.06,0.58c-2.43-0.22-4.39,1.54-6.92,1.37c-6.97-0.47-10.53-4.61-9.18-11.75c0.41-2.18,4.65-5.28,7.47-5.49
		c1.79-0.14,3.6-0.04,5.39-0.16c1.27-0.08,2.96,0.57,3.23-1.63c0.29-2.28-1.1-3.83-2.87-4.16c-2.31-0.44-4.91-0.94-7.05,1.07
		c-2.33,2.2-3.35-0.66-4.5-1.6c-1.23-1.01-0.2-2.06,1.03-2.97c5.27-3.89,14.31-3.22,17.66,1.46
		C678.52,326.02,678.75,326.77,679.88,326.86z M670.98,337.21c-1.53,0-2.54-0.27-3.29,0.05c-1.83,0.8-4.2,1.38-3.97,4.08
		c0.16,1.88,1.48,2.91,3.37,3.05c0.99,0.08,1.99,0.06,2.98,0.03c3.24-0.12,4.2-1.37,4.31-4.65
		C674.5,336.38,672.18,337.28,670.98,337.21z"/>
	<path class="st0" d="M598.94,350.27c-4.33-0.02-7.73-0.62-10.66-2.91c-1.05-0.82-2.24-1.54-0.96-3c1.15-1.31,2.31-3.19,4.37-1.88
		c2.77,1.75,5.67,2.29,8.82,1.85c1.89-0.26,3.04-1.24,3.09-3.31c0.05-2.17-1.37-2.19-2.97-2.41c-3.02-0.42-6.04-0.96-9.01-1.67
		c-2.56-0.61-5.53-6.4-3.72-9.56c3.21-5.61,9.01-7.64,15.42-5.47c1.19,0.4,2.83-0.05,3.51,1.31c0.41,0.83,3.01,0.27,1.46,2.25
		c-1.22,1.56-2.23,4.09-4.75,2.57c-1.89-1.14-3.73-1.05-5.7-1.21c-2.09-0.16-3.39,0.67-3.43,2.71c-0.05,2.17,1.52,3.02,3.5,3.28
		c2.61,0.35,5.19-0.07,7.87,1.05c4.11,1.71,3.63,4.83,3.85,8.1c0.24,3.44-1.7,5.5-4.27,6.78
		C603.23,349.82,600.82,350.92,598.94,350.27z"/>
	<path class="st0" d="M944.42,306.5c2.29-1.72,4.78-2.96,7.7-3.14c0.7,0.2,1.29,0.5,1.32,1.35c-6.7,4.87-11.95,10.97-16.42,17.96
		c-3.24,5.06-5.74,10.48-8.79,15.61c-1.57,0.78-2.03,1.95-1.26,3.56c0,0.42,0.01,0.85,0.01,1.27c-0.67,1.89,1.08,2.2,2.05,2.71
		c0.79,0.41,0.93-0.63,1.02-1.28c0.4-0.07,0.8-0.15,1.2-0.22c-0.01,0.57-0.02,1.15-0.02,1.72c-0.98,2.83-3.63,3.33-5.97,4.28
		c-2.4-0.03-4.8-0.06-7.2-0.09c-2.72-4.82-0.97-9.29,1.34-13.55c1.71-3.16,3.88-6.07,5.79-9.13c0.39-0.62,0.92-1.39,0.1-2.14
		l-0.05,0.01c0.43-0.07,0.86-0.14,1.3-0.22c0.38-0.09,0.91-0.06,1.12-0.3c3.27-3.71,6.5-7.46,9.74-11.2
		C941.17,312.71,941.22,308.08,944.42,306.5z"/>
	<path class="st0" d="M762.58,320.9c-1.47-7.81-0.12-14.58,6.88-19.44c1.08-0.75,2.09-0.99,3.28-0.97c0,0.42,0.01,0.83,0.01,1.25
		c-3.34,3.16-4,7.19-2.99,11.32c0.77,3.19,2.2,6.26,3.65,9.23c5.45,11.19-0.61,21.45-9.62,25.03c-1.09-0.26-2.64,0.6-3.07-1.26
		c0.25-0.67,0.71-1.14,1.2-1.66c3.73-3.99,4.48-8.79,2.82-13.76c-0.61-1.85-0.97-3.58-1.03-5.46
		C763.46,323.72,764.63,321.88,762.58,320.9z"/>
	<path class="st0" d="M913.83,310.75c3.11-3.55,6.85-6.32,10.9-8.69c0.54-0.32,1.47-0.44,1.85,0.34c0.39,0.8-0.54,0.86-0.94,1.21
		c-3.53,3.04-4.97,7.3-5.8,11.54c-0.7,3.59-2.01,6.99-2.65,10.56c-0.74,0.16-1,0.51-0.47,1.18c-0.04,0.38-0.07,0.77-0.11,1.15
		c-2.59,1.57-3.45,4.89-2.07,7.92c-4.68,7.75-13.69,14.89-17.71,13.83c7.57-8.17,7.7-19.43,12.32-28.81c0.71-0.08,1.36-0.2,1.6-1.05
		C911.61,316.8,913.53,314.05,913.83,310.75z"/>
	<path class="st0" d="M487.59,323.94c1.71,1.82,2.97,3.79,2.94,6.46c-0.07,5.57-0.08,11.15,0.01,16.73c0.03,2.04-0.4,3.14-2.78,3.08
		c-2.28-0.06-4.02-0.45-4.06-3.12c-0.06-4.28-0.02-8.56-0.03-12.84c0-0.99,0.09-2.02-0.11-2.98c-0.45-2.24-1.45-4.3-4.05-4.26
		c-2.53,0.04-4.93,0.82-5.33,3.98c-1.31,0.63-0.96,1.84-0.97,2.88c-0.03,4.17-0.05,8.35,0,12.53c0.02,1.85-0.66,2.7-2.62,2.73
		c-2.03,0.02-2.21-1.1-2.2-2.67c0.03-7.16,0-14.31,0.03-21.47c0-0.93-0.4-2.2,0.83-2.6c1.19-0.39,2.42-0.54,3.5,0.71
		c1.19,1.36,2.4,1.21,3.03-0.69c0.55-0.09,1.1-0.18,1.66-0.27c2.45,0.13,4.9,0.27,7.36,0.4c0.36,0.06,0.71,0.11,1.07,0.17
		C485.92,323.81,486.71,323.94,487.59,323.94z"/>
	<path class="st0" d="M520.49,338.21c2.67-2.2,2.83-5.36,3.55-8.06c0.53-1.99,1.46-3.83,1.9-5.86c0.56-2.62,3.59-4.01,6.06-3.1
		c1.91,0.71,1.26,2.36,0.82,3.55c-2.82,7.76-5.76,15.47-8.65,23.2c-0.6,1.61-1.76,2.13-3.44,2.26c-2.28,0.16-2.97-1.43-3.5-2.97
		c-1.81-5.27-3.53-10.56-5.73-15.7c-1.13-2.64-1.97-5.49-3.04-8.21c-0.32-0.82-0.13-1.55,0.76-2c2.44-1.23,5.59,0.21,6.47,2.86
		C517.21,328.78,518.83,333.38,520.49,338.21z"/>
	<path class="st0" d="M565.32,335.64c0-3.4-0.02-6.79,0-10.19c0.03-4.2,2.01-5.69,5.9-4.04c1.94,0.83,3.36,0.71,5.31,0.01
		c2.88-1.04,5.88-0.4,8.5,1.39c0.54,0.37,0.86,0.86,0.87,1.48c0.05,1.85-4.54,4.57-6.18,3.67c-3.27-1.79-6.9,0.21-7,4.05
		c-0.14,4.99-0.16,9.99,0,14.99c0.08,2.53-0.83,3.33-3.29,3.24c-2.29-0.09-4.24-0.05-4.15-3.2
		C565.41,343.24,565.33,339.44,565.32,335.64z"/>
	<path class="st0" d="M897.58,332.86c0.07,1.29-1.72,1.24-1.76,2.45c-1.01,0.12-1.29,0.79-1.27,1.68
		c-5.04,6.19-10.94,11.39-18.22,14.73c-5.76,2.64-11.56,2.99-16.93-1.3c-3.47-2.76-4.76-7.58-3.5-11.84c0.59-1.98,0.9-4,2.22-5.67
		c2.12-0.33,2.59-1.93,2.84-3.69c1.01-0.58,0.88-2.32,2.42-2.36c0.04,0.71,0.08,1.41,0.13,2.12c-0.05,0.31-0.09,0.62-0.14,0.93
		c-1.09,0.13-1.19,0.92-1.18,1.78c-0.09,1.57-0.16,3.04-0.85,4.6c-1.43,3.2,1.89,8.62,5.12,9.98c5.74,2.41,10.45,0.56,15.18-2.53
		c4.77-3.12,9.31-6.46,13.07-10.78C895.7,333.86,896.55,330.62,897.58,332.86z"/>
	<path class="st0" d="M1019.46,343.09c2.34-3.7,5.88-6.39,8.35-10.02c1.1-1.62,1.96-3.36,3.06-4.97c1.23-1.81,6.45-3.28,8.28-2.12
		c0.16,0.1,0.38,0.25,0.4,0.4c0.83,4.57,2.94,0.96,4.52,0.72c-0.01,0.31-0.01,0.62-0.02,0.92c-1.06,2.38-3.63,3.12-5.36,4.81
		c-5.22,5.07-9.81,10.57-13.49,16.83c-0.17,0.29-0.62,0.41-0.95,0.61c-2.07,0-4.13,0.04-6.2-0.01c-0.61-0.01-1.81-0.1-1.02-1.05
		c1.22-1.46-0.53-2.07-0.56-3.11l0,0C1018.53,346.15,1018.75,344.38,1019.46,343.09z"/>
	<path class="st0" d="M1013.36,350.16c-2.31,1.04-4.58,2.19-7.27,1.73c-1.17-0.2-2.42-0.14-2.83-1.62
		c-0.03-2.42-0.06-4.84-0.09-7.27c2.7-3.3,5.4-6.62,8.12-9.91c1.06-1.28,2.09-2.59,3.25-3.78c0.72-0.74,0.51-2.3,2.01-2.32
		c2.09-0.02,4.21-0.24,6.26,0.06c1.43,0.21,0.75,1.48,0.48,2.41c-0.85,2.96-3.02,5.02-5.16,6.93c-2.83,2.52-4.58,5.87-7.19,8.56
		c-2,2.06-0.69,3.98,2.51,4.16C1013.43,349.47,1013.39,349.81,1013.36,350.16z"/>
	<path class="st0" d="M1044.05,328.03c0.01-0.31,0.01-0.62,0.02-0.92c0.58-0.1,1.17-0.2,1.75-0.3c2.02,0.04,4.03,0.08,6.05,0.12
		c2.19,1.73,1.44,3.85,0.63,5.84c-1.79,4.4-5.21,7.65-8.27,11.13c-0.9,1.03-1.67,1.94-1.44,3.37l0.06-0.01
		c-1.01-0.16-1.2,0.47-1.21,1.26c0.39,1.09,2.29,0.11,2.33,1.68c-1.52,0.69-3,1.42-4.72,1.64c-2.08,0.27-3.59-0.6-4.57-2.17
		c-0.98-1.59-0.95-3.39,0.06-5.1c2.91-4.94,7.01-8.95,10.55-13.39c0.3-0.37,0.47-0.84,0.7-1.26c0.52-0.08,1.33,0.08,1.32-0.68
		c-0.01-1.03-0.92-1-1.68-1.03C1045.1,328.13,1044.58,328.08,1044.05,328.03z"/>
	<path class="st0" d="M622.59,335.75c0,3.99-0.09,7.98,0.03,11.96c0.08,2.65-1.6,2.54-3.36,2.48c-1.72-0.06-3.74,0.51-3.72-2.44
		c0.07-8.07,0.08-16.15,0-24.22c-0.03-2.92,1.92-2.44,3.68-2.47c1.73-0.03,3.47-0.26,3.4,2.42
		C622.51,327.58,622.59,331.66,622.59,335.75z"/>
	<path class="st0" d="M832.74,329.89c3.64-1.37,0.41-2.84,0.06-4.27c0.9,0,1.79-0.01,2.69-0.01c0.58,0,1.16,0,1.74,0.01
		c2.74,0.41,3.81,2.9,2.41,6.01c-1.12,2.51-2.76,4.7-4.65,6.74c-2.5,2.7-5.2,5.29-6.42,8.92c-0.02,0.95-0.05,1.9-0.07,2.85
		c-0.89,0.07-1.79,0.09-2.68,0.2c-1.96,0.25-3.68-0.41-4.48-2.11c-0.76-1.62-0.4-3.34,0.52-5.09
		C824.58,337.93,829.1,334.28,832.74,329.89z"/>
	<path class="st0" d="M931.21,346.05c0.01-0.57,0.02-1.15,0.02-1.72c2.03-2.04,4.01-4.12,6.09-6.11c3.28-3.15,5.84-7.15,10.15-9.08
		c1.92-0.86,3.56-2.54,5.92-2.32c1.44,0.02,2.88,0.05,4.32,0.07c-0.3,0.5-0.47,1.24-0.91,1.46c-4.96,2.46-8.15,6.69-11.05,11.13
		c-1.52,2.32-3.23,4.73-2.57,7.83c-0.51,2.02,2.35,1.31,2.36,2.9c-0.36,0.04-0.73,0.08-1.09,0.12c-2.02,0-4.04,0-6.06,0.01
		c-2.14-1.04-2.7-2.89-2.7-5.08c0-0.71,0.71-1.63-0.38-2.07c-1.03-0.41-1.14,0.86-1.81,1.2
		C932.67,344.82,932.41,346.09,931.21,346.05z"/>
	<path class="st0" d="M797.37,325.71c0,0.37,0,0.73,0,1.1c-5.41,4.02-10.05,8.7-13.03,14.84c-2.28,4.69-2.16,4.95,2.7,6.07
		c0.09,0.02,0.16,0.11,0.24,0.17c-4.34,3.75-9.02,3.32-10.96-0.99c-1.15-2.56,0.21-7.94,2.2-10.1c3.16-3.43,6.02-7.12,10.38-9.22
		c0.85-0.41,1.6-0.67,2.49-0.66c1.23-0.29,2.93,0.76,3.58-1.23C795.77,325.7,796.57,325.7,797.37,325.71z"/>
	<path class="st0" d="M960.65,327c2.49-0.04,4.97-0.14,7.46-0.1c0.94,0.01,2.22-0.59,2.78,0.42c0.68,1.24-0.72,1.96-1.37,2.71
		c-3.75,4.41-6.55,9.45-9.72,14.25c-0.32,0.48-0.43,1.09-0.64,1.65c-3.67,1.63-0.11,2.88,0.23,4.3l0.03,0.03
		c-2.38-0.01-4.77-0.02-7.15-0.03c-0.14-0.37-0.29-0.75-0.43-1.12c0.35-1.04,0.08-2.04-0.17-3.05c0.02-0.97,0.04-1.94,0.05-2.91
		c1.99-0.62,2.39-2.74,3.46-4.1c2.52-3.19,5.57-6.33,5.37-10.92C960.59,327.76,960.62,327.38,960.65,327z"/>
	<path class="st0" d="M503.88,335.9c0,3.88-0.07,7.77,0.03,11.65c0.05,2.16-0.94,2.68-2.92,2.65c-1.97-0.03-3.18-0.29-3.15-2.73
		c0.11-7.87,0.1-15.73,0-23.6c-0.03-2.34,0.98-2.79,3.06-2.83c2.21-0.04,3.06,0.7,3,2.9C503.81,327.93,503.88,331.92,503.88,335.9z"
		/>
	<path class="st0" d="M755.31,350.2c-3.48,0.01-6.97,0.12-10.45,0.02c-6.26-0.19-14.04-7.62-10.99-16.26
		c1.44-4.1,3.44-7.32,6.66-9.99c0.96,0,1.91-0.01,2.87-0.01c-2.23,2.44-3.28,5.55-4.09,8.56c-1.14,4.23-0.42,8.39,2.74,11.81
		c3.41,3.69,7.8,4.74,12.6,4.68C754.87,349.41,755.09,349.8,755.31,350.2z"/>
	<path class="st0" d="M863.51,328.98c-0.04-0.71-0.08-1.41-0.13-2.12c1.85-3.43,5.13-5.08,8.33-6.96c3.37-1.98,6.93-2.27,10.57-1.84
		c3.08,0.36,5.46,2.41,6.26,5.44c1.1,4.18-0.1,7.85-2.9,9.41c-0.75,0.04-1.16,0.44-1.23,1.19l0,0c-0.84-0.01-1.64-0.08-1.78-1.16
		c0.06-0.2,0.13-0.4,0.19-0.6c0.59-0.16,0.92-0.54,1.01-1.13c1.24-3.06,0.91-6.14-1.57-8.15c-2.07-1.67-4.66-2-7.73-1.22
		C869.88,323.03,866.98,326.31,863.51,328.98z"/>
	<path class="st0" d="M772.76,301.73c0-0.42-0.01-0.83-0.01-1.25c1.27-2.38,4.13-2.47,5.86-2.44c3.51,0.06,7.5,0.87,9.61,4.17
		c1.62,2.55,1.35,6.07,0.32,8.63c-1.18,2.92-3.5,5.68-7.36,5.88c-0.98-0.18-1.35-0.75-1.1-1.72c3.87-2.18,5.07-5.57,3.41-9.57
		c-2.12-5.09-4.14-5.9-9.53-3.83C773.58,301.74,773.15,301.69,772.76,301.73z"/>
	<path class="st0" d="M914.54,335.94c-1.38-3.03-0.52-6.35,2.07-7.92c0.37,0.68-0.29,2.66,1.72,0.77
		c4.29-4.03,7.47-9.06,11.99-12.86c3.8-3.19,7.59-6.38,11.77-9.06c0.6-0.39,1.54-0.26,2.32-0.37c-3.2,1.58-3.25,6.21-7.03,7.22
		c-4.91,1.98-8.26,5.66-10.97,10.04c-0.88,0.22-1.18,0.84-1.19,1.67l0.05-0.01c-3.5,2.41-5.42,6.26-8.32,9.23
		C916.19,335.44,915.55,335.88,914.54,335.94z"/>
	<path class="st0" d="M743.4,323.96c-0.96,0-1.92,0.01-2.87,0.01c1.78-2.7,4.85-3.34,7.55-4.11c4.47-1.26,9.14-2.13,12.99,1.96
		c0.93,0.99,1.27-0.15,1.52-0.92c2.05,0.98,0.88,2.81,1.14,4.27c-0.55,0-1.06,0.17-1.1,0.77c-0.29,3.8-2.88,6.17-5.38,8.55
		c-0.52,0.49-0.99,1.94-2.07,0.91c-0.75-0.71,0.14-1.45,0.54-2.09c0.72-1.16,1.78-2.14,2.06-3.53c0.6-2.93-0.46-5.32-2.77-7.07
		c-2.07-1.57-4.22-2.31-6.92-0.9c-1.2,0.62-2.18,1.67-3.55,1.97c-0.09-0.36-0.2-0.83-0.65-0.68c-0.24,0.08-0.34,0.57-0.5,0.87
		L743.4,323.96z"/>
	<path class="st0" d="M475.78,322.39c-0.63,1.9-1.84,2.06-3.03,0.69c-1.09-1.25-2.31-1.1-3.5-0.71c-1.23,0.4-0.82,1.67-0.83,2.6
		c-0.03,7.16,0,14.31-0.03,21.47c-0.01,1.57,0.17,2.7,2.2,2.67c1.96-0.02,2.64-0.88,2.62-2.73c-0.05-4.17-0.03-8.35,0-12.53
		c0.01-1.04-0.33-2.26,0.97-2.88c0.06,5.77,0.12,11.54,0.2,17.3c0.02,1.38-0.65,1.86-1.99,2.01c-5.05,0.54-5.69-0.01-5.7-5.19
		c0-6.67-0.01-13.34,0-20.01c0.01-3.94,2.35-5.47,6.04-3.79C473.74,321.76,474.71,322.16,475.78,322.39z"/>
	<path class="st0" d="M897.58,332.86c-1.03-2.24-1.88,1-2.86,0.09c-0.02-2.02,1.76-2.76,2.87-3.93c5.14-5.42,9.46-11.51,14.36-17.13
		c0.57-0.66,1.01-1.15,1.89-1.14c-0.31,3.3-2.23,6.06-3.09,9.17c-0.24,0.85-0.89,0.97-1.6,1.05c-0.32-0.96-0.43-1.44-1.35-0.2
		c-2.89,3.88-5.98,7.61-8.98,11.42C898.48,332.61,898.08,332.79,897.58,332.86z"/>
	<path class="st0" d="M1032.65,315.81c0.48,1.48-0.68,2.53-1.68,3.06c-2.6,1.38-5.37,2.44-8.11,3.55c-0.64,0.26-1.42,0.16-1.84-0.58
		c-0.32-0.58-0.26-1.28,0.18-1.68c1.86-1.68,2.79-4.04,4.43-5.85c1.43-1.57,3.23-2.23,5.4-1.43
		C1032.39,313.39,1032.82,314.35,1032.65,315.81z"/>
	<path class="st0" d="M959.38,350.23c-0.34-1.42-3.9-2.67-0.23-4.3c0.59,1.46,1.53,1.85,2.68,0.66c4.46-4.61,9.18-9,12.25-14.78
		c0.57-1.08,1.3-2.26,2.75-2.51c0,0.65,0.01,1.3,0.01,1.95c-0.96,3.9-3.9,6.62-6.36,9.4c-2.12,2.4-3.91,5.17-6.58,7.18
		C962.46,348.93,960.83,349.33,959.38,350.23z"/>
	<path class="st0" d="M701.85,348.97c0.39-2.08,1.73-2.19,2.96-1.01c1.21,1.16,2.47,1.38,3.79,0.87c1.55-0.61,1.06-2.19,1.06-3.42
		c0.02-11.52-0.01-23.04-0.02-34.55c1.62,0.04,1.25,1.29,1.25,2.2c0.02,11.48,0.03,22.96,0,34.45c-0.01,2.65-3.25,3.87-6.59,2.43
		C703.5,349.58,702.79,349,701.85,348.97z"/>
	<path class="st0" d="M646.31,349c4.58,0.13,4.58,0.13,4.58-4.3c0-11.29-0.01-22.58-0.01-33.87c1.67,0.03,1.18,1.33,1.19,2.19
		c0.03,11.44,0.03,22.87,0,34.31c0,1.02,0.34,2.62-1.12,2.67C649.42,350.06,647.39,351.34,646.31,349z"/>
	<path class="st0" d="M1003.17,343c0.03,2.42,0.06,4.84,0.09,7.27c-1.99,0.19-1.48-1.72-2.18-2.69c-3.54,2.21-6.74,5.18-11.4,4.46
		c-1.23-0.19-2.45-0.14-2.5-1.83c1.29,0.04,2.58,0.06,3.86,0.13c1.34,0.07,2.08-0.46,2.02-1.87c2.41,0.57,4-0.98,5.75-2.18
		C1000.33,345.26,1001.1,343.27,1003.17,343z"/>
	<path class="st0" d="M619.15,310.73c2.42-0.41,3.65,0.29,3.51,3.1c-0.12,2.56-0.94,3.91-3.63,3.89c-2.71-0.03-3.41-1.48-3.55-3.98
		C615.33,310.77,616.83,310.4,619.15,310.73z"/>
	<path class="st0" d="M674.29,348.92c0.15-0.57,0.42-0.81,1.06-0.58c4.01,1.46,4.39,1.18,4.43-3.03c0.05-5.78,0.14-11.56,0.22-17.34
		c1.64,0.32,1.48,1.59,1.48,2.78c0,5.35,0.03,10.7-0.03,16.04c-0.01,1.18,0.64,3.11-1.07,3.25
		C678.38,350.21,675.86,351.65,674.29,348.92z"/>
	<path class="st0" d="M638.16,280.13c1.83,0.65,3.87,1.01,3.72,3.74c-0.14,2.53-1.57,3.46-3.92,3.4c-2.21-0.06-3.2-1.27-3.26-3.4
		C634.64,281.55,635.92,280.47,638.16,280.13z"/>
	<path class="st0" d="M859.21,284.01c-0.17,2.26-1.38,3.36-3.68,3.27c-2.24-0.09-3.53-1.12-3.5-3.49c0.03-2.59,1.86-3.45,3.91-3.49
		C858.16,280.24,859.3,281.69,859.21,284.01z"/>
	<path class="st0" d="M922.53,287.22c-2.77,0.54-3.17-1.78-3.83-3.52c-0.35-0.92,2.91-4.08,3.87-3.81c1.9,0.53,3.4,1.86,3.32,3.86
		C925.8,285.54,925.36,287.69,922.53,287.22z"/>
	<path class="st0" d="M1026.63,284.19c-0.18,1.71-1.14,3.08-3.52,3.08c-2.25,0-3.6-0.95-3.66-3.33c-0.04-1.62,2.09-3.98,3.58-3.96
		C1024.45,280,1026.61,282.26,1026.63,284.19z"/>
	<path class="st0" d="M675.41,284.04c-0.15,1.89-1.11,3.21-3.48,3.23c-2.17,0.02-3.58-0.57-3.69-3.15
		c-0.11-2.61,1.46-3.72,3.49-3.77C673.64,280.29,675.35,281.35,675.41,284.04z"/>
	<path class="st0" d="M751.95,284.01c-0.26-2.46,1.24-3.74,3.22-3.62c1.97,0.12,3.94,1.63,3.96,3.68c0.01,1.91-1.63,3.12-3.85,3.21
		C752.86,287.37,751.77,286.34,751.95,284.01z"/>
	<path class="st0" d="M993.05,283.4c-0.06,2.75-1.24,3.85-3.53,3.88c-2.26,0.02-3.53-1.06-3.65-3.31c-0.11-1.93,1.83-3.98,3.71-3.68
		C991.46,280.59,993.21,281.37,993.05,283.4z"/>
	<path class="st0" d="M524.24,284.11c0.3,2.21-0.56,3.2-2.95,3.22c-2.45,0.02-3.66-1.18-4.06-3.32c-0.23-1.23,2.62-4.18,3.79-3.97
		C523.19,280.42,524.6,281.6,524.24,284.11z"/>
	<path class="st0" d="M959.33,284.01c0.32,2.6-1.05,3.29-3.37,3.28c-2.25-0.01-3.29-1.21-3.57-3.17c-0.24-1.75,2.01-4.13,3.76-3.81
		C958.02,280.66,959.78,281.53,959.33,284.01z"/>
	<path class="st0" d="M440.73,283.84c0.06,2.28-1.16,3.32-3.47,3.42c-2.49,0.11-3.68-1.66-3.67-3.45c0.02-1.93,1.95-3.4,3.86-3.42
		C439.22,280.37,440.84,281.47,440.73,283.84z"/>
	<path class="st0" d="M788.61,287.23c-2.87,0.37-3.23-1.78-3.31-3.58c-0.09-2.04,1.55-3.31,3.4-3.32c2.02-0.01,3.76,1.65,3.64,3.48
		C792.23,285.51,791.39,287.9,788.61,287.23z"/>
	<path class="st0" d="M875.44,284.06c0.22,2.07-0.46,3.25-2.94,3.26c-2.48,0.02-3.97-1.2-3.97-3.36c0-2.22,2.09-3.47,4.04-3.58
		C874.59,280.26,875.68,281.81,875.44,284.06z"/>
	<path class="st0" d="M537.64,287.22c-2.3,0.33-3.1-0.71-3.18-3.02c-0.08-2.39,1.15-3.45,3.11-3.89c1.4-0.32,4.22,2.35,3.9,3.74
		C541.05,285.94,540.13,287.62,537.64,287.22z"/>
	<path class="st0" d="M741.62,284.24c0.14,1.71-0.26,3.16-2.86,3.07c-2.34-0.08-4.05-1.27-4.13-3.32c-0.08-2.06,2.05-3.25,3.82-3.87
		C739.89,279.6,741.59,281.84,741.62,284.24z"/>
	<path class="st0" d="M1056.35,287.23c-2.56,0.3-3.27-1.07-3.31-3.36c-0.03-2.42,1.5-3.54,3.41-3.5c1.97,0.04,3.58,1.74,3.54,3.65
		C1059.95,285.83,1058.84,287.63,1056.35,287.23z"/>
	<path class="st0" d="M556.69,281.29c2.27,0.46,1.73,2.29,1.38,3.54c-0.44,1.57-1.74,2.47-3.59,2.48c-1.71,0.01-3.06-0.65-3.49-2.16
		c-0.4-1.41-0.83-3.26,1.43-3.87C553.85,281.28,555.27,281.28,556.69,281.29z"/>
	<path class="st0" d="M654.86,287.23c-2.47,0.41-3.6-1.36-3.67-3.18c-0.07-1.93,1.57-3.6,3.52-3.67c1.92-0.07,3.45,1.06,3.42,3.48
		C658.11,286.11,657.45,287.54,654.86,287.23z"/>
	<path class="st0" d="M571.01,287.27c-2.52,0.54-2.85-1.76-3.43-3.43c-0.41-1.18,2.33-3.74,3.72-3.57c2.01,0.24,3.18,1.68,3.46,3.53
		C575.06,285.79,573.4,287.26,571.01,287.27z"/>
	<path class="st0" d="M838.83,287.21c-2.61,0.4-3.07-1.11-3.17-3.34c-0.1-2.37,1.43-3.11,3.14-3.5c1.4-0.32,4.24,2.41,3.93,3.7
		C842.28,285.99,841.3,287.58,838.83,287.21z"/>
	<path class="st0" d="M969.6,284.02c-0.26-2.19,0.84-3.75,2.83-3.64c1.93,0.1,3.72,1.39,4.19,3.52c0.34,1.54-2.03,3.27-4.1,3.38
		C970.06,287.42,969.36,286.15,969.6,284.02z"/>
	<path class="st0" d="M705.44,287.26c-2.56,0-4.36-1.56-4.01-3.58c0.33-1.87,1.74-3.24,3.61-3.36c2.1-0.13,3.38,1.63,3.32,3.4
		C708.32,285.32,708.18,287.85,705.44,287.26z"/>
	<path class="st0" d="M724.13,281.34c2.14,2.08,2.17,3.32,0.12,5.06c-1.66,1.4-4.55,1.26-5.44-0.54c-0.79-1.6-1.57-3.61,1.08-4.6
		C721.3,281.29,722.72,281.31,724.13,281.34z"/>
	<path class="st0" d="M941.44,281.31c2.15,0.45,1.92,2.23,1.52,3.52c-0.47,1.51-1.83,2.39-3.6,2.46c-1.86,0.07-3.12-0.92-3.55-2.48
		c-0.35-1.25-0.88-3.07,1.38-3.52C938.61,281.3,940.03,281.3,941.44,281.31z"/>
	<path class="st0" d="M907.84,281.29c2.49,0.75,1.85,2.72,1.17,4.1c-0.94,1.9-3.04,2.48-4.87,1.65c-1.49-0.67-2.67-2.18-1.86-4.14
		c0.25-0.61,0.86-1.08,1.3-1.61C905,281.29,906.42,281.29,907.84,281.29z"/>
	<path class="st0" d="M456.45,281.28c2.46,1.07,1.97,2.91,0.99,4.59c-0.97,1.66-4.07,1.95-5.54,0.75c-1.45-1.2-1.32-3.64,0.29-5.32
		C453.61,281.29,455.03,281.28,456.45,281.28z"/>
	<path class="st0" d="M621.97,287.26c-2.55-0.03-3.88-0.96-3.83-3.21c0.04-1.97,1.01-3.63,3.04-3.69c2.01-0.06,3.85,1.54,3.82,3.33
		C624.97,285.13,624.31,287.64,621.97,287.26z"/>
	<path class="st0" d="M506.81,281.38c2.01,1.64,1.66,3.45,0.04,4.98c-1.53,1.45-3.49,1.54-4.96-0.03c-1.44-1.54-1.86-3.4,0.14-5.01
		C503.62,281.35,505.21,281.36,506.81,281.38z"/>
	<path class="st0" d="M807.61,281.27c2.54,1.04,2.03,2.9,1.02,4.59c-1.02,1.7-3.76,1.95-5.26,0.73c-1.73-1.41-1.73-3.42-0.01-5.27
		C804.77,281.3,806.19,281.29,807.61,281.27z"/>
	<path class="st0" d="M690.53,281.31c2.1,1.57,1.66,3.39,0.21,4.98c-1.49,1.62-3.46,1.52-4.99,0.11c-1.64-1.5-1.96-3.35,0-5.02
		C687.34,281.36,688.94,281.34,690.53,281.31z"/>
	<path class="st0" d="M824.38,281.32c2.1,1.41,1.57,3.2,0.43,4.77c-1.27,1.73-3.5,1.77-4.8,0.63c-1.47-1.29-2.67-3.4-0.42-5.36
		C821.19,281.35,822.79,281.34,824.38,281.32z"/>
	<path class="st0" d="M1041.7,281.29c2.12,1.42,1.57,3.21,0.43,4.8c-1.26,1.76-3.43,1.76-4.77,0.62c-1.52-1.29-2.74-3.34-0.45-5.3
		C1038.51,281.36,1040.11,281.32,1041.7,281.29z"/>
	<path class="st0" d="M774,281.27c2.63,0.79,1.77,2.8,1.25,4.33c-0.54,1.57-3.99,2.38-5.17,1.25c-1.17-1.12-2.94-2.38-1.22-4.44
		c0.31-0.37,0.57-0.77,0.85-1.16C771.14,281.25,772.57,281.26,774,281.27z"/>
	<path class="st0" d="M500.89,316.69c-2.69,0.55-2.97-0.94-3.08-3.19c-0.13-2.62,1.16-2.75,3.2-2.88c2.51-0.16,2.92,0.94,2.94,3.11
		C503.96,316.01,503.35,317.17,500.89,316.69z"/>
	<path class="st0" d="M489.48,281.26c1.99,1.68,1.66,3.89,0.34,5.39c-1.12,1.27-3.49,1.13-4.54-0.32c-1.07-1.48-1.75-3.59,0.51-5.06
		C487.02,281.27,488.25,281.26,489.48,281.26z"/>
	<path class="st0" d="M1008.09,281.28c1.98,1.17,1.28,2.97,0.8,4.48c-0.45,1.41-1.89,1.53-3.27,1.52c-1.58-0.01-2.48-0.6-2.43-2.26
		c0.03-1.19,0.09-2.39,0.14-3.58C1004.92,281.37,1006.5,281.33,1008.09,281.28z"/>
	<path class="st0" d="M473.21,281.36c1.87,1.52,1.65,3.34,0.22,4.82c-1.5,1.54-3.37,1.91-5.04-0.02c0.02-1.6,0.04-3.2,0.06-4.8l0,0
		C470.03,281.36,471.62,281.36,473.21,281.36z"/>
	<path class="st0" d="M784.28,205.25c0-6.44,0.01-12.88,0.01-19.32c1.5,0.11,1.65,1.12,1.64,2.33c-0.02,4.89-0.02,9.78,0,14.67
		C785.94,204.14,785.76,205.14,784.28,205.25z"/>
	<path class="st0" d="M891.64,286.15c-1.89,1.56-4.52,1.53-5.45-0.38c-0.76-1.55-1.5-3.62,1.16-4.54c1.41,0.04,2.82,0.08,4.23,0.12
		l0,0C891.6,282.96,891.62,284.56,891.64,286.15z"/>
	<path class="st0" d="M590.34,286.19c-1.03,1.86-2.69,0.84-4.12,0.9c-0.09-0.83-0.35-1.52-1.36-1.56c0.01-1,0.01-2,0.02-3.01
		c0.77-0.04,1.11-0.5,1.18-1.21l-0.02-0.04c1.41,0.01,2.83,0.02,4.24,0.03l-0.03,0.03c-0.03,1.08,0.37,1.83,1.56,1.93
		c0,0.3,0.01,0.6,0.01,0.89C590.6,284.32,590.2,285.06,590.34,286.19z"/>
	<path class="st0" d="M424.35,283.24c0,0.33,0,0.67,0.01,1c-1.06,0.5-1.45,1.41-1.55,2.5c-1.93,0.92-3.65,0.94-4.88-1.13
		c0.03-0.52-0.11-0.97-0.56-1.28c0.02-0.4,0.04-0.8,0.06-1.19c1.1-0.14,1.14-0.96,1.17-1.79l-0.04-0.05
		c1.43-0.01,2.85-0.02,4.28-0.02l-0.04,0.06C422.87,282.33,423.38,282.97,424.35,283.24z"/>
	<path class="st0" d="M1013.36,350.16c0.03-0.34,0.06-0.69,0.09-1.03c-0.09-2.1,1.74-2.28,3.02-3.02c0.03,1.05,1.78,1.65,0.56,3.11
		c-0.79,0.95,0.41,1.04,1.02,1.05c2.07,0.04,4.13,0.01,6.2,0.01c-0.24,1.56-1.37,1.62-2.64,1.77
		C1018.61,352.38,1015.87,351.83,1013.36,350.16z"/>
	<path class="st0" d="M904.84,262.12c3.65,0.02,7.31-0.07,10.95,0.11c1.47,0.08,2.28-1.05,3.51-1.27c0.41,1.94-0.26,2.99-2.37,2.97
		c-3.36-0.03-6.71-0.03-10.07-0.01C905.61,263.93,904.7,263.64,904.84,262.12z"/>
	<path class="st0" d="M607.75,282.52c-0.01,1.01-0.02,2.03-0.03,3.04c-1.01,0.03-1.26,0.74-1.38,1.56
		c-0.91,0.02-1.83,0.03-2.74,0.05c-0.2-0.61-0.64-0.93-1.25-1.05c-0.01-1.59-0.02-3.17-0.04-4.76l-0.01-0.01
		c1.42-0.03,2.83-0.07,4.25-0.1l-0.01,0.05C606.6,282.03,607,282.46,607.75,282.52z"/>
	<path class="st0" d="M1043.97,350.2c-0.04-1.58-1.94-0.59-2.32-1.68c0.79-0.05,1.2-0.47,1.21-1.26l-0.06,0.01
		c1.41,0.12,2.67,0.12,3.52-1.44c0.43-0.78,1.48-1.21,2.25-1.81c0.45-0.35,0.9-0.91,1.46-0.18c0.36,0.48,0.79,1.35,0.35,1.59
		C1048.01,346.73,1047.02,349.86,1043.97,350.2z"/>
	<path class="st0" d="M951.72,343.16c-0.02,0.97-0.04,1.94-0.06,2.91c-0.78,0.1-1.17,0.56-1.23,1.32c-1.8,0.66-2.58,3.07-4.9,2.83
		c-0.01-1.6-2.87-0.89-2.36-2.91c2.69,0.38,4.79-0.51,6.41-2.73C950.08,343.92,950.66,343.1,951.72,343.16z"/>
	<path class="st0" d="M755.31,350.2c-0.22-0.4-0.44-0.79-0.66-1.19c0.28-0.9,0.83-1.66,1.82-1.57c1.66,0.15,2.87-0.84,4.25-1.39
		c0.43,1.86,1.98,1,3.07,1.26c-1.28,2.85-4.41,1.65-6.44,2.88C756.85,350.49,756,350.21,755.31,350.2z"/>
	<path class="st0" d="M243.32,36.16c-3.84-0.03-7.79,0.82-11.39-1.3C235.86,34.17,239.72,34.04,243.32,36.16z"/>
	<path class="st0" d="M209.7,34.85c-0.23,0.31-0.44,0.86-0.68,0.88c-3.56,0.21-7.11,0.9-10.71,0.44c0.21-0.32,0.41-0.92,0.63-0.92
		C202.53,35.15,206.07,33.57,209.7,34.85z"/>
	<path class="st0" d="M830.97,347.34c1.76-1.73,2.85-4.49,6.77-4.11c-2.59,2.2-4.05,4.67-6.77,5.78
		C831.35,348.45,831.33,347.89,830.97,347.34z"/>
	<path class="st0" d="M635.87,349.1c2.74-0.17,5.57,0.47,8.06-1.46c1.07-0.83,2.1-0.3,2.25,1.22c-2.65-0.08-4.9,1.96-7.64,1.4
		C637.56,350.07,636.28,350.59,635.87,349.1z"/>
	<path class="st0" d="M953.43,304.72c-0.03-0.85-0.62-1.15-1.32-1.35c0.9-2.73,3.11-1.51,4.78-1.4c0.91,0.06,0.65,0.95,0.07,1.58
		C955.99,304.6,954.78,304.84,953.43,304.72z"/>
	<path class="st0" d="M960.65,327c-0.03,0.38-0.06,0.75-0.09,1.13c-1.03-0.21-1.64-1.4-2.84-1.24c-1.44-0.02-2.88-0.05-4.32-0.07
		C955.97,324.3,959.61,324.39,960.65,327z"/>
	<path class="st0" d="M952.27,350.24c2.38,0.01,4.77,0.02,7.15,0.03C957.36,352.89,953.8,352.87,952.27,350.24z"/>
	<path class="st0" d="M918.05,350.25c2.4,0.03,4.8,0.06,7.2,0.09C923.13,352.87,919.91,352.84,918.05,350.25z"/>
	<path class="st0" d="M189.36,262.18c-1.25,2.53-3.53,3.66-6.08,4.4C184.68,264.26,186.82,262.95,189.36,262.18z"/>
	<path class="st0" d="M693,349.03c2.94-0.01,5.87-0.02,8.81-0.02C700.01,350.85,694.84,350.87,693,349.03z"/>
	<path class="st0" d="M195.47,36.27c-1.57,2.59-4.07,1.35-6.23,1.51c0.2-2.07,1.8-1.6,3.07-1.64
		C193.36,36.11,194.41,36.22,195.47,36.27z"/>
	<path class="st0" d="M790.17,346.13c-0.94-0.22-1.62-0.79-0.73-1.6c1.21-1.1,1.92-2.82,3.72-3.24c-0.1,1.71-1.69,3.04-1.27,4.89
		C791.31,346.16,790.74,346.15,790.17,346.13z"/>
	<path class="st0" d="M780.06,315c-0.25,0.97,0.12,1.54,1.1,1.72c-0.73,1.85-2.22,1.19-3.46,0.93c-0.79-0.17-0.86-1.09-0.64-1.72
		C777.62,314.38,778.97,315.05,780.06,315z"/>
	<path class="st0" d="M1051.87,326.92c-2.02-0.04-4.03-0.08-6.05-0.12C1047.1,324.37,1049.97,324.43,1051.87,326.92z"/>
	<path class="st0" d="M938.39,350.34c2.02,0,4.04,0,6.06-0.01C942.41,352.8,939.6,352.8,938.39,350.34z"/>
	<path class="st0" d="M882.63,332.95c0.14,1.08,0.95,1.15,1.78,1.16c-0.26,2.31-2.02,1.72-3.43,1.71c-0.33,0-0.79-0.27-0.95-0.55
		c-0.33-0.57,0.13-0.87,0.59-1.13C881.31,333.77,881.97,333.35,882.63,332.95z"/>
	<path class="st0" d="M484.79,322.51c-2.45-0.13-4.9-0.27-7.36-0.4C479.41,320.24,483.35,320.45,484.79,322.51z"/>
	<path class="st0" d="M981.7,326.84c-2.11-0.64-3.19,1.3-4.79,1.91c0.12-1.66,0.84-3.01,2.45-3.51
		C980.55,324.88,981.4,325.59,981.7,326.84z"/>
	<path class="st0" d="M602.3,281.36c0.01,1.59,0.02,3.17,0.04,4.76c-0.18,0.01-0.36,0.01-0.54,0
		C599.74,284.32,599.95,282.3,602.3,281.36z"/>
	<path class="st0" d="M1041.7,281.29c-1.59,0.04-3.19,0.08-4.78,0.12c0.12-1.75,1.38-1.81,2.7-1.85
		C1040.86,279.52,1041.7,279.87,1041.7,281.29z"/>
	<path class="st0" d="M468.45,281.36c-0.02,1.6-0.04,3.2-0.06,4.8c-1.87-0.32-1.73-1.74-1.73-3.11
		C466.65,281.82,467.28,281.32,468.45,281.36z"/>
	<path class="st0" d="M182.04,262.71c0.81-2.13,2.15-3.78,4.3-4.69C185.7,260.31,184.24,261.85,182.04,262.71z"/>
	<path class="st0" d="M251.22,37.73c-1.83,0.02-3.89,0.86-5.05-1.45C247.91,36.56,250.25,34.77,251.22,37.73z"/>
	<path class="st0" d="M824.38,281.32c-1.6,0.01-3.19,0.03-4.79,0.04c-0.07-1.4,0.72-1.82,1.99-1.81
		C822.91,279.57,824.14,279.64,824.38,281.32z"/>
	<path class="st0" d="M690.53,281.31c-1.59,0.02-3.19,0.04-4.78,0.07c0.16-1.73,1.41-1.79,2.73-1.83
		C689.74,279.52,690.55,279.91,690.53,281.31z"/>
	<path class="st0" d="M506.81,281.38c-1.59-0.02-3.18-0.04-4.77-0.06c-0.03-1.41,0.78-1.8,2.04-1.77
		C505.39,279.59,506.65,279.64,506.81,281.38z"/>
	<path class="st0" d="M473.21,281.36c-1.59,0-3.18,0-4.76,0c-0.07-1.42,0.73-1.82,2-1.8C471.78,279.57,473.01,279.65,473.21,281.36z
		"/>
	<path class="st0" d="M891.64,286.15c-0.02-1.6-0.04-3.2-0.06-4.8c1.17-0.04,1.8,0.46,1.79,1.69
		C893.37,284.42,893.51,285.84,891.64,286.15z"/>
	<path class="st0" d="M182.03,266.8c-0.16,0.55-0.31,1.38-1.04,0.95c-0.78-0.46-1.61-1.1-1.7-2.17c-0.09-1.11,0.61-1.53,1.57-1.69
		C180.82,265.03,180.98,266.09,182.03,266.8z"/>
	<path class="st0" d="M1008.09,281.28c-1.59,0.05-3.17,0.1-4.76,0.15C1005.06,278.93,1006.49,278.89,1008.09,281.28z"/>
	<path class="st0" d="M724.13,281.34c-1.41-0.03-2.83-0.05-4.25-0.08c0.01-1.48,0.94-1.71,2.17-1.71
		C723.31,279.55,724.17,279.89,724.13,281.34z"/>
	<path class="st0" d="M422.85,281.27c-1.43,0.01-2.85,0.02-4.28,0.02c-0.01-1.46,0.89-1.74,2.13-1.74
		C421.93,279.55,422.85,279.8,422.85,281.27z"/>
	<path class="st0" d="M891.58,281.36c-1.41-0.04-2.82-0.08-4.23-0.12c0.01-1.5,0.98-1.68,2.19-1.68
		C890.8,279.55,891.66,279.9,891.58,281.36z"/>
	<path class="st0" d="M187.5,37.88c-1.05,1.61-2.53,1.75-4.2,1.23C184.32,37.41,185.81,37.3,187.5,37.88z"/>
	<path class="st0" d="M941.44,281.31c-1.42-0.01-2.83-0.02-4.25-0.02C938.29,278.9,939.55,278.9,941.44,281.31z"/>
	<path class="st0" d="M907.84,281.29c-1.42,0-2.84,0-4.26,0C905.53,278.91,906.75,278.91,907.84,281.29z"/>
	<path class="st0" d="M556.69,281.29c-1.42-0.01-2.85-0.01-4.27-0.02C554.4,278.91,555.61,278.91,556.69,281.29z"/>
	<path class="st0" d="M590.28,281.32c-1.41-0.01-2.83-0.02-4.24-0.03C587.14,278.89,588.41,278.9,590.28,281.32z"/>
	<path class="st0" d="M606.54,281.25c-1.42,0.03-2.83,0.07-4.25,0.1C604.09,278.92,605.38,278.89,606.54,281.25z"/>
	<path class="st0" d="M456.45,281.28c-1.42,0.01-2.84,0.01-4.26,0.02C453.28,278.91,454.49,278.9,456.45,281.28z"/>
	<path class="st0" d="M774,281.27c-1.43-0.01-2.86-0.02-4.29-0.02C771.72,278.92,772.9,278.93,774,281.27z"/>
	<path class="st0" d="M807.61,281.27c-1.42,0.01-2.84,0.03-4.25,0.04C804.41,278.91,805.62,278.9,807.61,281.27z"/>
	<path class="st0" d="M860.96,329.22c-0.25,1.76-0.73,3.36-2.84,3.69C858.37,331.15,859.39,329.98,860.96,329.22z"/>
	<path class="st0" d="M930.03,344.55c-0.09,0.66-0.22,1.7-1.02,1.28c-0.98-0.51-2.72-0.81-2.05-2.71
		C928.01,343.53,928.74,344.65,930.03,344.55z"/>
	<path class="st0" d="M186.37,257.98c0.26-1.71,1.25-2.69,2.95-2.97C189.16,256.81,188.16,257.79,186.37,257.98z"/>
	<path class="st0" d="M830.97,347.34c0.35,0.56,0.38,1.11,0,1.67c-0.98,0.03-1.35,1.38-2.47,1.13c0.02-0.95,0.05-1.9,0.07-2.85
		C829.38,347.3,830.18,347.32,830.97,347.34z"/>
	<path class="st0" d="M258.34,39.1c-1.46-0.19-3.26,0.77-4.2-1.22C255.82,37.32,257.32,37.4,258.34,39.1z"/>
	<path class="st0" d="M784.18,183c-1.99-0.98-0.96-2.77-1.13-4.24C784.69,179.84,784.54,181.39,784.18,183z"/>
	<path class="st0" d="M489.48,281.26c-1.23,0.01-2.46,0.01-3.69,0.02C487.26,278.98,487.96,278.98,489.48,281.26z"/>
	<path class="st0" d="M783.07,212.44c0.14-1.48-0.83-3.25,1.12-4.25C784.52,209.8,784.71,211.36,783.07,212.44z"/>
	<path class="st0" d="M926.95,341.85c-0.77-1.61-0.3-2.78,1.26-3.56C928.08,339.59,928.65,341.12,926.95,341.85z"/>
	<path class="st0" d="M926.93,193.12c0.12,1.15-0.24,1.88-1.56,1.82c-1.21-0.05-1.37-0.83-1.3-1.79
		C925.03,193.14,925.98,193.13,926.93,193.12z"/>
	<path class="st0" d="M180.48,39.29c-0.4,1.99-1.9,1.57-3.25,1.49C177.54,38.58,179.11,39.15,180.48,39.29z"/>
	<path class="st0" d="M1019.46,343.09c-0.7,1.29-0.92,3.06-2.98,3.02C1016.61,344.25,1017.68,343.32,1019.46,343.09z"/>
	<path class="st0" d="M794.97,325.69c-0.65,1.98-2.34,0.94-3.58,1.23C792.23,325.49,793.45,325.14,794.97,325.69z"/>
	<path class="st0" d="M950.44,347.39c0.06-0.76,0.45-1.22,1.23-1.32c0.25,1.01,0.52,2.01,0.17,3.05
		C950.71,349.07,950.38,348.39,950.44,347.39z"/>
	<path class="st0" d="M174.93,40.93c-0.55,1.67-1.92,1.09-3.07,1.11C172.44,40.45,173.79,40.97,174.93,40.93z"/>
	<path class="st0" d="M679.88,326.86c-1.13-0.09-1.36-0.84-1.31-1.79C679.64,325.2,680.72,325.33,679.88,326.86z"/>
	<path class="st0" d="M422.81,286.74c0.09-1.1,0.48-2.01,1.55-2.5C424.8,285.66,424.19,286.44,422.81,286.74z"/>
	<path class="st0" d="M591.81,283.29c-1.19-0.11-1.58-0.85-1.56-1.93C591.6,281.34,592.21,281.91,591.81,283.29z"/>
	<path class="st0" d="M590.34,286.19c-0.14-1.14,0.26-1.88,1.48-2.01C592.27,285.54,591.56,286.06,590.34,286.19z"/>
	<path class="st0" d="M418.61,281.35c-0.04,0.83-0.08,1.65-1.17,1.79C416.45,281.64,417.4,281.41,418.61,281.35z"/>
	<path class="st0" d="M862.19,331.68c-0.01-0.86,0.09-1.64,1.18-1.78C864.12,331.26,862.82,331.25,862.19,331.68z"/>
	<path class="st0" d="M424.35,283.24c-0.97-0.27-1.48-0.91-1.54-1.91C424.13,281.32,424.76,281.86,424.35,283.24z"/>
	<path class="st0" d="M1045.63,328.19c0.76,0.03,1.67,0.01,1.68,1.03c0.01,0.77-0.79,0.6-1.32,0.68
		C1045.87,329.33,1045.75,328.76,1045.63,328.19z"/>
	<path class="st0" d="M584.86,285.54c1.01,0.04,1.27,0.72,1.36,1.56C585.04,287.21,584.92,286.41,584.86,285.54z"/>
	<path class="st0" d="M606.33,287.12c0.13-0.82,0.37-1.52,1.38-1.56C607.66,286.44,607.51,287.24,606.33,287.12z"/>
	<path class="st0" d="M894.55,336.99c-0.02-0.9,0.26-1.57,1.27-1.68C895.78,336.16,895.52,336.84,894.55,336.99z"/>
	<path class="st0" d="M601.8,286.12c0.18,0.01,0.36,0.01,0.54,0c0.61,0.13,1.05,0.45,1.25,1.05
		C602.66,287.39,601.93,287.27,601.8,286.12z"/>
	<path class="st0" d="M837.23,325.62c-0.58,0-1.16,0-1.74-0.01C836.08,324.28,836.66,324.28,837.23,325.62z"/>
	<path class="st0" d="M487.59,323.94c-0.88-0.01-1.67-0.14-1.73-1.26C486.73,322.69,487.47,322.89,487.59,323.94z"/>
	<path class="st0" d="M607.75,282.52c-0.75-0.07-1.14-0.49-1.22-1.23C607.19,281.45,608.46,281,607.75,282.52z"/>
	<path class="st0" d="M586.07,281.33c-0.08,0.71-0.42,1.17-1.18,1.21C584.06,280.95,585.46,281.53,586.07,281.33z"/>
	<path class="st0" d="M919.68,259.59c0.07-0.84,0.34-1.52,1.3-1.67C921.07,258.88,920.89,259.64,919.68,259.59z"/>
	<path class="st0" d="M916.72,326.88c-0.53-0.67-0.27-1.02,0.47-1.18C918.18,326.55,917.32,326.66,916.72,326.88z"/>
	<path class="st0" d="M690.49,347.31c0.99,0.01,1.29,0.65,1.37,1.49C690.62,349.02,690.58,348.14,690.49,347.31z"/>
	<path class="st0" d="M191.05,260.93c-0.1,1.06-0.81,1.3-1.72,1.27C189.4,261.09,190.17,260.94,191.05,260.93z"/>
	<path class="st0" d="M791.98,348.48c1.02,0.1,1.25,0.8,1.26,1.66C792.17,350.08,791.97,349.36,791.98,348.48z"/>
	<path class="st0" d="M883.84,331.22c-0.09,0.6-0.43,0.98-1.01,1.13C882.67,331.53,883.05,331.2,883.84,331.22z"/>
	<path class="st0" d="M884.41,334.11c0.06-0.75,0.47-1.15,1.23-1.19C885.59,333.69,885.19,334.1,884.41,334.11z"/>
	<path class="st0" d="M417.37,284.33c0.45,0.31,0.59,0.76,0.56,1.28C417.17,285.44,416.76,285.11,417.37,284.33z"/>
	<path class="st0" d="M633.02,347.87c0.57,0.08,0.95,0.38,1.11,0.94C633.33,349,632.97,348.67,633.02,347.87z"/>
	<path class="st0" d="M180.84,263.91c0.18-0.63,0.59-1.04,1.22-1.22C182.04,263.48,181.63,263.89,180.84,263.91z"/>
	<path class="st0" d="M802.02,348.95c0.21-0.29,0.35-0.69,0.63-0.84c0.3-0.16,0.59,0.21,0.46,0.47c-0.15,0.28-0.52,0.45-0.8,0.66
		C802.21,349.14,802.12,349.05,802.02,348.95z"/>
	<path class="st0" d="M926.41,323.76c2.71-4.38,6.06-8.06,10.97-10.04c-3.24,3.74-6.47,7.49-9.74,11.2c-0.21,0.24-0.74,0.2-1.12,0.3
		C926.48,324.73,926.45,324.25,926.41,323.76z"/>
	<path class="st0" d="M926.41,323.76c0.04,0.48,0.07,0.97,0.11,1.46c-0.43,0.07-0.86,0.15-1.3,0.22
		C925.23,324.6,925.54,323.98,926.41,323.76z"/>
	<path class="st0" d="M1042.85,347.25c-0.01,0.8-0.42,1.21-1.21,1.26C1041.65,347.72,1041.84,347.09,1042.85,347.25z"/>
	<path class="st0" d="M744.52,323.78c-0.38,0.06-0.77,0.12-1.15,0.18c0.16-0.3,0.26-0.79,0.5-0.87
		C744.32,322.95,744.43,323.42,744.52,323.78z"/>
</g>
</svg>
