<?xml version="1.0" encoding="utf-8"?>
<!-- Generator: Adobe Illustrator 28.3.0, SVG Export Plug-In . SVG Version: 6.00 Build 0)  -->
<svg version="1.1" id="Capa_1" xmlns="http://www.w3.org/2000/svg" xmlns:xlink="http://www.w3.org/1999/xlink" x="0px" y="0px"
	 viewBox="0 0 1920 391.66" style="enable-background:new 0 0 1920 391.66;" xml:space="preserve">
<style type="text/css">
	.st0{fill:#003B7A;}
</style>
<g>
	<path class="st0" d="M1444.41,307.4c0,6.04-7.77,8.83-11.38,3.98c-7.7-10.37-18.88-17.56-37.12-17.7h48.49V307.4z"/>
	<path class="st0" d="M1444.41,285.25h-48.49c18.24-0.14,29.42-7.34,37.12-17.7c3.6-4.85,11.38-2.06,11.38,3.98V285.25z"/>
	<path class="st0" d="M1430.21,250.96l-34.29,34.29c12.8-13,15.62-25.99,13.73-38.76c-0.88-5.97,6.59-9.5,10.86-5.23L1430.21,250.96
		z"/>
	<path class="st0" d="M1420.5,337.67c-4.27,4.27-11.74,0.74-10.86-5.23c1.89-12.77-0.94-25.77-13.73-38.76l34.29,34.29
		L1420.5,337.67z"/>
	<path class="st0" d="M452.99,271.52c0-6.04,7.77-8.83,11.38-3.98c7.7,10.37,18.88,17.56,37.12,17.7h-48.49V271.52z"/>
	<path class="st0" d="M452.99,293.67h48.49c-18.24,0.14-29.42,7.34-37.12,17.7c-3.6,4.85-11.38,2.06-11.38-3.98V293.67z"/>
	<path class="st0" d="M467.19,327.97l34.29-34.29c-12.8,13-15.62,25.99-13.73,38.76c0.88,5.97-6.59,9.5-10.86,5.23L467.19,327.97z"
		/>
	<path class="st0" d="M476.89,241.25c4.27-4.27,11.74-0.74,10.86,5.23c-1.89,12.77,0.94,25.77,13.73,38.76l-34.29-34.29
		L476.89,241.25z"/>
	<path class="st0" d="M592.64,260.59c2.14,0,3.87,1.73,3.87,3.87c0,2.14-1.73,3.87-3.87,3.87h-21.01v41.64
		c0.01,1.39-0.72,2.68-1.93,3.38c-1.2,0.7-2.69,0.7-3.89,0c-1.2-0.7-1.94-1.99-1.93-3.38v-41.64h-21.01c-2.14,0-3.87-1.73-3.87-3.87
		c0-2.14,1.73-3.87,3.87-3.87H592.64z"/>
	<path class="st0" d="M703.42,308.05l-26.13-45.25c-0.64-1.36-2.01-2.23-3.51-2.23c-1.5,0-2.87,0.87-3.51,2.23l-26.13,45.25
		c-1.07,1.85-0.43,4.22,1.42,5.29c1.85,1.07,4.22,0.43,5.29-1.42l6.05-10.47h33.77l6.05,10.47c1.07,1.85,3.44,2.49,5.29,1.42
		C703.85,312.27,704.49,309.9,703.42,308.05z M661.36,293.7l12.41-21.5l12.42,21.5H661.36z"/>
	<path class="st0" d="M831.84,299.92c-1.11-1.83-3.49-2.41-5.32-1.3c-3.7,2.24-6.55,2.5-9.04,2.03c-0.69-0.13-1.38-0.32-2.04-0.55
		c2.36-3.88,3.61-8.34,3.61-12.89c0-15.32-13.85-26.98-29.93-26.98s-29.93,11.65-29.93,26.98s13.85,26.98,29.93,26.98
		c8.1,0,15.64-2.96,21.13-7.86c1.85,0.88,3.8,1.53,5.81,1.93c4.47,0.84,9.25,0.15,14.48-3.02
		C832.37,304.13,832.95,301.75,831.84,299.92z M808.48,296.57c-2.85-1.66-6.28-3.64-10.08-4.46c-4.33-0.94-8.95-0.37-13.95,2.71
		c-1.82,1.12-2.38,3.51-1.26,5.33c1.12,1.82,3.51,2.39,5.33,1.26c3.34-2.06,5.92-2.24,8.24-1.73c1.98,0.43,3.91,1.37,6.14,2.62
		c-3.73,2.58-8.47,4.15-13.77,4.15c-12.7,0-22.18-9.03-22.18-19.23c0-10.2,9.48-19.23,22.18-19.23s22.19,9.03,22.19,19.23
		C811.29,290.54,810.31,293.79,808.48,296.57z"/>
	<path class="st0" d="M894.7,260.59c2.14,0,3.87,1.73,3.87,3.87v24.06c0,9.73,7.85,17.58,17.49,17.58c9.64,0,17.49-7.86,17.49-17.58
		v-24.06c0.02-2.13,1.74-3.84,3.87-3.84c2.13,0,3.86,1.72,3.87,3.84v24.63c0,0.12-0.01,0.25-0.02,0.37
		c-0.49,13.54-11.58,24.39-25.22,24.39c-13.64,0-24.72-10.85-25.21-24.39c-0.01-0.12-0.02-0.24-0.02-0.37v-24.63
		c0-1.03,0.41-2.01,1.13-2.74C892.68,261,893.67,260.59,894.7,260.59"/>
	<path class="st0" d="M1009.28,260.59h39.29c2.14,0,3.87,1.73,3.87,3.87c0,2.14-1.73,3.87-3.87,3.87h-35.42v13.14h35.42
		c2.13,0.02,3.84,1.74,3.84,3.87c0,2.13-1.72,3.86-3.84,3.87h-35.42v16.88h35.42c2.13,0.02,3.84,1.74,3.84,3.87
		c0,2.13-1.72,3.86-3.84,3.87h-39.29c-1.03,0-2.01-0.41-2.74-1.13c-0.73-0.73-1.13-1.71-1.13-2.74v-45.51
		C1005.41,262.32,1007.14,260.59,1009.28,260.59"/>
	<path class="st0" d="M1165.25,307.88l-10.16-15.85c7.43-2.63,11.88-10.23,10.54-18c-1.34-7.77-8.07-13.44-15.95-13.44h-30.15
		c-2.14,0-3.87,1.73-3.87,3.87v45.51c-0.01,1.39,0.73,2.68,1.93,3.38c1.2,0.7,2.69,0.7,3.89,0c1.2-0.7,1.94-1.99,1.93-3.38v-17.01
		h23.08l12.25,19.1c0.75,1.17,2.06,1.85,3.44,1.79c1.38-0.06,2.63-0.86,3.26-2.09C1166.08,310.52,1166,309.05,1165.25,307.88z
		 M1148.53,285.22h-25.13v-16.88h26.28c4.65,0.02,8.4,3.8,8.4,8.44c0,4.65-3.76,8.42-8.4,8.44H1148.53z"/>
	<path class="st0" d="M1233.05,260.59c2.14,0,3.87,1.73,3.87,3.87v45.51c0,2.14-1.73,3.87-3.87,3.87c-2.14,0-3.87-1.73-3.87-3.87
		v-45.51C1229.18,262.32,1230.91,260.59,1233.05,260.59"/>
	<path class="st0" d="M1357.53,308.05l-26.13-45.25c-0.64-1.36-2.01-2.23-3.51-2.23c-1.5,0-2.87,0.87-3.51,2.23l-26.13,45.25
		c-1.07,1.85-0.43,4.22,1.42,5.29c1.85,1.07,4.22,0.43,5.29-1.42l6.05-10.47h33.77l6.05,10.47c1.07,1.85,3.44,2.49,5.29,1.42
		C1357.96,312.27,1358.6,309.9,1357.53,308.05z M1315.47,293.7l12.42-21.5l12.42,21.5H1315.47z"/>
	<path class="st0" d="M134.25,204.97c-42.89,0-70.28-23.57-70.28-76.43c0-53.5,27.6-76.44,70.28-76.44
		c-18.26,0-33.97,36.1-33.97,76.44C100.28,168.88,115.99,204.97,134.25,204.97"/>
	<path class="st0" d="M172.68,70.15c0-9.98-8.49-18.05-17.84-18.05c-9.98,0-18.05,8.07-18.05,18.05c0,9.98,8.07,17.84,18.05,17.84
		C164.61,87.99,172.68,80.13,172.68,70.15"/>
	<path class="st0" d="M172.68,187.14c0-9.98-8.49-18.05-17.84-18.05c-9.98,0-18.05,8.07-18.05,18.05s8.07,17.83,18.05,17.83
		C164.61,204.97,172.68,197.12,172.68,187.14"/>
	<path class="st0" d="M252.71,175.25c0,8.71,0,27.18,10.19,27.6c-13.8,0-40.34-11.04-40.34-37.58V76.53
		c0-12.1-0.64-22.29-7.43-22.29c11.04,0,37.58,6.37,37.58,34.19V175.25z"/>
	<path class="st0" d="M358.87,202.85c-13.8,0-41.83-4.88-41.83-44.16c0-10.62,0.64-52.65,0-65.18c0-18.05-1.49-38.85-11.68-39.28
		c13.8,0,41.83,5.09,41.83,44.37v65.18C347.19,181.83,348.68,202.43,358.87,202.85"/>
	<path class="st0" d="M358.87,127.69c24.2,0,34.4-14.86,34.4-28.24v56.48C393.26,142.56,383.07,127.69,358.87,127.69"/>
	<path class="st0" d="M411.1,54.23v36.52c-7.01-19.11-16.98-36.52-44.16-36.73L411.1,54.23z"/>
	<path class="st0" d="M411.1,166.12v36.73h-44.16C394.11,202.64,404.09,185.23,411.1,166.12"/>
	<path class="st0" d="M495.38,163.57c0,18.04,1.49,38.85,11.68,39.28c-13.8,0-41.83-5.09-41.83-44.37V93.3
		c0-18.05-1.49-38.64-11.68-39.07c13.8,0,41.83,4.88,41.83,44.16V163.57z"/>
	<path class="st0" d="M559.28,202.85v-36.73c-7.01,19.11-16.98,36.52-44.16,36.73H559.28z"/>
	<path class="st0" d="M633.56,175.25c0,8.71,0,27.18,10.19,27.6c-13.8,0-40.34-11.04-40.34-37.58V76.53
		c0-12.1-0.64-22.29-7.43-22.29c11.04,0,37.58,6.37,37.58,34.19V175.25z"/>
	<path class="st0" d="M723.13,54.23c-27.18,0.21-37.16,17.62-44.16,36.73V54.23H723.13z"/>
	<path class="st0" d="M760.71,88.42c0-27.81-26.54-34.18-37.58-34.18c6.79,0,7.43,10.19,7.43,22.29v88.75
		c0,26.54,26.54,37.58,40.34,37.58c-10.19-0.43-10.19-18.9-10.19-27.6V88.42z"/>
	<path class="st0" d="M812.3,90.96c-7.01-19.11-16.98-36.52-44.16-36.73h44.16V90.96z"/>
	<path class="st0" d="M911.42,204.98c-46.92,0-63.91-39.49-63.91-76.43c0-36.73,16.98-76.44,63.91-76.44
		c-18.26,0-27.6,40.34-27.6,76.44C883.82,164.63,893.16,204.98,911.42,204.98"/>
	<path class="st0" d="M914.39,204.98c46.92,0,63.91-39.49,63.91-76.43c0-36.73-16.99-76.44-63.91-76.44
		c18.26,0,27.6,40.34,27.6,76.44C941.99,164.63,932.65,204.98,914.39,204.98"/>
	<path class="st0" d="M1169.23,163.57c0,18.04,1.49,38.85,11.68,39.28c-13.8,0-41.83-5.09-41.83-44.37V93.3
		c0-18.05-1.49-38.64-11.68-39.07c13.8,0,41.83,4.88,41.83,44.16V163.57z"/>
	<path class="st0" d="M1233.14,202.85L1233.14,202.85c0-9.1-10.52-14.19-17.62-8.49c-6.44,5.17-14.92,8.4-26.54,8.49H1233.14z"/>
	<path class="st0" d="M1311.04,175.25c0,8.71,0,27.18,10.19,27.6c-13.8,0-40.34-11.04-40.34-37.58V76.53
		c0-12.1-0.64-22.29-7.43-22.29c11.04,0,37.58,6.37,37.58,34.19V175.25z"/>
	<path class="st0" d="M1594.25,175.25c0,8.71,0,27.18,10.19,27.6c-13.8,0-40.34-11.04-40.34-37.58V76.53
		c0-12.1-0.64-22.29-7.43-22.29c11.04,0,37.58,6.37,37.58,34.19V175.25z"/>
	<path class="st0" d="M1646.48,128.54c0-36.1-11.47-74.31-29.73-74.31c39.07,0,66.03,30.15,66.03,74.31
		c0,43.52-26.54,74.31-66.03,74.31C1635.02,202.85,1646.48,164.63,1646.48,128.54"/>
	<path class="st0" d="M1789.15,204.98c-46.92,0-63.91-39.49-63.91-76.43c0-36.73,16.98-76.44,63.91-76.44
		c-18.26,0-27.6,40.34-27.6,76.44C1761.55,164.63,1770.89,204.98,1789.15,204.98"/>
	<path class="st0" d="M1792.12,204.98c46.92,0,63.91-39.49,63.91-76.43c0-36.73-16.98-76.44-63.91-76.44
		c18.26,0,27.6,40.34,27.6,76.44C1819.72,164.63,1810.38,204.98,1792.12,204.98"/>
	<path class="st0" d="M1505.3,202.85h-25.48c-27.18,0-31.21-15.92-49.9-53.08c-6.16-12.31-15.5-30.78-21.87-43.1
		c-17.84-34.4-22.29-52.44-44.16-52.44h32.69c27.18,0,27.6,11.89,46.29,49.47c6.37,12.74,14.86,30.36,25.05,51.81
		C1484.49,190.54,1493.84,202.85,1505.3,202.85"/>
	<path class="st0" d="M1514.22,54.23c0,0-26.72,7.1-26.72,50.36l-0.91,90.2l-1.35-3.04l-0.78-86.82c0,0,0.97-41.62-26.72-50.7
		H1514.22z"/>
	<path class="st0" d="M1420.16,202.85h-56.48c13.38,0,28.24-15.5,28.24-49.26C1391.92,187.35,1406.79,202.85,1420.16,202.85"/>
</g>
</svg>
