<?xml version="1.0" encoding="UTF-8"?>
<svg id="Capa_1" data-name="Capa 1" xmlns="http://www.w3.org/2000/svg" version="1.1" viewBox="0 0 482.4 482.4">
  <defs>
    <style>
      .cls-1 {
        fill: none;
        stroke: #fff;
        stroke-linecap: round;
        stroke-linejoin: round;
        stroke-width: 1.5px;
      }

      .cls-2 {
        font-size: 13.2px;
      }

      .cls-2, .cls-3, .cls-4 {
        fill: #fff;
      }

      .cls-3 {
        stroke-width: 0px;
      }

      .cls-4 {
        font-family: Montserrat-Black, Montserrat;
        font-size: 69px;
        font-weight: 800;
      }
    </style>
  </defs>
  <path class="cls-3" d="M34.2,144.3c.2-2.1.6-4.2,1.5-6.1,2.3-4.7,6.7-5.2,11.4-5.5,3-.2,6-.4,9-.7,6-.6,11.9-1.5,17.8-2.6,11.8-2.3,23.3-5.6,34.5-9.9s22-9.6,32.3-15.7c2.5-1.5,29.6-19.8,28.7-20.9,28.3,35.7,73.3,54.1,118,62.8-38.8,3.9-78.9-5.2-112.2-25.5-2.7-1.7-5.6-3.4-8.7-3.6-4-.2-7.5,2.3-10.8,4.6-23.4,16-50.7,26.2-78.8,29.5-7.5.9-16.1,1.9-20.1,8.2-1.8,2.8-2.4,6.2-2.7,9.5-.9,8.5-.9,17.1-.7,25.7.5,24.1,2.1,48.3,7.2,71.9,11.2,51.8,40.2,99.7,80.9,133.6-39.1-23.1-71-58.2-90.2-99.4-7.3-15.6-12.8-32-16.3-48.9-7.4-34.7-3.8-70-.8-104.9,0-.7.1-1.4.2-2.1Z"/>
  <text class="cls-4" transform="translate(253.4 253.3)"><tspan x="0" y="0">SSO</tspan></text>
  <text class="cls-2" transform="translate(228.9 281.4)"><tspan x="0" y="0">Salud y Seguridad Ocupacional</tspan></text>
  <path class="cls-1" d="M204.1,261.9c73.1.2,174.9.2,247.9,0"/>
  <g>
    <path class="cls-3" d="M126,248.3c7.9-8.7,20.9-14.1,29.3-14.3,10.3-.3,16.4,5.6,16.7,13.8.1,4.8-1.1,9-6.4,14.7-4.4,5.1-6.5,6-6.9,6-.4,0-.6-.2-.6-.5,0-.3,0-.6.1-.7.5-.5.9-1,1.4-1.5,1.8-2,2-2.3,3.1-4.1,2-3.6,2.5-5.9,2.5-8.8-.3-9.1-7.4-15.3-16.2-15-11.1.3-24.4,14.2-23.9,32.4,0,2.6.4,4.9.9,7,9.2,10.1,22.1,16.8,36.6,17.9,10.7-3.6,18.6-13.5,18.2-27.6-.1-3.7-.6-7.1-1.8-10.8l-3.8-12.5c-2.6-8.8-3.2-13.6-3.3-17.6-.4-12.8,4.1-22.1,12.5-29.2,2.7-2.3,5.7-4.1,8.7-5.5-7.8-4.3-16.8-6.7-26.4-6.7-30.4,0-55,24.6-55,55s1.9,16.3,5.2,23.4c1.6-5.6,4.7-10.7,9-15.4"/>
    <path class="cls-3" d="M206.7,226.8c-1.1,0-2.2,0-2.9-.2-.2,0-.6-.2-.7-.5,0-.3.3-.5.7-.5h1c4.3-.2,9.3-3.7,11.5-9.5-4.5-9.3-11.6-17.1-20.3-22.5-6.3,3.1-11.2,10-10.9,17.3.1,3.6,1.5,10.3,4.1,15.8l4.3,9.7c5,10.6,5.7,16.4,5.9,21.2.6,19.9-13.5,29.3-18.1,32.3-3.2,2.1-6.6,3.9-10.2,5.3,28.5-2.1,50.9-25.9,50.9-54.9s-1.1-12.3-3-18c-3.3,2.7-7.6,4.3-12.2,4.5"/>
  </g>
  <path class="cls-3" d="M213.4,288.3c-.8-1.4-.9-2.9-.6-4.3-11.5,11.9-27.6,19.3-45.5,19.3-34.9,0-63.2-28.3-63.2-63.2s28.3-63.2,63.2-63.2,23.6,3.5,33.3,9.5c0-.6,0-1.3.2-1.9l3.1-11.7c.7-2.6-.4-5.3-2.7-6.7-2.2-1.3-4.4-2.5-6.8-3.6-2.5-1.2-5.4-.6-7.2,1.5l-8,9.2c-3.2,3.7-9.3,2.2-10.4-2.6l-2.8-11.9c-.6-2.7-3-4.6-5.7-4.7-2.2,0-4.9,0-7.3,0-2.8,0-5.2,2-5.8,4.7l-2.8,11.9c-1.1,4.8-7.2,6.3-10.4,2.6l-8-9.2c-1.8-2.1-4.7-2.7-7.2-1.5-2.3,1.1-4.6,2.3-6.8,3.6-2.3,1.4-3.4,4.1-2.7,6.7l3,11.7c1.2,4.8-3.5,8.9-8.1,7.1l-10.8-4.3c-2.6-1-5.5-.2-7.1,2.1-1.5,2.1-3,4.3-4.4,6.6-1.4,2.3-1.1,5.2.7,7.2l7.7,8.5c3.3,3.7,1.1,9.5-3.8,10.1l-10.6,1.1c-2.8.3-5,2.5-5.3,5.3-.3,2.6-.6,5.5-.8,8-.2,2.7,1.4,5.2,4,6.2l9.8,3.6c4.6,1.7,5.4,7.9,1.3,10.7l-8.2,5.5c-2.3,1.5-3.2,4.4-2.3,7,1,2.8,2.1,5.5,3.3,8.1,1.1,2.4,3.7,3.8,6.3,3.4l9.6-1.3c4.9-.7,8.5,4.5,6.1,8.9l-4.3,8c-1.3,2.4-.8,5.4,1.2,7.3,2.2,2.1,4.5,4.1,6.9,5.9,2.1,1.6,5,1.7,7.2.1l7.3-5.2c4-2.9,9.6,0,9.5,5v8.7c-.2,2.7,1.6,5.1,4.2,5.9,3,.9,6,1.6,9.1,2.2,2.6.5,5.2-.8,6.4-3.2l3.9-7.7c2.2-4.4,8.5-4.4,10.8,0l3.9,7.7c1.2,2.4,3.8,3.7,6.4,3.2,3.1-.6,6.1-1.3,9.1-2.2,2.6-.8,4.3-3.2,4.3-5.9v-8.7c-.2-4.9,5.4-7.9,9.4-5l7.3,5.2c2.2,1.5,5.1,1.5,7.2-.1,2.4-1.9,4.7-3.8,6.9-5.9,2-1.9,2.5-4.9,1.2-7.3l-4.3-8Z"/>
</svg>