<svg enable-background="new 0 0 3717 3717" viewBox="0 0 3717 3717" xmlns="http://www.w3.org/2000/svg"><g fill="#fff"><path d="m1901.14 539.06c18.84 3.97 37.69 7.94 58.93 12.41-5.85 22.06-11.41 43.01-17.26 65.11-20.34-3.47-39.69-6.76-61.49-10.48 2.3-22.59 4.55-44.82 6.81-67.04z"/><path d="m2311.97 1619.94c-95.05-19.3-187.48-37.3-279.45-57.42-17.67-3.87-35.69-13.43-49.75-24.99-36.8-30.25-71.48-63.08-107.04-94.84-5.55-4.96-11.33-9.67-17.82-15.2-31.67 28.37-64.02 54.1-92.43 83.63-35.27 36.65-77.42 53.96-126.73 62.18-73.08 12.18-145.37 29.07-218.19 42.95-12.54 2.39-15.79 8.24-15.99 19.18-2.55 137.8-1.32 275.27 35.23 409.68 2.06 7.57 5.68 15.28 10.47 21.46 60.13 77.49 120.41 154.85 181.1 231.9 20.12 25.55 29.73 53.71 25.89 86.14-13.23 111.85-25.9 223.77-40.01 335.51-7.64 60.57-64.67 100.69-127.88 92.29-57.11-7.59-99.62-63.48-93.45-121.21 8.52-79.7 15.91-159.51 24.2-239.24 1.27-12.22-1.77-21.03-10.51-30.23-58.57-61.68-116.3-124.16-174.71-186-8.07-8.54-17.58-16.31-27.74-22.14-18.85-10.82-31.8-4.06-34.51 17.11-6.88 53.7-13.36 107.45-20.09 161.17-14.76 117.66-29.58 235.31-44.36 352.96-6.48 51.58-12.16 103.27-19.62 154.71-8.26 56.95-57.44 95.52-115.1 92-58.04-3.54-102.48-47.19-102.68-105.34-.15-41.59 4.54-83.23 7.65-124.81 6.96-92.9 14.12-185.78 21.49-278.65 8.06-101.5 16.46-202.98 24.65-304.47 1.08-13.34 1.8-26.71 2.73-40.72-9.97-1.36-18.64-1.64-26.83-3.8-44.7-11.8-69.45-42.68-78.08-86.46-17.69-89.72-35.18-179.51-50.48-269.65-3.4-20.03 1.31-41.87 4.59-62.51 10.27-64.64 19.48-129.56 33.27-193.48 10.75-49.84 32.91-95.29 75.37-127.42 7.73-5.85 15.87-11.64 24.67-15.53 93.95-41.57 190.64-73.47 295.04-64.17 39.39 3.51 80.4 11.24 116.24 27.08 56.52 24.99 112.45 25.89 171.18 16.78 36.88-5.73 74.32-7.79 111.36-12.6 10.3-1.34 21.32-4.72 29.9-10.37 57.01-37.52 113.45-75.9 170.07-114.02 33.38-22.48 76.79-21.25 109.93 1.32 57.74 39.32 116.03 77.84 174.31 116.35 5.18 3.42 11.9 5.49 18.13 6.19 62.42 7.01 124.8 14.71 187.4 19.64 18.65 1.47 38.44-3.33 56.84-8.41 44.23-12.2 87.17-30.72 132.04-38.61 80.54-14.17 159.57-.26 236.37 26.4 19.93 6.92 39.45 15 59.44 21.72 60.12 20.21 96.57 63.18 118.15 121 20.25 54.26 26.84 111.32 35.33 168.03 4.01 26.76 7.28 53.69 12.95 80.11 5.71 26.6-1.08 51.57-5.87 77.01-14.5 77.11-28.72 154.27-43.55 231.32-11.14 57.87-42.33 85.66-104.89 93.96-.33 2.77-1.23 5.85-.99 8.84 9.06 111.2 18.44 222.38 27.32 333.59 7.24 90.7 13.87 181.45 20.85 272.17 2.83 36.71 5.09 73.5 8.99 110.1 6.55 61.34-27.31 113.23-84.17 127.11-54.15 13.22-111.85-16.41-129.06-69.56-7.73-23.85-9.15-49.87-12.36-75.05-16.24-127.3-32.17-254.64-48.11-381.98-9.15-73.07-17.76-146.22-27.58-219.2-1.54-11.42-5.18-26.89-13.26-32.1-13.23-8.54-27.49 2.37-37.3 12.25-30.16 30.34-59.29 61.71-88.65 92.84-32.71 34.67-65.05 69.69-97.95 104.17-8.69 9.1-12.82 17.76-11.3 31.34 8.29 74.27 14.87 148.73 22.79 223.05 6.67 62.56-16.54 109.42-65.75 130.08-72.47 30.43-146.99-16.42-156.48-97.89-12.53-107.57-25.78-215.06-38.28-322.63-3.52-30.33 4.46-58 23.37-82.23 60.35-77.31 120.93-154.45 180.84-232.1 6.98-9.04 12.31-20.41 15.03-31.52 25.1-102.55 37.5-206.51 34.01-312.27-1.16-35.12-.19-70.29-.19-106.5zm-1012.11-212.26c-1.32 4.24-2.95 8.76-4.13 13.4-15.96 62.36-32.39 124.61-47.37 187.21-3.51 14.68-9.06 21.48-24.53 20.66-9.05-.48-18.64.68-27.31 3.33-13.57 4.15-18.91-2.26-24.65-13.2-36.5-69.47-73.84-138.49-110.41-207.92-5.24-9.94-10.45-13.29-21.44-8.99-21.14 8.27-42.34 16.78-64.18 22.78-53.83 14.81-84.79 51.64-96.88 103.53-12.01 51.52-20.68 103.92-28.59 156.27-5.5 36.42-15.68 72.04-7.23 110.52 17.4 79.24 30.91 159.33 46.14 239.04 3.61 18.91 15.92 32.21 30.6 33.74 8.53.89 14.43-.75 15.52-11.38 6.24-61.4 16.57-122.62 18.73-184.14 3.63-103.34 2.17-206.87 2.82-310.31.1-16.01.01-32.02.01-49.32h65.67c.5 3.86 1.21 7.03 1.28 10.21 1.15 54.15 1.73 108.32 3.4 162.45 3.7 119.53-10.63 237.84-22.12 356.43-10.71 110.5-19.17 221.21-28.24 331.86-7.44 90.68-14.35 181.4-21.44 272.1-5.9 75.59-11.96 151.17-17.45 226.78-2.1 28.92 13.71 49.12 38.27 50.98 25.15 1.9 42.93-14.67 46.55-43.4 4.39-34.92 8.78-69.83 13.13-104.75 23.1-185.35 46.13-370.7 69.3-556.03 7.07-56.57 55.44-90.25 109.78-76.1 26.97 7.02 48.76 22.9 67.63 43.06 67.01 71.56 134.17 142.99 200.82 214.89 4.45 4.8 7.59 13.24 7.18 19.71-1.84 28.62-5.23 57.14-8.02 85.7-6.16 63.06-12.72 126.09-18.23 189.21-2.38 27.25 14.21 47.32 38.16 49.18 26.09 2.03 44.58-14.06 47.99-41.79 3.77-30.63 7.58-61.26 11.26-91.9 9.12-75.79 18.07-151.6 27.36-227.37 2.1-17.14-2.19-31.32-13.07-45.12-63.42-80.4-126.23-161.28-189.15-242.08-3.29-4.22-7.21-8.78-8.3-13.75-16.94-77.14-37.48-153.89-39.4-233.35-2.07-85.54-1.41-171.15-1.86-256.73-.14-26.82-.02-53.64-.02-79.65h69.77v34.68c5.62-.41 9.93-.28 14.05-1.1 80.64-16.22 161.29-32.42 241.84-49.06 8.22-1.7 17.47-4.38 23.51-9.7 62.96-55.56 125.5-111.6 187.79-167.91 12.97-11.73 13.41-25.59 3.38-37.48-9.71-11.51-23.58-12.67-37.76-3.15-62.06 41.67-124.06 83.41-186.27 124.85-4.69 3.12-10.69 5.21-16.31 5.86-56.48 6.52-112.96 13.05-169.53 18.68-25.73 2.56-52.2 7.07-77.35 3.59-30.11-4.2-59.18-15.97-90.7-25.02zm1390.68 104.85c21.83 0 39.14.43 56.41-.16 10.58-.36 13.73 2.91 13.34 14.02-1.57 44.93-1.25 89.93-2.87 134.86-4.75 132.04 9.75 262.83 23.86 393.71 1.65 15.32 10.19 15.13 20.03 12.04 18.55-5.83 24-21.67 27.24-38.91 13.62-72.32 27.74-144.54 40.97-216.93 3.76-20.57 8.73-41.92 6.84-62.33-3.94-42.51-11.88-84.66-18.54-126.9-7.16-45.43-13.8-91.04-35.46-132.62-12.65-24.28-30.01-44.11-55.93-54.24-29.71-11.61-60.11-21.43-89.88-32.9-11.22-4.32-16.09-.77-21.29 9.11-36.84 69.91-74.37 139.45-111.34 209.29-5.09 9.62-9.87 15.23-22.35 11.95-11.91-3.13-24.89-2.13-36.92-4.99-5.34-1.27-12.29-6.76-13.73-11.71-8.4-29.09-15.37-58.6-22.85-87.96-10.24-40.22-20.5-80.43-31.2-122.36-16.74 6.1-31.52 12.93-47.05 16.79-21.88 5.44-44.6 13.31-66.45 11.95-58.85-3.67-117.34-12.94-176.16-17.52-38.26-2.98-72.51-12.45-102.97-37-20.15-16.24-43.08-29.02-64.87-43.21-3.37-2.19-7.24-3.61-8.57-4.26-13.49 17.62-25.8 33.69-39.03 50.96 39.76 35.45 79.99 71.57 120.64 107.2 4.13 3.62 10.67 5.05 16.35 6.23 62.53 12.91 125.1 25.59 187.68 38.26 23.66 4.79 47.36 9.36 73.15 14.45 0-13.49 0-24.46 0-36.59h66.8c.64 10.07 1.6 19.21 1.75 28.36.55 35.22.43 70.45 1.28 105.66 3.18 131.3 1.44 262.13-30.63 390.71-7.08 28.38-14.17 55.18-33.73 79.21-59.51 73.11-116.4 148.34-174.78 222.37-10.42 13.21-14.87 26.65-12.83 43.49 11.68 96.22 22.79 192.5 34.13 288.76 1.27 10.75 2.46 21.53 4.18 32.21 4.67 29.03 23.43 44.48 49.97 41.5 24.04-2.7 39.43-23.94 36.67-52.34-8.77-90.01-18.1-179.97-26.69-269.99-.58-6.1 1.17-14.42 5.11-18.66 70.44-75.8 140.84-151.66 212.72-226.09 13.4-13.87 32.03-24.63 50.25-31.55 54.95-20.88 108.58 11.58 116.31 69.84 13.88 104.65 26.54 209.46 39.73 314.21 14.75 117.12 29.67 234.21 44.22 351.36 3.38 27.19 20.59 43.44 46.04 41.85 23.31-1.45 40.64-21.73 38.82-47.49-4.07-57.8-8.95-115.55-13.47-173.32-8.24-105.28-16.31-210.58-24.73-315.85-6.91-86.39-13.62-172.79-21.54-259.09-7.18-78.17-19.13-156.04-23.08-234.34-4.99-98.91-4.1-198.12-5.53-297.2-.36-27.48-.02-54.99-.02-83.84zm-208.47-128.57c12.03 47.46 23.17 91.44 35.5 140.13 25.95-48.51 49.72-92.95 74.96-140.13-37.75 0-72.79 0-110.46 0zm-1285.62 135.36c1.26-.03 2.53-.06 3.79-.08 11.1-43.9 22.21-87.79 33.65-133.01-37.28-6.98-72.03-7.27-109.25-1.25 24.8 46.39 48.31 90.37 71.81 134.34z"/><path d="m3004.43 3086.78c-764.3 0-1526.59 0-2290.67 0v90.69c-23 0-44.28 0-67.34 0 0-52.14 0-104.76 0-158.93h571.95c0-61.29 0-121.09 0-182.55h1277.39v181.06h574.82v160.9c-21.38 0-42.75 0-66.15 0-0-30.21-0-60.2-0-91.17zm-576.65-182.82c-380.79 0-759.76 0-1139.15 0v113.07h1139.15c0-38.08 0-75.19 0-113.07z"/><path d="m2378.64 1081.69c5.62-26.85 8.72-54.54 17.32-80.4 24.69-74.22 88.43-106.08 160-98.99 77.94 7.72 122.55 50.45 138.72 127.62 14.91 71.17 3.72 136-48.43 189.6-67.61 69.49-143.69 69.24-211-.42-36.61-37.91-54.6-83.8-56.61-137.41zm67.81-.78c2.29 42.71 18.84 76.6 50.55 103.05 31.87 26.59 60.23 25.3 91.33-2.37 49.7-44.23 55.05-107.73 29.95-166.5-13.95-32.68-42.05-45.14-75.93-45.5-34.47-.36-63.8 11.46-77.84 44.75-8.86 20.99-12.23 44.3-18.06 66.57z"/><path d="m1335.66 1083.37c-2.99 79.41-37.55 138.01-106.72 174.63-37.75 19.98-76.18 17.4-113.35-3.13-71.89-39.7-110.22-119.16-97.15-203.29 3.05-19.62 7.59-39.46 14.81-57.88 27.36-69.74 88.48-97.58 155.61-91.66 80.58 7.1 130.74 57.08 142.26 137.47 2.14 14.95 3.14 30.07 4.54 43.86zm-252.32-1.97c-.55 36.24 12.7 66.72 37.01 92.7 35.33 37.75 71.46 38.37 108.14 2 37.98-37.65 45.01-83.36 33.85-133.41-10.98-49.25-39.71-73.21-86.91-73.25-46.67-.04-76.27 24.73-86.78 73.47-2.72 12.63-3.59 25.66-5.31 38.49z"/><path d="m2150.18 666.04c15.16 20 29.37 38.76 45.15 59.59-20.34 12.52-39.24 24.16-58.43 35.97-12.7-16.89-24.6-32.72-37.22-49.5 16.38-14.93 32.6-29.73 50.5-46.06z"/><path d="m1587.61 1222.11c16.55-17.7 31.49-33.67 46.72-49.95 16.73 12.89 32.36 24.92 49.05 37.77-11.86 18.77-23.52 37.24-36.57 57.89-20.15-15.55-39.07-30.16-59.2-45.71z"/><path d="m2044.59 1202.04c15.95-13.53 31.12-26.41 47.37-40.2 14.97 16.11 29.9 32.19 46.42 49.97-17.03 14.44-34.95 29.64-54.7 46.39-13.96-20.04-26.47-38.02-39.09-56.16z"/><path d="m1561.69 1072.35c10.68 17.99 20.53 34.59 31.51 53.1-17.53 12.92-35.07 25.85-55.02 40.55-13.08-22.01-25.28-42.53-38.23-64.31 21.65-10.28 41.03-19.5 61.74-29.34z"/><path d="m1607.47 626.4c21.12-14.13 40.62-27.18 62.06-41.52 11.57 21.08 22.05 40.19 32.87 59.91-16.93 11.4-33.34 22.45-51.42 34.63-13.75-16.76-27.63-33.68-43.51-53.02z"/><path d="m1606.77 722.8c-12.14 17.72-23.06 33.66-35.03 51.13-19.29-10.71-38.37-21.31-59.69-33.15 14.15-20.84 27.37-40.31 41.94-61.77 18.19 15.09 34.95 29.01 52.78 43.79z"/><path d="m2094.9 615.62c-15.01 20.01-27.92 37.23-41.1 54.8-17.49-10.61-34-20.63-52.72-31.99 9.3-19.43 18.73-39.14 29.49-61.61 21.53 12.98 42.02 25.34 64.33 38.8z"/><path d="m2130.94 1113.89c10.2-19.09 19.32-36.18 29.11-54.5 20.11 8.35 39.87 16.56 62.95 26.14-11.6 22.11-22.7 43.24-34.88 66.45-20.12-13.4-38.31-25.52-57.18-38.09z"/><path d="m1546.76 830.73c-4.53 20.17-8.75 38.96-13.46 59.92-21.24-2.62-42.35-5.23-67.15-8.28 5.24-24.56 10.2-47.79 15.56-72.92 23 7.52 43.68 14.29 65.05 21.28z"/><path d="m2228.3 792.84c6.74 24.78 12.87 47.34 19.58 71.98-24.12 4.26-45.48 8.03-67.13 11.85-5.51-19.91-10.64-38.45-16.41-59.32 20.23-7.75 40.47-15.5 63.96-24.51z"/><path d="m1811.74 540.27c2.89 24.65 5.38 45.89 7.9 67.38-20.45 4.37-39.35 8.41-60.11 12.85-6.72-20.98-13.39-41.79-20.85-65.07 24.82-5.15 48.2-10 73.06-15.16z"/><path d="m1474.41 1031.27c-3.8-25.58-7.28-49.06-10.93-73.67 21.93-1.62 40.62-3.38 59.34-4 3.23-.11 8.97 4.19 9.54 7.21 3.19 16.84 5.14 33.92 7.81 53.08-20.52 5.42-41.05 10.85-65.76 17.38z"/><path d="m2245.42 1014.09c-24.02-5.09-45.03-9.54-66.95-14.18 2.38-19.99 4.66-39.08 7.09-59.48h67.81c-2.66 24.62-5.18 47.97-7.95 73.66z"/><path d="m1223.4 1676.5c19.6-.27 34.19 13.7 34.5 33.05.3 18.62-14.92 34.55-33.34 34.9-18.3.34-34.27-15.21-34.65-33.74-.39-18.87 14.36-33.94 33.49-34.21z"/><path d="m2526.39 1710.08c-.04 18.64-15.56 34.4-33.87 34.39-18.33-.01-34.01-15.75-34.15-34.28-.15-18.73 14.97-33.68 34.05-33.69 19.53 0 34.01 14.32 33.97 33.58z"/><path d="m1688.94 945.94c35.08-37.29 91.78-59.9 128.29-60.52 44.87-.75 70.96 25.42 71.56 61.22.34 21.01-5.39 39.25-28.7 63.65-19.5 21.7-28.46 25.57-30.27 25.61-1.96.03-2.71-1.01-2.72-2.38-.04-1.31.21-2.68.67-3.06 2.23-2.01 4.1-4.22 6.23-6.6 7.91-8.55 8.8-9.68 13.55-17.8 8.84-15.61 11.44-25.65 11.2-38.18-.67-39.42-31.18-67.08-69.35-66.43-48.26.83-107.15 60.2-105.81 139.55.2 11.12 1.5 21.28 3.65 30.55 39.32 44.67 95.05 74.6 157.94 80.24 46.89-15.09 81.87-57.47 80.82-118.72-.31-16.1-2.3-30.9-7-46.93l-15.55-54.77c-10.56-38.41-13-59.39-13.28-76.62-.93-55.76 19.38-95.62 56.22-126.19 12.08-9.8 24.92-17.58 38.3-23.46-33.82-19.16-72.77-30.34-114.4-30.93-132.14-1.88-240.8 103.75-242.68 235.91-.52 36.41 7.17 71.04 21.3 102.16 7.48-24.11 20.91-46.32 40.03-66.3"/><path d="m2041.13 857.27c-4.7.06-9.55-.55-12.73-1.08-.9.02-2.8-.75-2.84-2.22-.01-1.18 1.23-1.95 2.94-2.01l4.15-.04c18.56-.32 40.61-15.26 50.73-40.62-19.19-40.56-49.42-74.88-86.91-99.07-27.53 13.25-49.18 42.78-48.65 74.42.25 15.66 6.01 44.99 16.77 68.88l18.21 42.35c20.99 46.3 23.84 71.82 24.17 92.54 1.45 86.48-60.57 126.37-80.58 139.5-13.82 8.85-28.9 16.37-44.75 22.41 123.85-7.52 222.79-109.41 224.58-235.46.39-27.36-3.85-53.72-11.97-78.33-14.55 11.72-33.08 18.39-53.12 18.73"/></g></svg>