<svg enable-background="new 0 0 3717 3717" viewBox="0 0 3717 3717" xmlns="http://www.w3.org/2000/svg"><path d="m2212.18 1274.13c80.53-85.61 210.71-137.52 294.54-138.96 103.03-1.71 162.92 58.37 164.3 140.56.79 48.24-12.39 90.12-65.9 146.13-44.77 49.82-65.34 58.7-69.5 58.8-4.49.07-6.22-2.32-6.25-5.46-.09-3.01.48-6.15 1.54-7.02 5.11-4.61 9.41-9.69 14.3-15.16 18.17-19.63 20.2-22.22 31.11-40.87 20.3-35.85 26.26-58.89 25.72-87.67-1.53-90.51-71.59-154.01-159.22-152.51-110.79 1.9-246.01 138.2-242.93 320.4.46 25.53 3.43 48.86 8.37 70.13 90.28 102.55 218.22 171.27 362.62 184.23 107.66-34.64 187.96-131.95 185.57-272.57-.72-36.97-5.28-70.94-16.06-107.75l-35.69-125.76c-24.24-88.18-29.84-136.35-30.49-175.91-2.15-128.03 44.5-219.53 129.07-289.72 27.74-22.51 57.22-40.37 87.95-53.86-77.64-43.99-167.08-69.67-262.66-71.02-303.38-4.31-552.87 238.19-557.18 541.64-1.19 83.59 16.46 163.09 48.89 234.55 17.17-55.33 48-106.33 91.9-152.2" fill="#fff"/><path d="m3020.79 1070.55c-10.78.14-21.93-1.26-29.22-2.48-2.07.04-6.43-1.73-6.51-5.1-.03-2.72 2.82-4.48 6.75-4.62l9.53-.09c42.6-.74 93.25-35.04 116.48-93.26-44.05-93.11-113.47-171.91-199.54-227.45-63.2 30.42-112.92 98.22-111.69 170.87.57 35.95 13.8 103.3 38.51 158.13l41.8 97.24c48.19 106.31 54.73 164.88 55.5 212.46 3.34 198.55-139.07 290.13-185 320.28-31.74 20.32-66.35 37.59-102.75 51.45 284.36-17.26 511.51-251.2 515.62-540.59.89-62.83-8.83-123.34-27.49-179.83-33.43 26.89-75.98 42.21-121.99 42.99" fill="#fff"/><circle cx="2620.84" cy="1198.78" fill="none" r="627.49" stroke="#fff" stroke-miterlimit="10" stroke-width="36.8529"/><g fill="#fff"><path d="m2714.57 1827.53c-4.6 323.79-9.11 647.59-13.15 971.39-.29 23.27-6.85 26.88-28.26 26.4-130.08-2.93-260.28-2.12-390.3-6.55-232.46-7.91-439.79 58.77-626.77 204.89.56-39.25 1.38-74.61 1.34-109.98-.01-8.99 5.76-11.61 11.51-15.33 125.78-81.22 262.87-130.86 411.78-147.49 127.54-14.25 255.3-2.69 382.96-3.31 41.82-.2 83.64 1.41 125.46 1.51 23.45.06 37.12-13.68 38.45-36.97.35-6.18.22-12.39.31-18.58 4.07-286.34 8.19-572.68 12.14-859.02-10.14.34-20.33.45-30.59.31-14.7-.21-29.26-.93-43.69-2.13-3.91 274.87-7.71 549.73-11.36 824.6-.2 15.12-4.95 17.35-18.51 17.09-111.54-2.12-223.1-3.43-334.65-5.06-187.29-2.73-361.8 43.73-524.43 136.02-4.65 2.64-9.38 5.13-17.78 9.7.15-10.56.26-18.11.36-25.66 6.9-485.67 13.91-971.34 20.21-1457.02.24-18.25 6.09-26.37 22.23-34.3 93.78-46.07 190.14-81.68 289.24-106.69.69-27.14 3.09-53.83 7.1-79.99-112.37 26.06-220.84 65.07-325.31 117.23-21.12 10.55-36.74 9.84-57.02-.99-195.51-104.43-404.52-162.38-625.61-173.85-102.07-5.3-204.5-3.91-306.77-5.29-27.64-.37-40.81 12.91-41.42 40.98-.68 30.98-1.38 61.98-1.14 92.96.09 10.95-2.83 14.69-14.27 14.21-28.63-1.2-57.32-1.1-85.99-1.48-38.28-.51-49.09 10.18-49.64 49.15-3.73 261.85-7.44 523.71-11.16 785.56-3.73 262.63-7.46 525.26-11.18 787.88-.56 39.84 9.76 50.27 50.31 50.85 154.18 2.2 308.36 4.5 462.54 6.5 47.33.62 94.52 4.19 140.97 12.36 178.58 31.42 332.69 110.78 461.17 239.22 25.13 25.12 41.47 25.34 67.52 1 172.7-161.37 377.93-237.5 613.46-234.28 151.86 2.08 303.71 4.3 455.57 6.45 44.48.63 53.67-8.48 54.31-53.88 2.97-209.17 5.94-418.35 8.91-627.52 1.93-135.71 3.88-271.42 5.82-407.14-24.31 6.9-49.24 12.33-74.67 16.25zm-1114.56 1125.03c-5.73-4.76-11.45-9.52-17.15-14.32-1.01 26.87-.74 54.23-1.16 84.39-50.1-41.32-99.38-76.71-152.81-106.06-133.64-73.43-276.22-113.46-429.06-115.56-144.88-2-289.76-4.51-434.65-5.66-18.88-.15-22.08-5.9-21.82-23.27 7.47-493.48 14.51-986.96 20.91-1480.45.25-18.91 5.91-22.42 23.28-21.83 51.85 1.76 51.88 1.04 51.13 53.91-6.37 448.55-12.74 897.1-19.1 1345.65-.59 41.94 9.14 51.98 50.87 52.61 130.16 1.94 260.38 1.91 390.45 6.31 184.08 6.23 353.04 61.57 506.25 164.47 12.33 8.28 17.17 16.78 16.33 31.77-.16 2.77-.27 5.55-.4 8.33 5.67 4.77 11.37 9.51 17.07 14.26 1.05.84-.08 5.5-.14 5.45zm5.88-1630.97c-.24 1.51-.07 3.09-.1 4.64-6.97 491.07-13.94 982.15-20.92 1473.22-.05 3.78-.11 7.56-.21 14.92-98.04-61.59-199.33-105.47-307.93-131.98-69.25-16.91-139.35-28.06-210.79-29.14-116.97-1.78-233.93-3.82-350.91-4.57-17.77-.11-21.11-4.97-20.85-21.92 7.51-494.16 14.53-988.33 21.03-1482.51.23-17.21 4.08-21.71 21.61-21.16 99.07 3.08 198.35.24 297.22 9.33 198.37 18.24 385.34 74.43 560.7 169.19 8.92 4.82 12.67 10.35 11.15 19.98z"/><path d="m2055.93 1476.75c-1.44-3.36-2.75-6.77-3.92-10.24-5.02-14.81-9.8-29.83-14.52-44.79-72.76 18.83-144.34 42.81-214.8 71.69-48.11 19.72-47.26 19.63-27.65 68.61 7.09 17.7 13.69 20.17 31.49 12.37 77.66-34.03 156.86-61.03 237.52-81.32-3.01-5.29-5.73-10.73-8.12-16.32z"/><path d="m2137.99 1593.4c-1.5-1.37-2.99-2.76-4.46-4.17-2.84-2.72-5.61-5.5-8.31-8.36-5.49-5.79-10.69-11.85-15.54-18.18-2.1-2.74-4.13-5.53-6.09-8.37-96.38 20.43-190.68 49.98-283.07 87.84-48.08 19.7-47.22 19.61-27.59 68.65 7.11 17.77 13.79 20.04 31.52 12.29 111.04-48.51 225.09-82.98 341.98-103.79-9.53-8.57-18.98-17.25-28.44-25.91z"/><path d="m2310.6 1738.03c-26.76-16.28-50.28-36.53-73.34-57.47-144.2 17.53-283.77 55-419.25 110.47-47.42 19.41-46.46 19.29-27.72 66.71 7.1 17.97 12.39 22.83 32.46 14.03 161.83-70.97 330.43-111.31 504.9-124.06-5.78-3.05-11.46-6.28-17.05-9.68z"/><path d="m2403.88 1816.4c52.66 1.19 51.92 1.19 51.95 56.27.01 16.37-4.5 20.13-20.51 20.16-213.9.33-419.4 42.16-615.46 128.03-18.32 8.03-24.36 4.23-31.25-12.96-19.46-48.57-20.27-48.48 28.1-68.33 167.48-68.74 341.29-109.85 522.36-119.08 21.62-1.11 43.21-2.72 64.81-4.09z"/><path d="m2453.51 2003.97c-.52 36.63-.52 36.4-37.68 37.06-207.36 3.68-406.84 44.78-597 128.08-19.67 8.62-25.44 4.92-32.7-13.54-18.78-47.76-19.8-47.65 27.33-66.93 167.51-68.56 341.24-109.77 522.29-119.64 31.72-1.73 63.4-1.63 95.04-3.05 19.53-.88 26.76 4.9 23.03 24.11-.86 4.49-.24 9.27-.31 13.91z"/><path d="m2399.65 2113.9c52.67 1.19 51.94 1.19 51.96 56.26.01 16.34-4.46 20.15-20.49 20.17-213.9.32-419.4 42.16-615.46 128.02-18.3 8.01-24.36 4.27-31.26-12.94-19.46-48.59-20.27-48.5 28.09-68.34 167.49-68.74 341.29-109.85 522.36-119.08 21.61-1.12 43.2-2.72 64.8-4.09z"/><path d="m2449.28 2302.25c-.51 35.75-.51 35.56-38.45 36.27-207.34 3.87-406.78 45.01-596.95 128.34-17.76 7.78-24.41 5.42-31.51-12.32-19.62-49.02-20.48-48.92 27.62-68.63 167.5-68.65 341.28-109.64 522.33-119.45 30.94-1.68 61.85-1.63 92.73-2.99 19.7-.87 29.04 3.78 24.56 24.88-.95 4.45-.27 9.26-.33 13.9z"/><path d="m2396.73 2411.32c51.06 1.26 50.55 1.26 50.55 52.99 0 16.11-1.77 23.65-21.7 23.66-213.11.13-417.87 42.1-613.23 127.46-19.91 8.7-25.4 4.4-32.58-13.79-18.77-47.6-19.76-47.5 27.52-66.84 167.52-68.53 341.24-110.04 522.33-119.28 22.38-1.13 44.74-2.78 67.11-4.2z"/><path d="m1528.99 1621.31c-1.01 71.23-1.91 142.46-3.08 213.68-.61 37.34-25.31 54-58.81 38.05-126.58-60.28-258.62-103.43-396.58-128.3-80.04-14.42-160.86-21.47-242.1-24.2-32.67-1.1-44.58-13.1-44.14-45.34 1.97-143.23 4.01-286.46 6.09-429.69.5-34.14 12.56-46.05 46.16-45.58 234.24 3.25 456.34 57.7 667.73 157.83 19.98 9.47 28.67 22.87 28.11 45.22-1.81 72.76-2.35 145.55-3.38 218.33zm-76.71 161.24c.15-10.3.25-17.83.36-25.35 1.48-104.55 2.32-209.12 5.03-313.64.51-19.65-6.28-27.67-23.2-35.16-176.19-77.99-360.41-121.68-552.69-132.53-15.12-.85-17.83 3.34-17.97 17.2-1.08 112.3-2.71 224.59-4.76 336.88-.23 12.51 2.27 16.81 15.9 17.39 148.17 6.31 292.58 33.4 433.35 80.09 48.02 15.93 94.84 35 143.98 55.12z"/><path d="m878.29 1795.86c209.1 9.62 414.5 61.92 610.33 153 11.68 5.43 14.42 11.06 7.56 22.44-9.86 16.34-11.26 43.4-26.9 48.62-13.1 4.37-33.16-11.45-49.91-18.83-144.12-63.43-294.1-104.83-450.88-121.5-43.87-4.67-87.77-8.36-131.83-9.57-13.06-.36-21.11-2.4-17.8-17.74.48-2.22.13-4.63.16-6.95.69-50.97.69-50.97 59.27-49.47z"/><path d="m877.33 1944.65c209.1 9.86 414.49 62.16 610.23 153.49 11.27 5.26 11.76 9.91 6.99 20.86-23.84 54.8-23.45 54.99-76.36 31.48-144.66-64.26-295.45-105.55-453-122.27-43.87-4.65-87.77-8.28-131.83-9.53-12.02-.34-19.38-2.54-16.62-16.54.44-2.24.13-4.63.16-6.95.65-52.09.65-52.09 60.43-50.54z"/><path d="m874.03 2093.36c209.51 9.66 414.9 62.03 610.68 153.2 9.91 4.61 14.75 8.67 8 20.46-9.5 16.62-12.69 42.12-26.36 49.61-14.48 7.93-34.25-10.9-51.45-18.41-144.31-62.97-294.21-104.6-451-121.17-44.64-4.72-89.31-8.43-134.15-9.69-11.62-.33-17.48-3.14-15.13-15.64.42-2.25.13-4.63.15-6.95.63-52.92.63-52.92 59.26-51.41z"/><path d="m871.9 2242.11c209.19 9.62 414.59 61.95 610.42 153.01 11.74 5.46 14.33 11.14 7.5 22.47-9.85 16.35-11.26 43.41-26.91 48.61-13.12 4.35-33.15-11.5-49.92-18.87-144.13-63.4-294.11-104.83-450.88-121.48-44.64-4.74-89.31-8.37-134.14-9.75-11-.34-18.06-2.15-15.49-15.28.59-2.99.17-6.17.21-9.27.68-50.94.68-50.94 59.21-49.44z"/><path d="m870.14 2390.87c209.34 9.69 414.73 62.05 610.5 153.25 10.2 4.75 14.35 8.98 7.77 20.54-9.47 16.62-12.75 42.17-26.42 49.53-14.42 7.77-34.23-11.02-51.47-18.53-144.31-62.94-294.21-104.61-451.02-121.13-44.64-4.7-89.31-8.47-134.15-9.66-11.94-.32-17.15-3.64-14.95-15.82.41-2.25.12-4.63.15-6.95.63-52.75.63-52.75 59.59-51.23z"/></g></svg>