<svg enable-background="new 0 0 3717 3717" viewBox="0 0 3717 3717" xmlns="http://www.w3.org/2000/svg"><g fill="#fff"><path d="m2326.4 2472.19c38.08-40.48 99.62-65.02 139.26-65.7 48.71-.81 77.03 27.6 77.68 66.45.37 22.81-5.86 42.61-31.16 69.09-21.17 23.55-30.89 27.75-32.86 27.8-2.12.03-2.94-1.09-2.95-2.58-.04-1.43.23-2.91.73-3.32 2.42-2.18 4.45-4.58 6.76-7.17 8.59-9.28 9.55-10.51 14.71-19.32 9.6-16.95 12.42-27.85 12.16-41.45-.72-42.79-33.85-72.82-75.28-72.1-52.38.9-116.31 65.34-114.85 151.49.22 12.07 1.62 23.1 3.96 33.16 42.68 48.48 103.17 80.97 171.44 87.1 50.9-16.38 88.87-62.39 87.74-128.87-.34-17.48-2.5-33.54-7.59-50.95l-16.88-59.46c-11.46-41.69-14.11-64.47-14.42-83.17-1.01-60.53 21.04-103.79 61.02-136.98 13.12-10.64 27.05-19.09 41.58-25.46-36.71-20.8-78.99-32.94-124.18-33.58-143.44-2.04-261.39 112.62-263.43 256.09-.56 39.52 7.78 77.11 23.12 110.89 8.11-26.16 22.69-50.28 43.44-71.96"/><path d="m2708.71 2375.94c-5.1.07-10.37-.6-13.82-1.17-.98.02-3.04-.82-3.08-2.41-.01-1.29 1.33-2.12 3.19-2.19l4.51-.04c20.14-.35 44.09-16.57 55.07-44.09-20.83-44.02-53.65-81.28-94.34-107.54-29.88 14.38-53.39 46.44-52.81 80.79.27 17 6.52 48.84 18.21 74.76l19.76 45.98c22.78 50.26 25.88 77.96 26.24 100.45 1.58 93.88-65.75 137.17-87.47 151.43-15.01 9.61-31.37 17.77-48.58 24.33 134.44-8.16 241.84-118.77 243.78-255.59.42-29.7-4.18-58.32-13-85.02-15.79 12.69-35.91 19.93-57.66 20.31"/><path d="m2056.65 1816.92h72.63c15.48-61.34 30.78-122.8 46.54-184.15 13.02-50.7 48.92-78.21 101.43-78.22 160.47-.04 320.94-.05 481.41 0 52.14.02 87.67 27.61 100.88 78.89 15.66 60.81 30.82 121.76 46.67 184.49h24.42c146.07 0 292.13-.05 438.2.02 98.81.05 169.38 70.73 169.4 169.78.06 303.79.06 607.58 0 911.38-.02 99.01-70.65 169.87-169.35 169.88-567.81.05-1135.62.05-1703.43-.01-97.37-.01-168.4-71.21-168.43-168.72-.07-302.42 1.45-604.85-.96-907.26-.69-86.73 61.39-171.96 165.56-176.02 0-21.54-.12-43.27.02-65.01.38-55.99 42.9-98.44 99.13-98.61 65.83-.21 131.67-.24 197.5.01 55.92.21 98.02 42.94 98.36 99.36.13 21.08.02 42.16.02 64.19zm1415.54 989.37c-6.23-.29-10.25-.65-14.27-.65-196.82-.03-393.65-.18-590.47.45-8.97.03-19.58 5.09-26.64 11.1-189.37 161.08-457.22 161.13-646.22.28-7.87-6.69-20.29-11.33-30.6-11.36-193.39-.67-386.79-.5-580.18-.45-6.6 0-13.2.59-21.01.97v79.55c.02 79.16 37.96 117.03 117.31 117.03h1674.72c6.86 0 13.73.2 20.57-.16 53-2.81 93.4-41.06 96.44-93.95 1.91-33.44.35-67.05.35-102.81zm.26-724.97c0-29.32.01-55.35 0-81.39-.02-77.83-38.33-116.2-116.06-116.2-558.95-.01-1117.9 0-1676.84 0-6.86 0-13.73-.21-20.57.19-42.43 2.44-82.94 29.21-89.93 68.73-7.38 41.72-5.93 85.01-8.3 126.87 6.53 1.19 7.86 1.64 9.19 1.64 200.26.07 400.52.23 600.78-.28 7.72-.02 16.77-4.93 22.94-10.2 189.08-161.83 456.51-162.57 646.09-2.07 8.37 7.08 21.43 12.15 32.32 12.19 192.71.73 385.43.53 578.15.53 6.68-.01 13.37-.01 22.23-.01zm-556.42 657h555.44c0-197.37 0-393.26 0-590.02-185.58 0-370.18 0-555.59 0 128.79 197.01 128.87 392.78.15 590.02zm-796.91-589.71c-185.73 0-370.51 0-555.32 0v589.97h555.51c-128.79-197-128.93-392.74-.19-589.97zm399.45 722.85c236.46-2.12 428.99-195.64 426.83-429.02-2.21-238.44-194.26-427.87-432.85-426.92-232.03.92-424.17 196.73-422.88 430.95 1.28 233.25 196.88 427.07 428.9 424.99zm-319.91-1054.35h635.95c0-3.5.55-6.33-.08-8.86-13.53-54.32-26.97-108.66-40.94-162.87-4.6-17.86-18.17-24.97-35.59-24.98-160.34-.1-320.69-.12-481.03.02-19.51.02-32.05 9.4-36.59 29.14-4.59 19.95-10.13 39.69-15.08 59.56-8.85 35.56-17.56 71.15-26.64 107.99zm-207.96-.11c0-22.64.89-43.8-.26-64.85-1.09-20.04-14.39-32.6-35.14-32.78-64.41-.55-128.83-.57-193.23.05-19.8.19-32.97 12.5-34.1 31.55-1.29 21.65-.3 43.43-.3 66.02 88 .01 174.09.01 263.03.01z"/><path d="m2155.49 2443.14c.29-201.5 161.85-362.1 363.95-361.79 201.46.31 360.89 162.93 360.32 367.53-.55 197.82-164.49 357.15-367.05 356.73-196.4-.42-357.51-163.89-357.22-362.47zm363.38-295.98c-159.9-1.77-295.76 131.8-297.5 292.46-1.75 162.33 129.94 297.68 291.88 299.99 163 2.32 298.66-130.13 300.47-293.38 1.81-162.74-130.81-297.26-294.85-299.07z"/><path d="m289.67 2543.16c0-20.96-.34-41.93.17-62.88.19-7.73-1.94-11.49-9.67-14.13-27.52-9.38-54.74-19.64-82.05-29.64-19.98-7.32-23.03-14.08-15.9-34.64 34.62-99.82 69.3-199.61 103.69-299.51 2.34-6.8 3.58-14.34 3.6-21.54.22-117.13.15-234.26.16-351.38 0-19.87 5.79-25.82 25.42-25.87 32.47-.08 64.94-.31 97.4.17 8.63.13 12.83-2.21 15.68-10.85 12.03-36.56 24.92-72.84 37.54-109.21 7.8-22.5 14.61-25.77 36.64-17.82 122.47 44.21 244.91 88.52 367.5 132.42 9.03 3.23 19.08 5.02 28.67 5.05 132.74.32 265.49.21 398.23.22 23.89 0 28.69 4.84 28.7 28.8 0 39.86.31 79.73-.24 119.59-.12 9.02 2.87 12.86 11.18 15.67 27.15 9.18 54.05 19.11 80.99 28.91 19.18 6.98 22.6 14.45 15.88 33.85-34.62 99.84-69.32 199.66-103.72 299.58-2.47 7.18-3.9 15.11-3.91 22.7-.24 117.13-.16 234.26-.18 351.38 0 19.38-6.14 25.54-25.88 25.6-32.88.1-65.76.31-98.63-.17-8.03-.12-11.31 2.67-13.77 10.03-12.19 36.52-24.93 72.86-37.51 109.25-8.05 23.28-14.59 26.42-37.43 18.17-122.53-44.27-245.03-88.62-367.66-132.6-8.27-2.97-17.53-4.44-26.33-4.45-132.33-.28-264.67-.19-397-.2-4.11 0-8.25.23-12.32-.19-12.84-1.32-19.1-8.05-19.2-20.97-.18-21.78-.05-43.56-.05-65.34zm998.07 47.62c0-283.05 0-565.49 0-848.12-320.55 0-640.37 0-960.17 0v848.12zm-522.78-887.78c.06-.74.12-1.47.17-2.21-88.72-32.04-177.44-64.08-266.75-96.33-11.63 33.64-22.69 65.63-34.07 98.54zm85.46 927.14c-.01.71-.02 1.43-.03 2.14 88.6 31.99 177.2 63.98 266.37 96.18 11.63-33.65 22.65-65.55 33.98-98.32-101.11 0-200.71 0-300.32 0zm475.61-511.01c.62.02 1.25.04 1.87.07 21.99-63.53 43.99-127.07 66.17-191.14-23.35-8.36-45.16-16.17-68.04-24.36zm-1036.71 95.06c-.68-.17-1.37-.33-2.05-.5-22 63.52-44.01 127.04-66.24 191.21 23.23 8.32 45.26 16.21 68.29 24.46 0-73.23 0-144.2 0-215.17z"/><path d="m806.24 2536.44c-132.73 0-265.45 0-398.18 0-20.6 0-26.56-5.74-26.56-26.06-.03-229.29-.03-458.57 0-687.86 0-19.91 5.99-25.91 25.46-25.91 267.1-.01 534.19-.01 801.29 0 18.89 0 25.33 6.12 25.33 24.8.05 230.11.05 460.21 0 690.32 0 18.6-6.5 24.69-25.46 24.7-133.96.02-267.92.01-401.88.01zm-385.98-271.33c1.28.86 2.56 1.72 3.84 2.59 2.61-3.66 4.77-7.77 7.9-10.91 93.48-93.65 187.06-187.2 280.63-280.76 17.92-17.92 24.08-17.86 42.35.4 88.34 88.33 176.67 176.67 265.02 264.99 3.09 3.09 6.31 6.04 9.99 9.56 54.32-54.44 107.82-107.86 160.85-161.73 3.35-3.4 4.29-10.37 4.3-15.68.27-75.61.19-151.23.16-226.85 0-3.99-.35-7.98-.56-12.31-258.57 0-516.37 0-774.49 0 .01 144.12.01 287.41.01 430.7zm-.49 234.37c29.42 0 56.9-.3 84.37.19 8.13.15 13.54-2.51 19.04-8.34 66.78-70.84 133.81-141.44 200.77-212.1 14.29-15.08 22.44-15.38 36.99-.87 36.94 36.84 73.79 73.78 110.69 110.65 3.12 3.12 6.43 6.05 8.63 8.12 40.59-40.55 80.57-80.49 120.85-120.72.12.28-.02-.62-.54-1.14-43.22-43.34-86.38-86.74-129.96-129.71-2.22-2.19-9.13-2.37-12.13-.59-18.33 10.89-36.11 22.69-54.17 34.05-15.09 9.49-20.54 8.82-33.31-3.92-12.98-12.97-25.85-26.05-39.01-39.32-19.26 14.45-37.26 28.01-55.33 41.49-15.32 11.43-21.79 11.09-35.02-2.25-12.3-12.4-24.33-25.07-36.28-37.41-3.03 2.26-4.11 2.88-4.96 3.73-58.41 58.36-116.88 116.66-174.97 175.33-3.46 3.5-5.32 10.02-5.41 15.18-.51 28.75-.25 57.51-.25 86.26zm147.87-.74h626.72c0-119.52 0-238.3 0-359-4.65 4.42-7.91 7.39-11.03 10.51-93.87 93.85-187.72 187.71-281.59 281.57-16.79 16.79-23.6 16.73-40.62-.29-36.04-36.03-72.06-72.08-108.11-108.09-3.12-3.12-6.41-6.06-10.06-9.5-58.33 61.48-115.98 122.26-175.31 184.8zm223.72-355.91c16.01-10.27 30.98-19.87 44.21-28.36-34.79-35.23-68.95-69.83-101.3-102.6-33.33 33.29-67.15 67.08-99.73 99.62 8.58 8.78 18.2 18.62 28.03 28.67.03-.01.89-.18 1.53-.65 18.09-13.48 36.12-27.04 54.24-40.48 13.19-9.79 20.54-9.31 32.25 2.37 13.61 13.61 27 27.42 40.77 41.43z"/><path d="m955.55 1981.56c0-51.37 42.25-93.58 93.07-92.99 50.94.59 91.86 42 91.86 92.96 0 51.41-42.22 93.6-93.07 93-50.86-.59-91.86-42.1-91.86-92.97zm92.24 54.73c30.93.07 55.94-24.72 55.64-55.14-.3-30.12-24.82-54.25-55.21-54.32-30.95-.07-55.93 24.69-55.63 55.13.29 30.1 24.83 54.26 55.2 54.33z"/><path d="m1293.42 1338.42c2.22-.72 4.48-1.3 7.34-2.13 20.59 30.85 47.65 53.53 82.76 65.81 7.44 2.6 15.2 6.19 22.77 6.11 17.14-.18 21.93 10.15 24.19 25.64-17 5.94-34.17 12.88-51.87 17.92-49.47 14.1-74.64 69.94-56.17 116.72 13.17 33.35 23.94 67.65 35.95 102.14l33.57-11.72c-11.69-33.56-23.47-67.1-35.11-100.68-11.89-34.3 1.12-61.32 35.17-73.29 17.51-6.16 35.04-12.24 52.55-18.35 20.53 25.28 45.63 35.12 74.87 25.54 31.31-10.26 45.37-34.83 45.67-67.61 17.15-5.99 33.91-11.91 50.74-17.62 2.47-.84 5.47-1.4 7.91-.8 14.9 3.68 29.81 7.41 44.48 11.93 2.85.88 5.23 4.96 6.76 8.09 2.23 4.54 3.5 9.56 5.71 15.89-16.83 5.87-32.84 12.54-49.44 17.06-51.2 13.92-77.43 70.8-56.87 117.77 2.15 4.91 3.66 10.12 5.79 16.38l33.02-11.52c-3.19-11.39-7.23-22.1-8.8-33.15-3.31-23.43 8.95-44.13 31.07-52.81 19.09-7.49 38.7-13.68 58.31-20.53 20.11 23.38 44.27 34.55 74.72 23.97 30.52-10.6 42.32-34.47 43.53-65.27 19.62-6.85 38.82-14.19 58.42-20.23 24.56-7.56 48.61 3.22 60.41 26.9 4.14 8.31 6.42 17.54 9.6 26.88l35.01-12.22c-5.85-13.52-10.4-27.52-17.82-39.79-20.7-34.24-62.1-48.26-99.98-35.2-18.24 6.29-36.43 12.7-56.02 19.54-2.42-6.92-5.13-13.01-6.48-19.38-.58-2.73 1-6.54 2.77-9.03 7.98-11.21 16.3-22.18 24.71-33.08 1.81-2.35 4.15-4.91 6.79-5.88 17.02-6.26 34.2-12.1 51.48-18.13 20.06 25.06 45.65 35.47 75.73 25.24 30.69-10.43 44.52-34.79 44.85-67.18 20.73-7.23 40.95-15.27 61.75-21.3 25.12-7.29 50.96 4.49 60.45 28.94 13.97 36 25.81 72.83 38.75 109.97l33.76-11.78-3.66-10.49c-10.82-30.99-21.95-61.87-32.32-93-5.8-17.42-15.48-31.64-29.42-43.48-2.54-2.15-4.22-8.1-3.18-11.26 10.42-31.63 4.05-58.97-19.14-82.77-2.3-2.36-4.37-6.64-3.97-9.69 4.12-31.12-7.01-55.62-31.67-74.99 11.24-22.46 13.05-45.75-3.85-65.36-10.71-12.41-18.49-24.14-21.75-40.58-3.29-16.6-15.13-29.32-29.67-38.43-5.82-3.64-8.33-7.5-8.91-14.84-3.63-46.23-44.09-76.67-89.79-67.6-9.3 1.85-15.24.81-22.5-6.28-30.48-29.77-79.87-26.74-107.6 5.58-2.55 2.97-4.9 6.11-7.53 9.42-24.52-7.06-47.87-5.72-68.97 9.69-18.55 13.54-28.75 31.9-31.57 54.78-.49 3.99-4.03 9.24-7.6 10.97-26.54 12.94-42.6 33.04-46.39 62.78-.39 3.03-4.44 6.78-7.65 8.07-21.82 8.78-43.99 16.71-65.77 25.59-5.64 2.3-7.9 1.13-11.6-3.26-33.62-39.83-76.45-55.69-127.86-47.14-10.03 1.67-19.72 5.64-29.42 8.99-32.89 11.35-65.79 22.71-98.56 34.42-63.26 22.6-99.37 96.67-78.14 160.28 8.01 24 16.83 47.74 24.66 71.8 1.14 3.51.15 9.3-2.18 12.11-18.65 22.52-21.72 49.49-7.35 71.15 15.91 23.94 42.54 32.9 70.56 23.78zm234.2 84.42c3.69 15.81-4.66 29.68-19.29 34.58-14.03 4.7-28.29-1.32-35.71-15.23-1.47-2.76-2.45-5.8-3.51-8.76-2.62-7.36-5.16-14.74-7.61-21.76l55.68-19.43c3.44 9.87 7.97 20 10.44 30.6zm-45.31-169.93c-29.15 34.71-18.34 78.42 23.97 95.02 1.41.55 3.14.29 4.47 1.73-24.82 20.07-52.54 28.14-82.94 25.23-50.37-4.83-85.72-31.43-106.1-77.41-6.68-15.08-11.1-31.16-17.31-48.95 9.12-3.18 17.91-4.87 25.25-9.08 18.19-10.44 28.44-26.56 31.21-47.64.47-3.6 3.89-8.59 7.12-9.78 28.52-10.52 57.29-20.33 85.76-30.26 9.67 6.48 13.32 14.57 15.1 26.15 3.21 20.87 10.46 41.1 15.37 61.76.95 4.12.57 10.29-1.9 13.23zm28.82 56.85c-4.71-4.99-8.1-13.54-7.84-20.34.39-10.39 8.77-15.78 19.36-17.91l13.76 39.42c-9.03 4.64-18.56 5.95-25.28-1.17zm44.27 79.57c-9.88-19.41-9.88-19.41 4.39-33.03 7.54 8.19 14.36 15.59 21.96 23.84zm219.04 42.52c3.53 15.39-5.1 29.98-18.42 34.05-13.46 4.11-28.03-2.96-35-17.1-1.21-2.46-2.04-5.11-2.95-7.71-2.73-7.75-5.42-15.51-8.03-22.97l53.37-18.63c3.58 10.23 8.44 21.04 11.03 32.36zm.1-88.34c-59.7 65.72-165.61 45.7-201.08-37.32-6.33-14.81-10.78-30.42-16.83-47.73 8.94-3.12 17.37-4.7 24.36-8.77 17.81-10.35 27.5-26.39 30.45-46.93.56-3.88 4.39-9.11 7.94-10.45 25.15-9.44 50.58-18.17 76.07-26.67 2.94-.98 8.09-.44 10.05 1.54 21.06 21.23 45.15 25.94 72.63 14.64 1.78-.73 3.71-1.09 5.52-1.61 27.77 58.2 36.14 113.49-9.11 163.3zm91.73-62.42-25.39 8.86c.68-11 1.33-21.57 1.98-32.14 19.57.88 19.6.91 23.41 23.28zm-13.86-91.66c-.34 10.47-8.98 15.55-19.31 18.08l-13.81-39.55c9.01-4.72 18.53-5.98 25.26 1.13 4.72 4.98 8.08 13.52 7.86 20.34zm111.6 83.68c3.19 14.91-5.27 27.39-19.52 32.05-13.23 4.33-27.6-1.17-34.48-13.48-1.71-3.07-2.68-6.56-3.87-9.91-2.74-7.72-5.41-15.47-7.87-22.51l54.57-19.05c3.73 10.71 8.74 21.53 11.17 32.9zm-47.36-57.59c-11.67 4.87-24.88 6.05-37.37 8.93-.97-1.08-1.94-2.17-2.91-3.25 1.81-2.32 3.95-4.46 5.39-6.99 19.79-34.94-.06-78.11-39.5-84.79-7.9-1.34-11.41-4.39-13.52-11.7-8.83-30.62-22.61-58.71-45.54-82.83l128.35-44.8c11.39 24.23 35.12 36.37 63.15 25.49 44.49 82.34 23.38 165.92-58.05 199.94zm176.26-7.63c-1.18 2.33-4.33 5.59-6.19 5.36-26.05-3.2-48.35 9.3-71.84 16.66-7.45 2.34-14.77 5.11-22.48 7.8-8.3-13.72-8.03-23.14 2.86-35.31 30.64-34.24 41.79-75.89 37.85-124.14 6.04.93 11.57.47 15.72 2.64 16.62 8.7 23.89 25.15 18.82 43.93-4.27 15.81-.23 27.15 13.07 36.83 15.64 11.41 20.15 30.46 12.19 46.23zm-48.91-193.35c3.74 12.44-4.88 28.93-19.11 29.77l-14.4-41.25c16.64-5.38 29.87-.64 33.51 11.48zm-357.44-69.86c20.53-7.02 30.25-19.99 30.91-42.15.74-24.98 24.29-40.6 48.79-34.47 25.13 6.29 32.38 3.79 47.7-16.43 15.93-21.02 44.2-22.62 61.3-2.28 12.97 15.42 27.64 19.27 46.34 13.07 25.72-8.52 50.65 7.6 50.83 34.53.13 20.07 7.87 32.7 25.27 41.42 9.56 4.79 14.59 13.77 16.6 25.23-18.85 6.58-36.97 13.16-55.28 19.17-7.31 2.4-11.64-1.49-14.43-8.46-9.74-24.27-17.93-27.8-42.76-19.13-47.04 16.42-94.13 32.7-141.06 49.41-6.95 2.47-12.26 2.27-18.69-1.69-20.8-12.81-43.66-20.16-67.86-23.4-3.43-.46-6.84-1.13-11.21-1.87 1.76-16.09 8.72-27.88 23.55-32.95zm-6.2 72.87c58.98 12.63 104.85 59.6 116.33 119.9-12.8 4.47-25.56 9.71-38.77 13.28-10.73 2.91-19.95-.87-26.91-10.23-11.82-15.91-19.99-18.18-38.72-11.65-32.08 11.18-64.17 22.36-96.23 33.6-15.84 5.55-21.36 13.44-21.22 29.93.14 17.18-4.67 24.16-20.86 29.96-10.74 3.85-21.53 7.53-33.16 11.59-24.13-54.88-24.45-107.53 10.02-157.68 33.11-48.15 92.21-70.98 149.52-58.7zm-441.05 114.61c-7.95-42.56 19.17-84.58 60.88-100.02 35.96-13.31 72.19-25.94 108.62-37.87 38.63-12.66 80.35.35 104.54 31.09 3.43 4.36 6.17 7.62 1.16 13.08-20.13 21.93-33.65 47.61-40.87 74.32-11.61 1.92-21.44 2.28-30.4 5.24-32.28 10.66-64.28 22.18-96.37 33.4-18.14 6.34-23.16 13.31-22.38 32.42.5 12.2-5.15 20.25-15.37 25.72-2.42 1.29-5.14 2.04-7.75 2.96-10.74 3.77-21.49 7.51-34.62 12.09-9.58-31.43-21.64-61.34-27.44-92.43zm31.22 129.34 14.2 40.69c-13.17 6.87-28.1 2.09-33.28-10.4-5.05-12.15 2.61-24.75 19.08-30.29z"/><path d="m1248.57 1665.88c-5.78-16.56-11.9-33.02-17.17-49.74-1.94-6.17-5.11-8.41-13.52-7.8-29.98 2.15-59.9 3.5-89.84 5.08-21.9 1.16-26.8-3.12-25.38-21.85 6.92-90.9 13.91-181.81 20.59-272.69.46-6.19-.39-12.58-2.36-18.27-32.09-92.63-64.46-185.16-96.76-277.72-5.48-15.7-1.36-22.42 18.17-29.28 32.29-11.34 64.54-22.8 96.98-33.7 8.62-2.9 12.16-6.2 12.61-14.02 1.89-33.07 4.72-66.22 7.24-99.34 1.56-20.49 7.43-25.44 31.55-26.81 134.08-7.61 268.16-15.13 402.27-23.02 9.88-.58 20.38-2.66 29.92-5.97 132.2-45.86 264.29-92.05 396.4-138.16 23.78-8.3 29.89-6.14 36.5 12.79 11 31.5 22.3 62.9 32.75 94.58 2.36 7.17 6.4 9.17 15.44 8.5 29.55-2.18 59.06-3.68 88.58-5.29 21.02-1.15 26.48 3.57 25.14 21.23-6.92 90.92-13.92 181.85-20.6 272.76-.48 6.54.29 13.3 2.37 19.3 32.06 92.64 64.45 185.17 96.74 277.73 5.34 15.31.93 22.32-18.7 29.22-32.69 11.5-65.36 23.09-98.21 34.12-8.02 2.69-10.52 6.04-10.94 12.71-2.06 33.09-4.72 66.23-7.2 99.36-1.59 21.19-7.23 25.95-32.24 27.36-134.16 7.58-268.31 15.09-402.48 22.93-9.05.53-18.67 2.58-27.43 5.63-131.78 45.75-263.46 91.79-395.17 137.75-4.09 1.43-8.15 3.05-12.31 4.13-13.14 3.42-21.23.27-24.89-9.9-6.15-17.15-12.04-34.41-18.05-51.62zm1006.46-309.07c-78.07-223.67-155.97-446.85-233.92-670.19-319.03 111.35-637.32 222.45-955.6 333.54 78.13 223.84 156.02 447.01 233.92 670.19 318.97-111.34 636.99-222.33 955.6-333.54zm-765.15-519.94c-.15-.6-.29-1.2-.44-1.81-97.14 5.5-194.27 11-292.05 16.54-2.3 30.62-4.48 59.75-6.73 89.71 100.65-35.13 199.94-69.79 299.22-104.44zm340.77 702.95c.19.57.38 1.14.56 1.7 97-5.5 194.01-11 291.62-16.53 2.29-30.63 4.47-59.67 6.7-89.5-100.62 35.13-199.75 69.73-298.88 104.33zm332.4-569.01c.63-.2 1.25-.4 1.88-.6 4.37-57.85 8.73-115.69 13.14-174.02-25.54 1.5-49.4 2.91-74.43 4.38 20.12 57.66 39.77 113.95 59.41 170.24zm-1005.55 435.23c-.73.11-1.45.21-2.18.32-4.38 57.84-8.76 115.67-13.18 174.11 25.41-1.49 49.52-2.91 74.71-4.39-20.2-57.87-39.78-113.95-59.35-170.04z"/></g></svg>