<svg enable-background="new 0 0 3717 3717" viewBox="0 0 3717 3717" xmlns="http://www.w3.org/2000/svg"><g fill="#fff"><path d="m559.3 2275.2c1.8-4.5 4.2-8.9 5.5-13.6 39.9-148.1 219.8-199.2 331-93.2 35.9 34.2 69.7 70.7 108.8 110.6.8-14.6 1.7-22.5 1.7-30.4.1-285-.1-570 .3-854.9 0-16.3-4.1-27.9-16.1-39.7-92.7-91.8-116-228.6-60.2-345.8 55.5-116.5 178.6-186.1 306.4-173.3 137.4 13.8 245 116.5 270.9 258.6.6 3.3 1.2 6.6 2 11.4h530.3c2.9-68.9 16-134.7 41.9-197.6 93.1-226.4 323.1-367.2 565.4-346.2 261.5 22.8 470.6 224.4 505.6 487.6 40.3 303.5-177.8 585.1-482.7 623.2-292.3 36.6-559.7-155.1-618.4-443.8-3-15-8.8-19-23.2-19-169.1.4-338.2.4-507.4 0-14.4 0-20.1 4.7-24.2 18.7-14.9 50.3-42 93.6-79.3 130.7-5.5 5.5-11.6 13.8-11.6 20.8-.7 123.4-.5 246.8-.5 373.4 53.9-24.8 106.9-31.2 161.4-11.8 54.6 19.5 92.6 57 118.4 110.7 53.4-32.8 109.3-42.7 168.3-24.9 59.1 17.8 100.5 56.9 126.8 113.6 52-31 105.4-42.8 163.4-26.3 86.6 24.7 145.3 98.1 145.7 188 .8 175 6.1 350.4-1.7 525.1-9.7 217.8-123 371.8-318.8 465.3-71.4 34.1-147.1 53.8-225.9 61.3-5.7.5-11.2 3.1-16.8 4.6-47.4 0-94.7 0-142.1 0-7.3-1.7-14.5-4.1-21.9-5-149.9-17.8-287.4-67.9-403.6-165.7-49.4-41.6-90.3-93.2-136.6-138.7-121-119.2-242.4-238.1-364.6-356-43.6-42.1-83.7-85.4-98.3-146.5.1-23.9.1-47.5.1-71.2zm550.2-394.4c0 166.6 0 333.2-.1 499.8 0 10.9-.1 22.1-2 32.8-4.1 23.1-23.1 41.7-45.7 38.7-16.9-2.2-35.9-10.4-48.1-22.1-63.4-60.9-124.4-124.3-187.3-185.7-50.8-49.6-131.1-33.9-157.3 29.6-16.4 39.8-7.9 76.5 26.1 110.5 161.3 161.4 318.7 327.1 485.1 483 201 188.3 439.8 235.5 700 148.9 191.8-63.8 303.2-216.6 307-409.4 3.3-167.4 1.3-334.8.7-502.3-.2-55.1-43.4-95.4-97.9-94.7-52.6.7-93.6 41.8-94.8 95.6-.5 23.7.1 47.4-.2 71-.3 34.6-20.3 57.3-50.4 57.7-30.6.4-51-21.4-51.3-56.3-.4-51.6.4-103.2-.3-154.7-.8-59.2-41.9-102.9-96.2-103.3-54.9-.4-96.3 44.4-96.5 104.8-.1 50.7.3 101.5-.2 152.2-.3 33.9-21.7 57.1-51.3 57.4-30.4.2-50-21.2-51.5-56.6-.4-10.1-.1-20.3-.1-30.4 0-71.9 1-143.8-.4-215.6-1.2-60.6-41.7-99.8-98.7-98.8-54.8.9-92.5 41.9-92.8 101.7-.3 75.3-.1 150.5-.1 225.8 0 49.5-17.9 74.5-52.8 74.1-33.8-.5-51.4-25.3-51.4-72.9 0-257.1 0-514.1 0-771.2 0-11.8.2-23.7-.8-35.5-4.7-53.6-60.6-94.2-112.8-82.2-50.9 11.7-78 47.7-78.1 106 0 167.3.2 334.7.2 502.1zm1489.5-1219.3c-250.2.1-456.4 206.5-456.5 456.8 0 250 206.7 456.7 456.8 456.6s456.6-206.8 456.5-456.9c-.1-250.2-206.6-456.6-456.8-456.5zm-1229.2 591.8c61.4-79.2 46.6-197.9-31.2-267.1-78.1-69.4-197.4-66.2-273.5 7.3-70.5 68.2-82.2 189.3-23.3 259 41.8-51.4 93.6-83.4 161.9-84 69.7-.5 122.8 30.5 166.1 84.8z"/><path d="m2334.4 1161.7c55.7-59.2 145.6-95 203.6-96 71.2-1.2 112.6 40.3 113.6 97.1.6 33.3-8.6 62.3-45.5 101-30.9 34.4-45.2 40.6-48 40.6-3.1.1-4.3-1.6-4.3-3.8-.1-2.1.3-4.2 1.1-4.8 3.5-3.2 6.5-6.7 9.9-10.5 12.6-13.6 14-15.4 21.5-28.2 14-24.8 18.1-40.7 17.8-60.6-1.1-62.6-49.5-106.4-110-105.4-76.6 1.3-170 95.5-167.9 221.4.3 17.6 2.4 33.8 5.8 48.5 62.4 70.9 150.8 118.4 250.6 127.3 74.4-23.9 129.9-91.2 128.2-188.4-.5-25.6-3.6-49-11.1-74.5l-24.7-86.9c-16.8-60.9-20.6-94.2-21.1-121.6-1.5-88.5 30.8-151.7 89.2-200.2 19.2-15.5 39.5-27.9 60.8-37.2-53.7-30.4-115.5-48.2-181.5-49.1-209.7-3-382.1 164.6-385.1 374.3-.8 57.8 11.4 112.7 33.8 162.1 11.7-38.2 33-73.4 63.3-105.1"/><path d="m2893.2 1021c-7.4.1-15.2-.9-20.2-1.7-1.4 0-4.4-1.2-4.5-3.5 0-1.9 1.9-3.1 4.7-3.2l6.6-.1c29.4-.5 64.4-24.2 80.5-64.5-30.4-64.3-78.4-118.8-137.9-157.2-43.7 21-78 67.9-77.2 118.1.4 24.8 9.5 71.4 26.6 109.3l28.9 67.2c33.3 73.5 37.8 113.9 38.4 146.8 2.3 137.2-96.1 200.5-127.9 221.3-21.9 14-45.9 26-71 35.6 196.5-11.9 353.5-173.6 356.4-373.6.6-43.4-6.1-85.2-19-124.3-23.2 18.7-52.6 29.2-84.4 29.8"/></g></svg>