<svg enable-background="new 0 0 3717 3717" viewBox="0 0 3717 3717" xmlns="http://www.w3.org/2000/svg"><path d="m2244.89 2552.03c9.32-29.89 19.64-59.51 27.82-89.71 91.77-338.88 15.89-629.65-249.83-865.25-91.14-80.81-195.76-140.77-304.79-193.59-6.93-3.36-13.7-7.06-20.42-10.83-1.31-.74-2.02-2.55-5.6-7.34 50.23 10.66 97.13 21.29 144.31 30.51 156.86 30.66 314.9 48.58 474.85 35.3 116.15-9.65 229.31-33.05 327.71-100.13 33.59-22.9 62.26-53.09 92.61-80.58 5.27-4.77 7.68-12.7 16.18-15.87-5.69 257.94-53.99 504.79-145.21 742.9-80.15 209.21-192.67 398.18-350.84 557.92-2.26-1.11-4.52-2.22-6.79-3.33z" style="fill:none;stroke:#fff;stroke-width:34.7771;stroke-linecap:round;stroke-linejoin:round;stroke-miterlimit:10"/><path d="m1213.64 2682.05c-.93-12.78-1.84-19.41-1.84-26.03.11-430.36.29-860.72.47-1291.07.02-39.7.28-41.83 39.94-37.45 126.62 13.96 249.21 44.97 367.11 93.36 126.98 52.12 243.46 121.83 347.42 211.85 13.25 11.47 25.9 23.62 38.83 35.45-1.68 2.09-3.35 4.17-5.03 6.26-12.69-6.23-25.79-11.78-38.02-18.81-153.82-88.41-318.21-147.17-493.46-174.67-36.28-5.69-73.3-6.76-109.99-9.83-20.7-1.74-30.88 5.07-30.84 28.74.54 324.05.44 648.11-.12 972.16-.04 22.8 7.87 29.8 30.33 28.35 75.16-4.86 150.43-11.34 225.66-11.3 131 .07 259.41 19.35 382.58 66.51 9.57 3.66 18.86 8.1 28.11 12.52 1.99.95 3.27 3.42 7.9 8.51-275.07-49.51-539.44-42.09-789.05 105.45z" style="fill:none;stroke:#fff;stroke-width:34.7771;stroke-linecap:round;stroke-linejoin:round;stroke-miterlimit:10"/><path d="m1914.02 2633.19c-359.25 57.35-662.88 229.83-943.05 460.89-.79-13.44-1.68-21.54-1.68-29.64-.05-502.32-.02-1004.64 0-1506.96 0-35.47.04-35.63 35.46-35.83 36-.21 72.03.68 108-.36 18.96-.55 26.64 7.2 26.32 25.42-.3 17.14-.31 34.3.26 51.42.6 18.11-6.52 27.55-25.67 25.98-6.81-.56-13.72.33-20.56.02-18.23-.84-27.27 7.27-26.5 25.89.32 7.7-.1 15.43-.1 23.14-.15 390.88-.36 781.77-.1 1172.65.01 13.78 4.79 27.55 7.34 41.32 12.16-5.25 25.17-9.11 36.35-15.97 158.76-97.34 326.1-174.92 508.19-217.06 96.98-22.45 195.31-35.16 295.74-20.91z" style="fill:none;stroke:#fff;stroke-width:34.7771;stroke-linecap:round;stroke-linejoin:round;stroke-miterlimit:10"/><path d="m1510.28 2092.58c47.76-50.77 124.97-81.56 174.69-82.41 61.11-1.02 96.62 34.62 97.45 83.36.47 28.61-7.35 53.45-39.08 86.67-26.55 29.55-38.75 34.81-41.22 34.88-2.66.04-3.69-1.37-3.7-3.24-.05-1.79.28-3.65.91-4.16 3.03-2.74 5.58-5.75 8.48-8.99 10.77-11.64 11.98-13.18 18.45-24.24 12.04-21.26 15.57-34.93 15.25-51.99-.91-53.68-42.46-91.35-94.43-90.45-65.71 1.13-145.91 81.97-144.08 190.03.27 15.14 2.04 28.98 4.97 41.59 53.54 60.82 129.43 101.58 215.07 109.26 63.85-20.55 111.48-78.26 110.06-161.66-.43-21.92-3.13-42.07-9.53-63.91l-21.17-74.59c-14.37-52.3-17.7-80.87-18.09-104.33-1.27-75.94 26.39-130.2 76.55-171.83 16.45-13.35 33.94-23.94 52.16-31.94-46.05-26.09-99.09-41.32-155.78-42.12-179.93-2.55-327.9 141.27-330.46 321.24-.7 49.58 9.76 96.73 29 139.11 10.18-32.83 28.47-63.08 54.5-90.28" fill="#fff"/><path d="m1989.87 1971.84c-6.39.08-13.01-.75-17.33-1.47-1.22.02-3.81-1.03-3.86-3.03-.02-1.61 1.67-2.66 4-2.74l5.65-.06c25.27-.44 55.3-20.78 69.09-55.31-26.13-55.22-67.3-101.96-118.34-134.9-37.49 18.04-66.97 58.26-66.24 101.34.34 21.32 8.18 61.27 22.84 93.79l24.79 57.67c28.58 63.05 32.46 97.79 32.91 126.01 1.98 117.76-82.48 172.08-109.72 189.95-18.83 12.05-39.35 22.29-60.94 30.52 168.65-10.24 303.37-148.98 305.81-320.62.53-37.26-5.24-73.15-16.3-106.66-19.84 15.95-45.07 25.04-72.36 25.51" fill="#fff"/><g fill="none" stroke="#fff" stroke-linecap="round" stroke-linejoin="round" stroke-miterlimit="10"><path d="m1944.19 829.64c.14.41.29.83.43 1.24 1.01.25 2.07.38 3.02.78 40.25 16.84 80.49 33.71 120.76 50.52 2.54 1.06 4.91 2.88 8.27 2.45-.1-4.41.26-8.78-.43-12.98-.72-4.38 1.4-6.44 4.71-8.13 11.67-5.98 23.11-12.49 35.07-17.84 34.64-15.53 70.06-28.87 107.21-37.38 32.74-7.5 65.75-11.44 99.34-9.57 68.87 3.84 133.71 23.24 196.42 50.92 2.96 1.3 3.66 2.93 3.7 5.87.14 9.47.56 18.94.91 29.45 24-13.79 47.07-27.04 70.76-40.65.16 4.34.29 7.38.37 10.41.91 32.02 1.67 64.04 2.86 96.05.18 4.82-1.28 5.86-5.51 5.71-4.78-.17-9.59.04-14.37.27-1.77.09-4.02-.37-3.9 2.93.62 17.49 1.06 35 1.59 53.34 9.31-6.8 17.99-12.62 26.02-19.22 4.23-3.48 7.29-3.02 11.5-.42 9.62 5.95 19.5 11.49 30.03 17.64-.49-18.08-.95-35.26-1.43-52.44-.07-2.54-.84-3.85-3.99-3.57-5.41.49-10.93-.11-16.31.53-4.93.59-6.05-1.21-6.15-5.77-.77-33.33-1.29-66.67-2.97-99.96-.56-11.15.39-19.59 12.56-22.98 1.63-.45 3.03-1.7 4.54-2.58 7-4.11 14.01-8.23 21.83-12.82-12.58-6.52-23.96-12.63-35.55-18.32-3.92-1.92-5.16-4.37-5.18-8.62-.02-7.18.81-14.37-.45-21.55-1.76-9.99-9.04-17.42-19.04-17.83-13.57-.55-25.87 4.03-36.89 11.61-2.71 1.87-4.15 2.51-7.12.91-11.39-6.14-22.95-11.95-34.45-17.89-74.44-38.44-148.89-76.86-223.28-115.39-3.64-1.89-6.21-2.14-9.97.31-12.23 7.98-24.89 15.32-37.36 22.95-66.79 40.9-133.56 81.82-200.37 122.7-32.37 19.83-64.79 39.56-97.18 59.32z" stroke-width="25"/><path d="m2497.23 962.95c2.52.03 3.47-1.11 3.3-5.29-1.07-26.33-1.74-52.68-2.32-79.03-.09-3.97-1.1-6.1-4.98-7.83-25.45-11.37-51.66-20.51-78.42-28.29-66.33-19.29-132.84-23.79-200.12-4.59-39.99 11.41-78.26 26.7-114.63 46.83-2.32 1.28-3.12 2.62-3.05 5.06.86 26.76 1.68 53.53 2.51 80.51" stroke-width="25"/><path d="m2497.23 962.95c-.77-.01-1.67-.12-2.74-.29-62.93-10.03-126.16-16.59-189.98-15.42-38.43.7-76.54 5.2-114.51 10.95-29.4 4.45-58.51 10.44-87.62 16.44-.81.17-1.65.18-2.71.29-.05-1.54-.09-3.07-.14-4.61" stroke-width="25"/><path d="m2099.52 970.3c-31.5 42.05-50.16 94.28-50.16 150.86 0 139.11 112.77 251.88 251.88 251.88s251.88-112.77 251.88-251.88c0-59.93-20.93-114.97-55.89-158.22" stroke-width="25"/></g></svg>