<svg enable-background="new 0 0 3717 3717" viewBox="0 0 3717 3717" xmlns="http://www.w3.org/2000/svg"><g fill="#fff"><path d="m2582 2392.8c-79.3 0-158.6.2-237.9-.1-67.4-.2-114.8-46.3-115.7-113.8-.9-72-.8-144.1 0-216.1.7-66.8 45.7-112.3 112.3-115.5.8 0 1.7-.2 2.4 0 58.2 13.5 90-14.8 106.4-67.3 6.7-21.4 20.9-26.2 42.4-25.6 62.3 1.5 124.6 1.2 186.9.1 17.3-.3 26.3 5.8 33.4 20.7 11.1 23.3 18.7 54.1 37.7 66.2 18.6 12 49.6 4.5 75.2 6 64.3 3.8 108.9 48.3 110.1 112.6 1.3 73.6 1.4 147.3 0 220.9-1.3 66.5-48.9 111.5-115.2 111.7-79.4.4-158.7.2-238 .2zm0-73.3c75.3 0 150.6.1 225.9 0 41.3-.1 52.1-10.7 52.2-51.1.1-58.3 0-116.6 0-174.9 0-70-.8-70.6-70.2-70.8-27.5-.1-60.3 8.2-80.9-4-20.4-12.1-28.3-45.1-41.7-68.9-.4-.7-.9-1.3-1.2-2.1-4.4-13.2-12.9-18-27.3-17.6-38 1-76.1 1.1-114.1 0-14.6-.4-21.6 5.5-27.4 17.7-9.7 20.4-19.9 40.8-32.1 59.7-4.6 7.2-15.3 14.1-23.6 14.5-29.9 1.7-59.9.6-89.8.7-38.7.2-48 9.6-48.1 49.1-.1 64.8-.1 129.5 0 194.3 0 42.8 10.3 53.2 52.5 53.3 75.2.1 150.5.1 225.8.1z"/><path d="m1397.2 1265.8c0 10.1.2 17.9 0 25.8-1.7 66.2-44.4 112.3-110.9 113.1-132.8 1.6-265.5 1.7-398.3-.1-65.2-.8-109.2-45.7-110.5-111.2-1.8-89.8-1.8-179.7-.1-269.6 1.3-68.4 48.6-112.2 117-112.3 126.3-.2 252.6 1.8 378.9-.8 72.4-1.5 129.7 51.1 124.1 120.5-.4 4.7.6 9.5 1.3 18.6 57.8-15.8 114-31.1 172.1-47v310.8c-57.9-15.8-114.5-31.5-173.6-47.8zm-310.1 64c63.9 0 127.8.2 191.8-.1 32.3-.1 44.7-12 44.7-43.2.2-85.8.2-171.5 0-257.3-.1-29-12.2-42.6-40.5-42.7-130.3-.5-260.5-.5-390.8 0-29.2.1-40.5 12.7-40.6 42.2-.2 85.8-.2 171.5 0 257.3.1 32.1 11.5 43.7 43.7 43.8 63.8.2 127.8 0 191.7 0zm411.5-229.8c-22.2 6-42.2 11.3-62.1 16.9-43.9 12.3-44.3 12.5-38.7 59.2.7 6 7.4 14.3 13 16.1 28.2 8.9 57 16 86.8 24.1.4-7.7 1.1-13.9 1.1-20.2 0-31.4-.1-62.7-.1-96.1z"/><path d="m2210.1 1339.2c0-24 0-46.3 0-70.9h286.3v70.9c-95.5 0-190.3 0-286.3 0z"/><path d="m2496.8 1413.6v71.1c-95.2 0-190 0-286.4 0 0-23.7 0-46.6 0-71.1z"/><path d="m2581 2031.8c68.8-.7 121.7 51.7 122.1 120.7.4 68.6-52.3 122.5-120.4 123.2-68 .6-121.6-52.7-121.9-121.4-.4-69.4 51-121.8 120.2-122.5zm.7 168.7c27.1.1 47.9-20.4 48-47.1.1-26.6-20.8-47.4-47.7-47.4s-47.9 20.6-48 47.2c-.2 26.6 20.7 47.2 47.7 47.3z"/><path d="m1196.2 2421.1c46.4-49.3 121.4-79.3 169.8-80.1 59.4-1 93.9 33.6 94.7 81 .5 27.8-7.1 51.9-38 84.2-25.8 28.7-37.7 33.8-40.1 33.9-2.6 0-3.6-1.3-3.6-3.1-.1-1.7.3-3.6.9-4.1 2.9-2.7 5.4-5.6 8.2-8.7 10.5-11.3 11.6-12.8 17.9-23.6 11.7-20.7 15.1-33.9 14.8-50.5-.9-52.2-41.3-88.8-91.8-87.9-63.9 1.1-141.8 79.7-140 184.7.3 14.7 2 28.2 4.8 40.4 52 59.1 125.8 98.7 209 106.2 62.1-20 108.3-76.1 107-157.1-.4-21.3-3-40.9-9.3-62.1l-20.6-72.5c-14-50.8-17.2-78.6-17.6-101.4-1.2-73.8 25.7-126.5 74.4-167 16-13 33-23.3 50.7-31-44.8-25.4-96.3-40.1-151.4-40.9-174.9-2.5-318.7 137.3-321.2 312.2-.7 48.2 9.5 94 28.2 135.2 10.1-32 27.9-61.3 53.2-87.8"/><path d="m1662.2 2303.8c-6.2.1-12.6-.7-16.8-1.4-1.2 0-3.7-1-3.8-2.9 0-1.6 1.6-2.6 3.9-2.7l5.5-.1c24.6-.4 53.8-20.2 67.1-53.8-25.4-53.7-65.4-99.1-115-131.1-36.4 17.5-65.1 56.6-64.4 98.5.3 20.7 7.9 59.5 22.2 91.1l24.1 56.1c27.8 61.3 31.6 95 32 122.5 1.9 114.4-80.2 167.2-106.6 184.6-18.3 11.7-38.2 21.7-59.2 29.7 163.9-9.9 294.8-144.8 297.2-311.6.5-36.2-5.1-71.1-15.8-103.6-19.3 15.4-43.8 24.2-70.4 24.7"/><path d="m1741.2 908.2c0-10.5-.2-21.2-2.2-31.4-18-94.3-90.7-154-189.4-154.2-135.4-.3-270.8-.2-406.2-.2v-1.1h-292.7v1.2c-21.8-.5-43.4-.4-64.7 1.9-102.8 11.3-167 85.2-167.2 188.6-.2 173.3-.6 346.5.3 519.8.5 90.8 79.3 170.6 170.2 172.8 67.2 1.7 134.4-.2 201.6 1.5 15.8.4 33.7 5.4 46.7 14.1 99.5 66.6 198 134.6 296.8 202.1 6.4 4.4 13.2 8.2 22.9 14.1 0-41.3 0-79.1 0-116.9 0-37.6 0-75.3 0-114.3 70.3 0 136.7 1.1 202.9-.3 104.4-2.2 180.6-80.8 180.8-185.3.4-170.7.3-341.5.2-512.4zm-73.4 509.8c-.2 69.4-47.3 114.9-116.7 115-80.2.2-160.3 0-240.5 0-8.5 0-16.9 0-26.8 0v165.9c-78.5-53.6-152.4-104.6-227-154.4-9.9-6.7-23.5-10.8-35.5-11-70.4-1-140.9-.4-211.3-.5-72.4-.1-118.2-45.9-118.3-118.3-.1-166-.1-332 0-497.9 0-73.7 43.8-118.2 117-118.9 33-.3 66 0 99.9 0 0-.5 0-1 0-1.5h76.1v1.4h30c178.9 0 357.9-.2 536.8.1 70.5.2 116 44.8 116.2 114.8.7 168.5.7 336.9.1 505.3z"/><path d="m2907 1689.6c-129.6 1-259.1.2-388.7.2-8.7 0-17.4 0-26 0 34.8-26.9 63.1-59.3 114-57.3 101.1 4 202.4 1.7 303.6 1 98.6-.7 170.1-58.5 189.3-151.5 1-4.7 2.2-9.6 2.2-14.3.1-89.8.1-179.7.1-271.5-.1 0-.2 0-.3 0v-73.8h.7c0-8.5 0-17 0-25.5 0-96.4.1-192.7 0-289.1-.1-98.2-49.7-163-144.6-189.3-2.2-.6-4-2.5-6-3.8-328.8 0-657.6 0-986.4 0-18 6.8-37.2 11.5-53.9 20.9-61.9 34.7-96.9 87.4-97.1 159.4-.6 218.6-1.1 437.3.1 656 .6 106 79.6 180.9 189.2 182.6 62.3.9 124.6.2 188.7.2v57.4c-48.2 6.2-89.2 27-120.6 64.4s-45.7 81.1-43.9 124.7c-39.9-2.6-79.1-7.3-118.2-7.4-320.7-.6-641.4-.4-962.1-.3-94.9.1-162.8 45.4-188.1 126.8-5.9 18.9-8.5 39.6-8.5 59.5-.6 238.1-.4 476.2-.4 714.3v32.9c-46.1 0-91.1 0-136.1 0v145.8c12.8 26.7 21.9 56.1 39 79.7 34.2 47.3 83.2 70.8 142 70.8 431.6.2 863.2.2 1294.8 0 99.8-.1 178.9-77.7 181.2-177.3.9-38.7.1-77.4.1-118.3-44.9 0-88.3 0-133.8 0 0-82.6 0-163.1 0-244.7 89.1 23.6 181.3 5.4 274.4 13.7v186.8c23.4-17.9 43.1-32.8 62.6-47.9 53.8-41.6 107.7-83 161-125.2 14-11.1 28.1-16.8 46.3-16 22.8 1.1 45.8.7 69.3.5h129.5c98.1 6.2 177.1-26.7 212.3-127.4 6.5-18.6 8.5-39.6 8.6-59.5.6-167.6-2.3-335.3 1.4-502.8 2.2-90.2-63.2-195.7-195.7-194.7zm-46.1-133.2c-56.7 0-112.9 0-172.3 0 0-8.6 0-17.2 0-25.8 0-122.3.4-244.6-.6-366.8-.1-11.3-5.7-25.4-13.7-33.3-71.1-69.8-143.9-137.7-214.6-207.8-21-20.8-42.1-33.6-72.3-29-11.7 1.8-23.9.3-37.1.3 0-22.7 0-42.6 0-64.3h510.6zm-319.8-436.8c-22.7 0-55.1 0-89.2 0 0-33.2 0-64.2 0-100.9 33.3 37.6 63.1 71.4 89.2 100.9zm-512.5-225.6v660c-74 19.3-141.2-30.7-141.4-104.8-.5-217-.4-434 0-651 .1-64.3 48.7-110.2 116.3-110.5 102-.5 204.1-.1 306.1-.1h590.3c85.7 0 128.9 42.8 128.9 127.8v279.4 27.6h.4v73.8c-.1 0-.2 0-.4 0v31c0 72.1.4 144.1-.1 216.2-.4 59.7-34.4 101.6-91.8 112.6 0-266.3 0-532.3 0-800.5-220.8 0-439.5 0-660.4 0v138.5c-83.4 0-164.7 0-247.9 0zm73.8 663.8c0-197.1 0-391.8 0-587.8h274.3v225.8h236.1v360c-5.1.8-10.6 2.9-15.7 2.1-39.8-6.3-70.9 10.2-102.3 32.8-66.2 47.8-134.5 92.6-202 138.6-6.5 4.4-13.2 8.3-24.3 15.2 0-64.3 0-124.3 0-186.8-57.3.1-111.2.1-166.1.1zm-1279.4 511.6c0-79.4 44-123.5 122.9-123.5 332 0 663.9 0 995.9.1 11.2 0 22.7.6 33.6 3 45.2 10.3 52.6 19.9 52.6 64.9 0 126.3-1.1 252.6.9 378.9.4 27.3 8.9 55.9 20 81.1 8.8 19.9 13.6 38.5 13.4 59.9-.6 81-.3 161.9-.3 242.9v28.9c-129.3 0-254.7 0-383.9 0 0 11.1.2 21.2 0 31.3-.9 36.5-22.2 60.6-58.4 60.9-102 1-204 1-306 0-35.1-.4-56.2-23.8-58-59.1-.5-9.7-.1-19.4-.1-31.8-143.6 0-286.4 0-432.7 0 0-11.2 0-19.8 0-28.3.1-236.3.1-472.7.1-709.2zm1365.6 809.6c2.3 0 4.6.9 6.7 1.3 16.4 89.6-32.9 149.2-123.2 149.2-418.5.1-837 0-1255.5 0-93.4 0-140.2-54.4-127.3-150h497.2c17.6 45.2 47.5 77.1 95.8 88.2 10.1 2.3 20.8 3.2 31.2 3.2 102 .2 204 .2 306 .1 56.7 0 96.2-27 122-76.8 3.5-6.8 13-14.9 19.7-14.9 142.5-.7 284.9-.4 427.4-.3zm840.3-497.2c-.1 72.7-45.9 118.1-118.3 118.3-1.3 0-2.7 0-4 0v-.7h-180.8v.8c-30.2-.1-60.1-.1-89.9.5-6.3.1-13 5.5-18.6 9.8-42.9 32.8-85.5 65.9-132 101.8 0-39.5 0-74.5 0-112.2-11.2 0-19.8 0-28.5 0-81 0-161.9.2-242.9-.1-63.8-.3-111.9-45.3-112.3-109.2-1.1-172.5-1-344.9 0-517.4.3-54.7 35.1-93.9 90.9-106.3v118.5c10.4-6.1 17.1-9.4 23.1-13.6 46.8-31.9 93.2-64.4 140.5-95.4 10-6.6 23.6-10.9 35.6-10.9 173.3-.7 346.6-.6 519.9-.4 72.9.1 117.3 45.1 117.4 118.6.1 165.9.2 331.9-.1 497.9z"/></g></svg>