<svg enable-background="new 0 0 3717 3717" viewBox="0 0 3717 3717" xmlns="http://www.w3.org/2000/svg"><g fill="#fff"><path d="m1027.3 885.8c15.9-150.1 52.7-202 139-201.8 83.8.3 117.6 48.6 137.1 198.8h268.9c0-22.7-.9-45.9.2-68.9 3.6-74.7 60.4-130 132.5-129.9 72.1.2 128.7 55.5 132.2 130.2 1.1 21.9.2 44 .2 68.7h273.5c0-19.8-.2-39.8 0-59.8.9-77.7 54.8-136 128.2-139.1 72.3-3 132.8 52.9 138.9 129.9 1.8 21.9.3 44.1.3 71.8 52.8 0 101.7-.2 150.7 0 116.9.6 186.1 70.4 186.2 188.4.1 272.9 0 545.8 0 818.7 0 11.2 3.7 24.4-1.1 33-7.4 13.4-20.6 23.6-31.3 35.1-11.5-12.2-31.4-23.4-32.9-36.7-4.4-39.4-1.7-79.6-1.7-119.5 0-135.7.1-271.3-.1-406.9 0-12.4-1.3-24.8-2.2-39.7-627.3 0-1252.2 0-1884.6 0v50.4c0 322.4-.1 644.7 0 967.1 0 90.9 36.8 127.7 127.4 127.8 292 .1 584.1 0 876.1.1 12.8 0 27.6-3.9 37.8 1.2 13.2 6.6 22.8 20.6 33.9 31.4-11 11.3-20.5 25.1-33.5 33.1-8.2 5-21.8 1.2-33 1.2-295.2 0-590.5.1-885.7 0-120.9-.1-190-69-190-189.4-.1-435.7-.1-871.3 0-1307 0-117.8 69.3-187.4 186.6-188 48-.4 95.7-.2 146.4-.2zm1081.4 70.2c-91.1 0-179.1 0-266.6 0-19.6 152.2-46.7 196.3-127.7 196.4-29.9.1-63.6-9.5-89.1-25.2-64.3-39.5-51.5-110.1-54.3-170.6-93.9 0-182.1 0-272.1 0 0 21.7.2 39.2 0 56.7-.8 83-53 139.6-129.6 140.6-79.2 1.1-135.2-55.3-137.9-139-.6-19.9-.1-39.8-.1-62.3-61.4 0-115.5-1.5-169.5.4-49.3 1.7-94.8 36.5-97.3 82.7-4.5 83.7-1.3 167.8-1.3 251.5h1884.9c0-81.5 1.5-159.5-.5-237.3-1.2-48.5-37.6-91.3-85.4-94.9-59.7-4.6-120.1-1.1-179.5-1.1-17.9 155.3-51.2 201.4-142.1 200.1-87.9-1.4-122.4-52-131.9-198zm-472.8-39.9h.2c0 35.1-2.8 70.5.8 105.2 3.9 38.8 25.4 65.9 68.1 66 42.8.1 65.9-27.2 67.9-65.9 3.5-66.8 3.2-134 .4-200.9-1.7-38.8-24.1-65.9-65.9-69-37-2.8-67.3 26-70.9 68.9-2.8 31.7-.6 63.8-.6 95.7zm-402.6 6.6c0-35.1 1.6-70.3-.4-105.2-2.4-41.1-26.7-65.3-67.5-65.6-39.1-.2-64.5 25-66.4 62.1-3.6 70-3.7 140.4 0 210.4 2.1 39.4 28.3 64.4 70.3 62.8 39.5-1.5 61.4-25.2 63.6-64 1.9-33.5.3-67 .4-100.5zm1079-3.9c0-33.5 2.3-67.2-.6-100.4-3.5-39.6-26.5-66.4-67.7-66.4-40.9 0-65.7 24.8-66.9 65.9-1.9 66.9-1.7 134-.4 200.9.8 40.7 22.4 65.9 64.5 68.6 38.4 2.4 68.3-25.8 70.8-68.1 2-33.5.4-67 .3-100.5z"/><path d="m1842 2266.3c.2-244.8 191.2-434.9 437.1-434.9 242.3 0 437.3 195.9 436.2 438.3-1.1 237.4-199.3 434.7-437.1 435.1-242.1.3-436.4-194.9-436.2-438.5zm806.3 2.6c1-203.8-163.9-370.8-368.8-373.5-201.5-2.7-370.9 164.8-373.4 369.2-2.5 201.8 166.4 372.4 369.2 373.1 204.1.7 372.1-165.3 373-368.8z"/><path d="m1101.5 2368.1c-133.7 0-146-14.3-137.7-160.7 2.8-48.9 25.9-73.3 74.4-75.1 39.8-1.5 79.8-1.4 119.6-.1 49.4 1.6 72.6 25.6 73.7 74.2.6 25.5.2 51.1.1 76.6-.4 61.3-22.2 83.9-82.3 85.1-15.9.2-31.8 0-47.8 0zm62.2-167c-46.8 0-88.6 0-130.9 0v98.3h130.9c0-33.4 0-64.4 0-98.3z"/><path d="m1501.8 2368.1c-127.3 0-133-5.9-132.7-136 .2-82.3 18.2-100.1 101.5-100.2 30.2 0 60.5-.9 90.7.2 49.6 1.9 72.6 25 73.9 73.5.7 25.4.3 50.9.1 76.4-.5 63.7-21.9 85.1-85.8 85.9-15.9.3-31.8.2-47.7.2zm67.5-166.9c-47.5 0-89.8 0-132.8 0v98.4h132.8c0-33.5 0-64.6 0-98.4z"/><path d="m1099.9 1831.3c131.8 0 131.8 0 131.8 133.6-.1 83.5-15.3 98.4-100.7 98.4-33.4 0-67 1.5-100.3-.4-56.4-3.2-69-32.1-66.9-148.3 1-55.8 21.8-81.2 69.3-83.1 22.2-.9 44.6-.1 66.8-.2zm63.9 163.1c0-34.6 0-64.3 0-95.3-45.5 0-88.4 0-131.4 0v95.3z"/><path d="m1099.9 1759.6c-133 0-136.5-3.5-136.1-136.5.2-76.1 20.1-96.2 95.5-96.3 33.4 0 66.9-.8 100.3.2 48.2 1.4 71 25.4 72 74.9.5 27.1.4 54.1 0 81.2-.8 54.4-20.6 74.8-74.4 76.3-19.1.6-38.2.2-57.3.2zm63.7-66c0-33.8 0-64.7 0-97.4-44.8 0-86.9 0-130.8 0v97.4z"/><path d="m2311.9 1759.1c-133.8.5-133.8.5-133.7-131.5 0-84.8 15.7-100.8 98.8-100.8 33.4 0 67.4-3.4 100.1 1.3 20 2.9 53.6 17.2 54.5 28.6 4.8 58.3 3.3 117.5-1.9 175.9-.9 10.1-29.3 22.1-46.4 25.4-23 4.4-47.5 1.1-71.4 1.1zm-66.2-66.6h130.5c0-34.9 0-65.8 0-95.5-45.8 0-88 0-130.5 0z"/><path d="m1507.1 1831.3c128.3 0 128.3 0 128.3 127.1-.1 93-11.8 105-103.3 105-30.2 0-60.4.7-90.6-.2-47.2-1.4-68.8-22.8-72.1-70.3-.6-7.9-.2-15.9-.2-23.8-.9-136.1.8-137.8 137.9-137.8zm61.7 163.3c0-33.1 0-63.9 0-95.1-46.7 0-89.9 0-132.3 0v95.1z"/><path d="m1502.1 1759.6c-130.9 0-133.5-2.5-133.1-133.6.2-83.2 16.6-99.2 101.1-99.2 30.2 0 60.4-.5 90.7.1 50.1 1.1 72.8 23.1 74.3 72.1.8 27 .5 54.1.1 81.1-.8 60-19.6 78.4-80.7 79.4-17.4.3-34.9.1-52.4.1zm-66-69.4c150.7 12.8 145.3 21.1 129.4-92.4-43.7 0-87.1 0-129.4 0z"/><path d="m1907.1 1759.6c-132.7 0-132.7 0-132.5-132.7.1-85.1 14.9-100.1 99-100.1 33.4 0 66.8-.8 100.2.3 39.3 1.2 61.2 23.1 66.2 61.5 1.6 12.5.9 25.4.9 38.1.3 130.7-1.9 132.9-133.8 132.9zm-69.3-163.5c0 27.4-2.5 51.3 1.2 74.2 1.5 9.7 15.3 24.1 24.4 24.9 35.8 2.9 71.9 1.2 110.4 1.2 0-36.5 0-67.2 0-100.2-44.6-.1-86.9-.1-136-.1z"/><path d="m1839.1 1894.5c4.1 45.2-20.1 87.6 25.4 118.4 6 4 6.7 25.2 1.7 33.4-5.2 8.7-20.6 16.5-31 16-34.2-1.7-57.3-20.8-59.3-56.2-2.3-39.6-2.2-79.6.1-119.3 1.9-32.8 22.4-53.1 55.3-54.6 46.1-2 92.4-2.8 138.3.4 12.8.9 24.6 17.7 36.8 27.2-12.1 11.5-23.3 31.5-36.5 32.9-40.8 4.5-82.3 1.8-130.8 1.8z"/><path d="m2044 2316.9c46.4-49.3 121.4-79.3 169.8-80.1 59.4-1 93.9 33.6 94.7 81 .5 27.8-7.1 51.9-38 84.2-25.8 28.7-37.7 33.8-40.1 33.9-2.6 0-3.6-1.3-3.6-3.1-.1-1.7.3-3.6.9-4.1 2.9-2.7 5.4-5.6 8.2-8.7 10.5-11.3 11.6-12.8 17.9-23.6 11.7-20.7 15.1-33.9 14.8-50.5-.9-52.2-41.3-88.8-91.8-87.9-63.9 1.1-141.8 79.7-140 184.7.3 14.7 2 28.2 4.8 40.4 52 59.1 125.8 98.7 209 106.2 62.1-20 108.3-76.1 107-157.1-.4-21.3-3-40.9-9.3-62.1l-20.6-72.5c-14-50.8-17.2-78.6-17.6-101.4-1.2-73.8 25.6-126.5 74.4-167 16-13 33-23.3 50.7-31-44.8-25.3-96.3-40.2-151.4-40.9-174.9-2.5-318.7 137.3-321.2 312.2-.7 48.2 9.5 94 28.2 135.2 10.1-31.9 27.9-61.3 53.2-87.8"/><path d="m2510.1 2199.6c-6.2.1-12.6-.7-16.8-1.4-1.2 0-3.7-1-3.8-2.9 0-1.6 1.6-2.6 3.9-2.7l5.5-.1c24.6-.4 53.8-20.2 67.1-53.8-25.4-53.7-65.4-99.1-115-131.1-36.4 17.5-65.1 56.6-64.4 98.5.3 20.7 7.9 59.5 22.2 91.1l24.1 56.1c27.8 61.3 31.6 95 32 122.5 1.9 114.4-80.2 167.2-106.6 184.6-18.3 11.7-38.2 21.7-59.2 29.7 163.9-9.9 294.8-144.8 297.2-311.6.5-36.2-5.1-71.1-15.8-103.6-19.4 15.4-43.9 24.2-70.4 24.7"/></g></svg>