<svg enable-background="new 0 0 612 612" viewBox="0 0 612 612" xmlns="http://www.w3.org/2000/svg"><g fill="#fff"><path clip-rule="evenodd" d="m169.11 335.79c28.04-30.7 73.83-49.71 103.49-50.66 36.42-1.13 57.92 19.84 58.82 48.9.54 17.06-3.93 31.95-22.57 52.03-15.57 17.83-22.82 21.07-24.31 21.12-1.58.07-2.2-.78-2.22-1.88-.05-1.09.14-2.17.49-2.49 1.78-1.68 3.3-3.49 4.99-5.42 6.35-7.06 7.05-7.97 10.8-14.62 7.01-12.79 9-20.96 8.68-31.13-1-32-26.12-54.13-57.1-53.16-39.16 1.23-86.3 50.11-84.31 114.54.29 9.04 1.46 17.28 3.32 24.75 32.44 35.84 78.06 59.48 129.19 63.35 37.89-12.79 65.81-47.61 64.29-97.34-.46-13.07-2.26-25.09-6.25-38.03l-13.25-44.3c-9.03-31.07-11.25-48.09-11.7-62.1-1.39-45.26 14.64-77.83 44.22-103.12 9.68-8.1 20.04-14.54 30.81-19.48-27.65-15.15-59.43-23.8-93.24-23.8-107.34 0-194.35 87.03-194.35 194.39 0 29.57 6.62 57.61 18.44 82.7 5.82-19.64 16.47-37.8 31.76-54.25" fill-rule="evenodd"/><path clip-rule="evenodd" d="m454.09 259.73c-3.8.09-7.77-.35-10.35-.75-.72.01-2.28-.59-2.33-1.75-.04-.98.97-1.59 2.36-1.7l3.38-.07c15.05-.48 32.82-12.86 40.74-33.56-16.07-32.72-41-60.27-71.74-79.46-22.19 11.09-39.45 35.29-38.64 61 .39 12.72 5.38 36.46 14.41 55.73l15.29 34.21c17.55 37.36 20.19 58.05 20.7 74.86 2.17 70.21-47.74 103.34-63.83 114.21-11.13 7.36-23.28 13.61-36.07 18.7 100.48-7.49 179.66-91.4 179.66-193.77 0-22.23-3.77-43.61-10.65-63.47-11.7 9.63-26.66 15.29-42.93 15.82" fill-rule="evenodd"/><path d="m377.05 551.59c3.18 8.38-3.28 15.71-12.65 18.32-7.7 2.16-15.3.95-19.55-4.34 2.43-1.93 4.8-3.9 7.13-5.89 2.02 2.81 5.23 3.87 10.06 2.53 4.96-1.39 6.95-4.41 5.86-7.63-1.07-3.17-4.43-4.55-8.93-3.28-4.69 1.32-9.42 2.52-14.2 3.61-1.3-7.63-2.65-15.25-4.04-22.87 8.26-1.94 16.38-4.25 24.33-6.92.87 2.42 1.74 4.84 2.62 7.25-5.53 1.85-11.14 3.54-16.82 5.05.52 2.45 1.03 4.91 1.54 7.37 1.56-.41 3.12-.84 4.67-1.28 8.21-2.3 16.81-.31 19.98 8.08"/><path d="m377.99 542.77c-4.53-12.13-1.56-22.43 8.57-26.8 10.17-4.44 19.87.38 26.05 11.79 6.15 11.35 3.95 22.66-7.99 27.88-11.91 5.13-22.13-.81-26.63-12.87m26.38-10.94c-3.96-7.95-8.95-10.96-14.48-8.56-5.53 2.39-6.54 8.01-3.15 16.2 3.38 8.17 8.43 11.45 14.54 8.81 6.1-2.65 7.03-8.52 3.09-16.45"/><path d="m463.62 511.53c-5.16 3.91-10.44 7.65-15.85 11.23.59 2.63 1.16 5.27 1.71 7.92-2.97 1.92-5.98 3.8-9.02 5.62-2.31-14.93-5.35-29.62-9.09-44.01 2.93-1.99 5.83-4.04 8.68-6.15 12.46 8.21 25.43 15.86 38.86 22.91-2.74 2.27-5.52 4.5-8.33 6.68-2.34-1.39-4.66-2.79-6.96-4.2m-7.03-4.41c-5.17-3.29-10.26-6.66-15.27-10.13 1.65 5.84 3.19 11.73 4.62 17.67 3.61-2.43 7.16-4.95 10.65-7.54"/><path d="m479.55 450.44c10.27 9.51 20.53 19.02 30.8 28.53-1.68 1.85-3.38 3.68-5.1 5.49-11.07-.79-21.93-2.16-32.53-4.07l17.25 19.03c-2.42 2.21-4.87 4.38-7.36 6.51-9.1-10.65-18.19-21.3-27.29-31.95 1.65-1.42 3.29-2.85 4.91-4.31 10.32 2.21 20.9 3.89 31.7 5-6.09-5.99-12.18-11.97-18.27-17.96 2-2.06 3.96-4.15 5.89-6.27m-19.08 4.13c2.72-.55 3.31-1.08 1.21-3.21 1.48-1.47 2.94-2.96 4.38-4.47 6.89 6.61 3.4 11.73-2.65 12.95-2.75.56-3.41 1.08-1.37 3.28-1.55 1.46-3.12 2.9-4.71 4.32-6.3-7.17-2.81-11.65 3.14-12.87"/><path d="m499.31 459.8c-9.09-8.3-9.55-22.12-2.21-32.2 7.37-10.06 20.6-13.75 31.04-7.29 10.36 6.4 12.44 21.7 3.74 33.59-8.69 11.9-23.56 14.14-32.57 5.9m23.84-31.59c-6.72-4.5-14.87-2.31-19.65 4.23-4.78 6.55-4.46 15.08 1.72 20.33 6.11 5.2 14.91 3.51 20.21-3.75s4.37-16.36-2.28-20.81"/><path d="m539.06 424.29c.25-3.11.46-6.21.62-9.3 4.18.46 8.08-1.32 10.92-6.85 2.7-5.29 1.69-8.14-.37-9.19-2.77-1.43-5.21 1.05-10.09 6.55-5.04 5.67-10.93 10.34-17.67 6.11-6.68-4.21-7-12.56-3.53-19.29 3.35-6.47 8.81-9.98 15.36-10.31.16 2.91.27 5.83.34 8.77-3.54.06-6.57 1.28-8.69 5.4-1.74 3.35-1.26 6.19.8 7.39 2.21 1.27 4.31.45 9.25-5.01 5.25-5.67 10.51-12.15 18.22-8.54 7.07 3.28 8.34 12.48 3.34 22.24-4.82 9.33-11.89 13.06-18.5 12.03"/><path d="m331.24 571-21.29.77c-3.55.09-7.1-.16-10.64-.23-3.55-.05-7.09-.31-10.62-.63-7.09-.43-14.11-1.49-21.14-2.42-6.98-1.29-13.97-2.47-20.85-4.25-27.61-6.57-54.01-17.84-78.09-32.72-48.03-29.97-86.37-75.24-107.08-127.81-21.01-52.43-24.52-111.39-10.36-165.81 14.13-54.47 46.24-103.83 89.8-139.04 10.88-8.82 22.51-16.68 34.61-23.68 6.02-3.57 12.3-6.66 18.55-9.78l9.58-4.26c3.18-1.45 6.49-2.58 9.73-3.89 13.08-4.89 26.5-8.94 40.19-11.7 13.69-2.74 27.57-4.45 41.5-5.15 13.94-.53 27.9-.02 41.75 1.47 13.85 1.53 27.54 4.34 40.96 8.02 13.44 3.65 26.51 8.57 39.13 14.41 12.6 5.87 24.86 12.54 36.33 20.39 46.25 30.91 81.99 76.87 100.76 128.99 9.22 26.1 14.52 53.6 15.15 81.24.89 27.62-2.82 55.34-10.68 81.78 7.54-26.53 10.91-54.24 9.7-81.75-.95-27.53-6.56-54.8-16.01-80.59-19.25-51.5-55.18-96.48-101.09-126.38-11.39-7.6-23.54-14.01-35.99-19.64-12.47-5.59-25.37-10.27-38.6-13.69-13.21-3.45-26.66-6.05-40.25-7.39-13.59-1.3-27.26-1.62-40.88-.95-54.53 2.9-107.64 23.94-149.47 58.66-41.87 34.67-72.27 82.79-85.25 135.37-13 52.55-8.9 109.13 11.76 158.94 20.38 49.98 57.47 92.62 103.35 120.51 23.01 13.83 48.11 24.2 74.26 30.09 6.51 1.61 13.13 2.64 19.73 3.78 6.65.79 13.29 1.72 19.98 2.04 3.34.26 6.68.48 10.03.48 3.35.02 6.7.23 10.04.1l20.05-.96z"/></g></svg>